<?xml version="1.0" encoding="UTF-8" standalone="no"?>
<!-- Created with Inkscape (http://www.inkscape.org/) -->

<svg
   width="206.019mm"
   height="145.54401mm"
   viewBox="0 0 171.68241 121.2867"
   version="1.1"
   id="svg5"
   inkscape:version="1.2.2 (b0a84865, 2022-12-01)"
   sodipodi:docname="gradient-descent.svg"
   xmlns:inkscape="http://www.inkscape.org/namespaces/inkscape"
   xmlns:sodipodi="http://sodipodi.sourceforge.net/DTD/sodipodi-0.dtd"
   xmlns="http://www.w3.org/2000/svg"
   xmlns:svg="http://www.w3.org/2000/svg">
  <sodipodi:namedview
     id="namedview7"
     pagecolor="#ffffff"
     bordercolor="#eeeeee"
     borderopacity="1"
     inkscape:showpageshadow="0"
     inkscape:pageopacity="0"
     inkscape:pagecheckerboard="false"
     inkscape:deskcolor="#505050"
     inkscape:document-units="mm"
     showgrid="false"
     showguides="true"
     inkscape:zoom="1.1009789"
     inkscape:cx="465.0407"
     inkscape:cy="299.27912"
     inkscape:window-width="1295"
     inkscape:window-height="809"
     inkscape:window-x="175"
     inkscape:window-y="37"
     inkscape:window-maximized="0"
     inkscape:current-layer="text38331"
     showborder="false" />
  <defs
     id="defs2">
    <inkscape:path-effect
       effect="spiro"
       id="path-effect1106"
       is_visible="true"
       lpeversion="1" />
  </defs>
  <g
     inkscape:label="Layer 1"
     inkscape:groupmode="layer"
     id="layer1">
    <g
       aria-label="Git workflow. Carlos Paiz"
       id="text38331"
       style="font-weight:bold;font-size:2.82222px;font-family:'Helvetica Neue';-inkscape-font-specification:'Helvetica Neue Bold';text-align:center;text-anchor:middle;fill:#333333;stroke-width:1.422;stroke-linecap:round">
      <path
         style="font-weight:bold;font-size:2.82222px;font-family:'Helvetica Neue';-inkscape-font-specification:'Helvetica Neue Bold';text-align:center;text-anchor:middle;fill:#ececec;fill-opacity:1;stroke:#b7b0ae;stroke-width:0.444167;stroke-linecap:round;stroke-dasharray:0.444167, 1.33249;stroke-dashoffset:0;stroke-opacity:0.501832"
         d="m 32.969141,17.304946 18.824785,59.0007"
         id="path3999-7"
         sodipodi:nodetypes="cc" />
      <path
         style="font-weight:bold;font-size:2.82222px;font-family:'Helvetica Neue';-inkscape-font-specification:'Helvetica Neue Bold';text-align:center;text-anchor:middle;fill:#ececec;fill-opacity:1;stroke:#b7b0ae;stroke-width:0.405;stroke-linecap:round;stroke-dasharray:0.405, 1.21499;stroke-dashoffset:0;stroke-opacity:0.501832"
         d="M 48.209308,101.02199 140.68103,99.947846"
         id="path3999-7-7-8-7"
         sodipodi:nodetypes="cc" />
      <path
         style="fill:none;stroke:#b6b6b6;stroke-width:0.733593;stroke-linecap:round;stroke-dasharray:none;stroke-dashoffset:0;stroke-opacity:1"
         d="M 25.225024,14.651099 V 103.58459 H 161.54091"
         id="path2000" />
      <g
         aria-label="2 4 6 8"
         id="text10028"
         style="font-weight:500;font-size:2.82223px;-inkscape-font-specification:'Helvetica Neue Medium';letter-spacing:13.2292px;fill:#808080;stroke-width:0.789001" />
      <text
         xml:space="preserve"
         style="font-style:normal;font-variant:normal;font-weight:500;font-stretch:normal;font-size:2.82223px;font-family:'Helvetica Neue';-inkscape-font-specification:'Helvetica Neue Medium';text-align:end;text-anchor:end;fill:#808080;fill-opacity:1;stroke:none;stroke-width:0.789001;stroke-linecap:round;stroke-dasharray:none;stroke-dashoffset:0;stroke-opacity:1"
         x="18.26405"
         y="24.031645"
         id="text10162"><tspan
           sodipodi:role="line"
           id="tspan10160"
           style="stroke-width:0.789"
           x="18.26405"
           y="24.031645" /></text>
      <path
         style="fill:#000000;fill-opacity:0;stroke:#808080;stroke-width:1.03705;stroke-linecap:round;stroke-dasharray:none;stroke-opacity:0.435897"
         d="M 36.789278,26.411994 C 47.241468,64.673429 67.415065,99.729256 93.951636,99.722908 117.70364,99.508179 137.17749,63.754015 145.8512,25.603064"
         id="path1206"
         sodipodi:nodetypes="ccc" />
      <g
         id="g12505"
         style="fill:#b3b3b3;fill-opacity:0.29304031">
        <path
           style="color:#000000;-inkscape-font-specification:'Helvetica Neue Bold';fill:#b3b3b3;fill-opacity:0.29304031;-inkscape-stroke:none"
           d="M 46.802734,30.359375 A 0.43166661,0.43166661 0 0 0 46.5,30.888672 c 4.329081,15.847097 10.653451,31.040168 18.662109,42.355469 8.008659,11.3153 17.737509,18.787511 28.853516,19.001953 A 0.43166661,0.43166661 0 0 0 94.455078,91.822266 0.43166661,0.43166661 0 0 0 94.03125,91.382812 C 83.292591,91.17565 73.787035,83.938675 65.865234,72.746094 57.943434,61.553513 51.641711,46.438187 47.332031,30.662109 a 0.43166661,0.43166661 0 0 0 -0.529297,-0.302734 z"
           id="path10195" />
        <g
           id="g10187"
           style="fill:#b3b3b3;fill-opacity:0.29304031">
          <path
             style="color:#000000;-inkscape-font-specification:'Helvetica Neue Bold';fill:#b3b3b3;fill-opacity:0.29304031;-inkscape-stroke:none"
             d="m 92.023437,89.568359 a 0.32905149,0.32905149 0 0 0 -0.0078,0.464844 l 1.707031,1.775391 -1.77539,1.707031 a 0.32905149,0.32905149 0 0 0 -0.0078,0.464844 0.32905149,0.32905149 0 0 0 0.464844,0.0098 l 2.25,-2.164062 -2.164063,-2.25 a 0.32905149,0.32905149 0 0 0 -0.466797,-0.0078 z"
             id="path10189" />
        </g>
      </g>
      <path
         style="font-weight:bold;font-size:2.82222px;font-family:'Helvetica Neue';-inkscape-font-specification:'Helvetica Neue Bold';text-align:center;text-anchor:middle;fill:#efad11;fill-opacity:1;stroke:none;stroke-width:0.864978;stroke-linecap:round;stroke-dasharray:none;stroke-dashoffset:0;stroke-opacity:1"
         id="path2910-7-3"
         sodipodi:type="arc"
         sodipodi:cx="40.453262"
         sodipodi:cy="38.45454"
         sodipodi:rx="1.314672"
         sodipodi:ry="1.314672"
         sodipodi:start="3.1369395"
         sodipodi:end="3.136843"
         sodipodi:open="true"
         sodipodi:arc-type="arc"
         d="m 39.138605,38.460658 a 1.314672,1.314672 0 0 1 1.308508,-1.320775 1.314672,1.314672 0 0 1 1.320807,1.308476 1.314672,1.314672 0 0 1 -1.308445,1.320839 1.314672,1.314672 0 0 1 -1.32087,-1.308414" />
      <path
         style="font-weight:bold;font-size:2.82222px;font-family:'Helvetica Neue';-inkscape-font-specification:'Helvetica Neue Bold';text-align:center;text-anchor:middle;fill:#efad11;fill-opacity:1;stroke:none;stroke-width:0.864978;stroke-linecap:round;stroke-dasharray:none;stroke-dashoffset:0;stroke-opacity:1"
         id="path2910-7-3-3"
         sodipodi:type="arc"
         sodipodi:cx="49.665394"
         sodipodi:cy="60.163906"
         sodipodi:rx="1.314672"
         sodipodi:ry="1.314672"
         sodipodi:start="3.1369395"
         sodipodi:end="3.136843"
         sodipodi:open="true"
         sodipodi:arc-type="arc"
         d="m 48.350736,60.170023 a 1.314672,1.314672 0 0 1 1.308509,-1.320775 1.314672,1.314672 0 0 1 1.320806,1.308477 1.314672,1.314672 0 0 1 -1.308445,1.320838 1.314672,1.314672 0 0 1 -1.320869,-1.308413" />
      <path
         style="font-weight:bold;font-size:2.82222px;font-family:'Helvetica Neue';-inkscape-font-specification:'Helvetica Neue Bold';text-align:center;text-anchor:middle;fill:#efad11;fill-opacity:1;stroke:none;stroke-width:0.864978;stroke-linecap:round;stroke-dasharray:none;stroke-dashoffset:0;stroke-opacity:1"
         id="path2910-7-3-8"
         sodipodi:type="arc"
         sodipodi:cx="69.090965"
         sodipodi:cy="88.601341"
         sodipodi:rx="1.314672"
         sodipodi:ry="1.314672"
         sodipodi:start="3.1369395"
         sodipodi:end="3.136843"
         sodipodi:open="true"
         sodipodi:arc-type="arc"
         d="m 67.776308,88.607459 a 1.314672,1.314672 0 0 1 1.308508,-1.320775 1.314672,1.314672 0 0 1 1.320807,1.308476 1.314672,1.314672 0 0 1 -1.308445,1.320839 1.314672,1.314672 0 0 1 -1.32087,-1.308414" />
      <path
         style="font-weight:bold;font-size:2.82222px;font-family:'Helvetica Neue';-inkscape-font-specification:'Helvetica Neue Bold';text-align:center;text-anchor:middle;fill:#efad11;fill-opacity:1;stroke:none;stroke-width:0.864978;stroke-linecap:round;stroke-dasharray:none;stroke-dashoffset:0;stroke-opacity:1"
         id="path2910-7-3-46"
         sodipodi:type="arc"
         sodipodi:cx="58.476994"
         sodipodi:cy="76.585526"
         sodipodi:rx="1.314672"
         sodipodi:ry="1.314672"
         sodipodi:start="3.1369395"
         sodipodi:end="3.136843"
         sodipodi:open="true"
         sodipodi:arc-type="arc"
         d="m 57.162336,76.591643 a 1.314672,1.314672 0 0 1 1.308508,-1.320775 1.314672,1.314672 0 0 1 1.320807,1.308477 1.314672,1.314672 0 0 1 -1.308445,1.320838 1.314672,1.314672 0 0 1 -1.32087,-1.308413" />
      <path
         style="font-weight:bold;font-size:2.82222px;font-family:'Helvetica Neue';-inkscape-font-specification:'Helvetica Neue Bold';text-align:center;text-anchor:middle;fill:#efad11;fill-opacity:1;stroke:none;stroke-width:0.864978;stroke-linecap:round;stroke-dasharray:none;stroke-dashoffset:0;stroke-opacity:1"
         id="path2910-7-3-4"
         sodipodi:type="arc"
         sodipodi:cx="82.108101"
         sodipodi:cy="97.012421"
         sodipodi:rx="1.314672"
         sodipodi:ry="1.314672"
         sodipodi:start="3.1369395"
         sodipodi:end="3.136843"
         sodipodi:open="true"
         sodipodi:arc-type="arc"
         d="m 80.793443,97.018538 a 1.314672,1.314672 0 0 1 1.308509,-1.320775 1.314672,1.314672 0 0 1 1.320806,1.308477 1.314672,1.314672 0 0 1 -1.308445,1.320838 1.314672,1.314672 0 0 1 -1.320869,-1.308413" />
      <path
         style="font-weight:bold;font-size:2.82222px;font-family:'Helvetica Neue';-inkscape-font-specification:'Helvetica Neue Bold';text-align:center;text-anchor:middle;fill:#efad11;fill-opacity:1;stroke:none;stroke-width:0.864978;stroke-linecap:round;stroke-dasharray:none;stroke-dashoffset:0;stroke-opacity:1"
         id="path2910-7-3-80"
         sodipodi:type="arc"
         sodipodi:cx="93.723396"
         sodipodi:cy="99.615845"
         sodipodi:rx="1.314672"
         sodipodi:ry="1.314672"
         sodipodi:start="3.1369395"
         sodipodi:end="3.136843"
         sodipodi:open="true"
         sodipodi:arc-type="arc"
         d="m 92.408739,99.621962 a 1.314672,1.314672 0 0 1 1.308508,-1.320775 1.314672,1.314672 0 0 1 1.320807,1.308477 1.314672,1.314672 0 0 1 -1.308445,1.320836 1.314672,1.314672 0 0 1 -1.32087,-1.308411" />
      <g
         aria-label="w"
         id="text7121"
         style="font-weight:500;font-size:3.86614px;-inkscape-font-specification:'Helvetica Neue Medium';text-align:end;text-anchor:end;fill:#808080;stroke-width:0.665765;stroke-dasharray:0.665765, 1.99728;stroke-opacity:0.186813">
        <path
           d="m 92.974761,105.72489 h 0.467803 l 0.39048,1.49233 h 0.0077 l 0.375015,-1.49233 h 0.444606 l 0.359551,1.49233 h 0.0077 l 0.405944,-1.49233 h 0.448472 l -0.626314,1.9988 h -0.452339 l -0.371149,-1.4846 h -0.0077 l -0.367284,1.4846 h -0.463936 z"
           id="path8454" />
      </g>
      <g
         aria-label="0"
         id="text7121-0"
         style="font-weight:500;font-size:3.86614px;-inkscape-font-specification:'Helvetica Neue Medium';text-align:end;text-anchor:end;fill:#cccccc;stroke-width:0.665765;stroke-dasharray:0.665765, 1.99728;stroke-opacity:0.186813">
        <path
           d="m 22.057616,105.5803 q 0.289961,0 0.47167,0.13531 0.185574,0.13145 0.286094,0.34022 0.104386,0.20491 0.139181,0.45234 0.03866,0.24743 0.03866,0.4794 0,0.23197 -0.03866,0.4794 -0.0348,0.24744 -0.139181,0.45621 -0.10052,0.2049 -0.286094,0.34022 -0.181709,0.13145 -0.47167,0.13145 -0.28996,0 -0.475535,-0.13145 -0.181708,-0.13532 -0.286094,-0.34022 -0.10052,-0.20877 -0.139181,-0.45621 -0.03479,-0.24743 -0.03479,-0.4794 0,-0.23197 0.03479,-0.4794 0.03866,-0.24743 0.139181,-0.45234 0.104386,-0.20877 0.286094,-0.34022 0.185575,-0.13531 0.475535,-0.13531 z m 0,2.44726 q 0.143048,0 0.239701,-0.0812 0.09665,-0.085 0.15078,-0.22423 0.05799,-0.14305 0.08119,-0.33249 0.0232,-0.18944 0.0232,-0.40208 0,-0.21264 -0.0232,-0.39821 -0.0232,-0.18944 -0.08119,-0.33249 -0.05413,-0.14305 -0.15078,-0.22423 -0.09665,-0.0851 -0.239701,-0.0851 -0.146913,0 -0.243566,0.0851 -0.09279,0.0812 -0.15078,0.22423 -0.05413,0.14305 -0.07732,0.33249 -0.0232,0.18557 -0.0232,0.39821 0,0.21264 0.0232,0.40208 0.0232,0.18944 0.07732,0.33249 0.05799,0.13918 0.15078,0.22423 0.09665,0.0812 0.243566,0.0812 z"
           id="path8457" />
      </g>
      <g
         aria-label="loss"
         transform="rotate(-90)"
         id="text7121-7"
         style="font-weight:500;font-size:3.86614px;-inkscape-font-specification:'Helvetica Neue Medium';text-align:end;text-anchor:end;fill:#808080;stroke-width:0.665765;stroke-dasharray:0.665765, 1.99728;stroke-opacity:0.186813">
        <path
           d="m -59.965858,19.913051 h 0.44074 v 2.760424 h -0.44074 z"
           id="path8445" />
        <path
           d="m -58.129445,22.727601 q -0.2397,0 -0.429141,-0.07732 -0.185575,-0.08119 -0.317024,-0.22037 -0.127582,-0.139181 -0.197173,-0.332488 -0.06572,-0.193307 -0.06572,-0.425275 0,-0.228102 0.06572,-0.421409 0.06959,-0.193307 0.197173,-0.332488 0.131449,-0.139181 0.317024,-0.216504 0.189441,-0.08119 0.429141,-0.08119 0.239701,0 0.425276,0.08119 0.189441,0.07732 0.317023,0.216504 0.131449,0.139181 0.197173,0.332488 0.06959,0.193307 0.06959,0.421409 0,0.231968 -0.06959,0.425275 -0.06572,0.193307 -0.197173,0.332488 -0.127582,0.139181 -0.317023,0.22037 -0.185575,0.07732 -0.425276,0.07732 z m 0,-0.347952 q 0.146914,0 0.255166,-0.06186 0.108251,-0.06186 0.177842,-0.162377 0.06959,-0.10052 0.10052,-0.224237 0.0348,-0.127582 0.0348,-0.259031 0,-0.127583 -0.0348,-0.255165 -0.03093,-0.127583 -0.10052,-0.224236 -0.06959,-0.10052 -0.177842,-0.162378 -0.108252,-0.06186 -0.255166,-0.06186 -0.146913,0 -0.255165,0.06186 -0.108252,0.06186 -0.177842,0.162378 -0.06959,0.09665 -0.104386,0.224236 -0.03093,0.127582 -0.03093,0.255165 0,0.131449 0.03093,0.259031 0.03479,0.123717 0.104386,0.224237 0.06959,0.100519 0.177842,0.162377 0.108252,0.06186 0.255165,0.06186 z"
           id="path8447" />
        <path
           d="m -56.420617,22.031696 q 0.01933,0.193307 0.146914,0.27063 0.127582,0.07732 0.305425,0.07732 0.06186,0 0.139181,-0.0077 0.08119,-0.0116 0.150779,-0.03866 0.06959,-0.02706 0.112118,-0.07732 0.04639,-0.05413 0.04253,-0.139181 -0.0039,-0.08506 -0.06186,-0.139181 -0.05799,-0.05413 -0.15078,-0.08506 -0.08892,-0.03479 -0.204905,-0.05799 -0.115984,-0.0232 -0.235835,-0.05026 -0.123716,-0.02706 -0.2397,-0.06572 -0.112119,-0.03866 -0.204906,-0.104386 -0.08892,-0.06572 -0.143047,-0.166244 -0.05413,-0.104386 -0.05413,-0.255165 0,-0.162378 0.07732,-0.27063 0.08119,-0.112118 0.201039,-0.177843 0.123717,-0.06959 0.27063,-0.09665 0.150779,-0.02706 0.286094,-0.02706 0.154646,0 0.293827,0.03479 0.143047,0.03093 0.255165,0.104386 0.115984,0.07346 0.189441,0.193307 0.07732,0.115984 0.09665,0.282228 h -0.46007 q -0.03093,-0.158512 -0.146914,-0.212637 -0.112118,-0.05413 -0.259031,-0.05413 -0.04639,0 -0.112118,0.0077 -0.06186,0.0077 -0.11985,0.03093 -0.05413,0.01933 -0.09279,0.06186 -0.03866,0.03866 -0.03866,0.104386 0,0.08119 0.05413,0.131449 0.05799,0.05026 0.146913,0.08506 0.09279,0.03093 0.208772,0.05413 0.115984,0.0232 0.2397,0.05026 0.119851,0.02706 0.235835,0.06572 0.115984,0.03866 0.204905,0.104386 0.09279,0.06572 0.146914,0.166244 0.05799,0.100519 0.05799,0.247433 0,0.177842 -0.08119,0.301559 -0.08119,0.123716 -0.212638,0.201039 -0.127582,0.07732 -0.286094,0.112118 -0.158512,0.03479 -0.313158,0.03479 -0.18944,0 -0.351818,-0.04253 -0.158512,-0.04253 -0.278362,-0.127583 -0.115985,-0.08892 -0.185575,-0.216504 -0.06572,-0.131449 -0.06959,-0.309291 z"
           id="path8449" />
        <path
           d="m -54.414094,22.031696 q 0.01933,0.193307 0.146914,0.27063 0.127582,0.07732 0.305425,0.07732 0.06186,0 0.139181,-0.0077 0.08119,-0.0116 0.150779,-0.03866 0.06959,-0.02706 0.112118,-0.07732 0.04639,-0.05413 0.04253,-0.139181 -0.0039,-0.08506 -0.06186,-0.139181 -0.05799,-0.05413 -0.15078,-0.08506 -0.08892,-0.03479 -0.204905,-0.05799 -0.115984,-0.0232 -0.235835,-0.05026 -0.123716,-0.02706 -0.2397,-0.06572 -0.112118,-0.03866 -0.204906,-0.104386 -0.08892,-0.06572 -0.143047,-0.166244 -0.05413,-0.104386 -0.05413,-0.255165 0,-0.162378 0.07732,-0.27063 0.08119,-0.112118 0.201039,-0.177843 0.123717,-0.06959 0.27063,-0.09665 0.150779,-0.02706 0.286094,-0.02706 0.154646,0 0.293827,0.03479 0.143047,0.03093 0.255165,0.104386 0.115984,0.07346 0.189441,0.193307 0.07732,0.115984 0.09665,0.282228 h -0.460071 q -0.03093,-0.158512 -0.146913,-0.212637 -0.112119,-0.05413 -0.259032,-0.05413 -0.04639,0 -0.112118,0.0077 -0.06186,0.0077 -0.11985,0.03093 -0.05413,0.01933 -0.09279,0.06186 -0.03866,0.03866 -0.03866,0.104386 0,0.08119 0.05413,0.131449 0.05799,0.05026 0.146913,0.08506 0.09279,0.03093 0.208772,0.05413 0.115984,0.0232 0.239701,0.05026 0.11985,0.02706 0.235834,0.06572 0.115984,0.03866 0.204905,0.104386 0.09279,0.06572 0.146914,0.166244 0.05799,0.100519 0.05799,0.247433 0,0.177842 -0.08119,0.301559 -0.08119,0.123716 -0.212638,0.201039 -0.127582,0.07732 -0.286094,0.112118 -0.158512,0.03479 -0.313157,0.03479 -0.189441,0 -0.351819,-0.04253 -0.158512,-0.04253 -0.278362,-0.127583 -0.115984,-0.08892 -0.185575,-0.216504 -0.06572,-0.131449 -0.06959,-0.309291 z"
           id="path8451" />
      </g>
      <g
         aria-label="Gradient Descent. Carlos Paiz"
         id="text8514"
         style="font-weight:500;font-size:2.73663px;-inkscape-font-specification:'Helvetica Neue Medium';text-align:end;text-anchor:end;fill:#666666;stroke-width:1.00458;stroke-opacity:0.186813">
        <path
           d="m 7.7632204,114.72315 0.043786,0.22167 h 0.273663 v -1.05634 h -0.820989 v 0.32018 h 0.4323876 q -0.019156,0.20525 -0.1368315,0.31472 -0.1149385,0.10672 -0.3283956,0.10672 -0.1450414,0 -0.2462967,-0.0547 -0.1012553,-0.0575 -0.1641978,-0.15051 -0.062943,-0.093 -0.093045,-0.20799 -0.027366,-0.11767 -0.027366,-0.24082 0,-0.12862 0.027366,-0.24903 0.030103,-0.12042 0.093045,-0.21346 0.062943,-0.0958 0.1641978,-0.15052 0.1012553,-0.0575 0.2462967,-0.0575 0.1559879,0 0.2654531,0.0821 0.1094652,0.0821 0.147778,0.2463 h 0.4104945 q -0.01642,-0.16693 -0.090309,-0.29556 -0.073889,-0.12862 -0.1888275,-0.21619 -0.1122018,-0.0876 -0.2545066,-0.13136 -0.1395681,-0.0465 -0.2900827,-0.0465 -0.2244037,0 -0.4050213,0.0794 -0.1778809,0.0794 -0.3010293,0.21893 -0.1231483,0.13957 -0.1888274,0.3284 -0.065679,0.18609 -0.065679,0.40502 0,0.21346 0.065679,0.39955 0.065679,0.18335 0.1888274,0.32018 0.1231484,0.13683 0.3010293,0.2162 0.1806176,0.0766 0.4050213,0.0766 0.1423047,0 0.2818729,-0.0575 0.1395681,-0.0602 0.2545065,-0.20798 z"
           style="font-weight:bold;-inkscape-font-specification:'Helvetica Neue Bold'"
           id="path9308" />
        <path
           d="m 8.387169,113.52998 v 1.41484 h 0.3886015 v -0.63764 q 0,-0.0958 0.019156,-0.17788 0.019156,-0.0821 0.062943,-0.1423 0.046523,-0.063 0.1204117,-0.0985 0.073889,-0.0356 0.1806176,-0.0356 0.035576,0 0.073889,0.005 0.038313,0.003 0.065679,0.008 v -0.36123 q -0.046523,-0.0137 -0.084836,-0.0137 -0.073889,0 -0.1423048,0.0219 -0.068416,0.0219 -0.1286216,0.0629 -0.060206,0.0383 -0.1067286,0.0958 -0.046523,0.0547 -0.073889,0.12042 h -0.00547 v -0.26272 z"
           style="font-weight:bold;-inkscape-font-specification:'Helvetica Neue Bold'"
           id="path9310" />
        <path
           d="m 9.435298,113.9651 q 0.00821,-0.13683 0.068416,-0.22714 0.060206,-0.0903 0.1532513,-0.14504 0.093045,-0.0547 0.2079839,-0.0766 0.1176751,-0.0246 0.2353501,-0.0246 0.106729,0 0.216194,0.0164 0.109465,0.0137 0.199774,0.0575 0.09031,0.0438 0.147778,0.12314 0.05747,0.0766 0.05747,0.20525 v 0.73615 q 0,0.0958 0.01095,0.18336 0.01095,0.0876 0.03831,0.13136 h -0.394074 q -0.01095,-0.0328 -0.01916,-0.0657 -0.0055,-0.0356 -0.0082,-0.0712 -0.09305,0.0958 -0.21893,0.13409 -0.125885,0.0383 -0.2572432,0.0383 -0.1012553,0 -0.1888275,-0.0246 -0.087572,-0.0246 -0.1532513,-0.0766 -0.065679,-0.052 -0.1039919,-0.13136 -0.035576,-0.0794 -0.035576,-0.18883 0,-0.12041 0.041049,-0.19704 0.043786,-0.0794 0.1094652,-0.12588 0.068416,-0.0465 0.1532513,-0.0684 0.087572,-0.0246 0.1751443,-0.0383 0.087572,-0.0137 0.1724079,-0.0219 0.08483,-0.008 0.150514,-0.0246 0.06568,-0.0164 0.103992,-0.0465 0.03831,-0.0328 0.03558,-0.0931 0,-0.0629 -0.02189,-0.0985 -0.01916,-0.0383 -0.05473,-0.0575 -0.03284,-0.0219 -0.07936,-0.0274 -0.04379,-0.008 -0.09578,-0.008 -0.1149388,0 -0.1806179,0.0493 -0.065679,0.0493 -0.076626,0.16419 z m 0.897615,0.28735 q -0.02463,0.0219 -0.06294,0.0356 -0.03558,0.0109 -0.07936,0.0191 -0.04105,0.008 -0.08757,0.0137 -0.04652,0.005 -0.09305,0.0137 -0.043786,0.008 -0.087572,0.0219 -0.041049,0.0137 -0.073889,0.0383 -0.030103,0.0219 -0.049259,0.0575 -0.019156,0.0356 -0.019156,0.0903 0,0.052 0.019156,0.0876 0.019156,0.0356 0.051996,0.0575 0.03284,0.0192 0.076626,0.0274 0.043786,0.008 0.090309,0.008 0.114939,0 0.177881,-0.0383 0.06294,-0.0383 0.09305,-0.0903 0.0301,-0.0547 0.03558,-0.10947 0.0082,-0.0547 0.0082,-0.0876 z"
           style="font-weight:bold;-inkscape-font-specification:'Helvetica Neue Bold'"
           id="path9312" />
        <path
           d="m 12.026885,114.23329 q 0,0.0876 -0.01642,0.16967 -0.01642,0.0821 -0.05473,0.14778 -0.03831,0.0629 -0.103992,0.10126 -0.06294,0.0383 -0.158725,0.0383 -0.09031,0 -0.155988,-0.0383 -0.06294,-0.041 -0.106728,-0.10399 -0.04105,-0.0657 -0.06021,-0.14778 -0.01916,-0.0821 -0.01916,-0.1642 0,-0.0876 0.01642,-0.16693 0.01916,-0.0821 0.05747,-0.14505 0.04105,-0.0629 0.106729,-0.10125 0.06568,-0.0383 0.161461,-0.0383 0.09578,0 0.158725,0.0383 0.06294,0.0383 0.101255,0.10125 0.04105,0.0602 0.05747,0.14231 0.01642,0.0794 0.01642,0.16693 z m 0.0055,0.53091 v 0.18062 h 0.369445 v -1.95396 h -0.388601 v 0.71153 h -0.0055 q -0.06568,-0.104 -0.180618,-0.15599 -0.112202,-0.0547 -0.238087,-0.0547 -0.155988,0 -0.273663,0.0629 -0.117675,0.0602 -0.197037,0.16146 -0.07663,0.10126 -0.117675,0.23535 -0.03831,0.13136 -0.03831,0.27366 0,0.14778 0.03831,0.28461 0.04105,0.13683 0.117675,0.24356 0.07936,0.10399 0.199774,0.16694 0.120412,0.0602 0.279136,0.0602 0.139568,0 0.249034,-0.0493 0.112201,-0.052 0.180617,-0.16693 z"
           style="font-weight:bold;-inkscape-font-specification:'Helvetica Neue Bold'"
           id="path9314" />
        <path
           d="m 13.094166,113.31105 v -0.32019 h -0.388602 v 0.32019 z m -0.388602,0.21893 v 1.41484 h 0.388602 v -1.41484 z"
           style="font-weight:bold;-inkscape-font-specification:'Helvetica Neue Bold'"
           id="path9316" />
        <path
           d="m 14.353014,114.08551 h -0.632162 q 0.0027,-0.041 0.01642,-0.093 0.01642,-0.052 0.052,-0.0985 0.03831,-0.0465 0.09852,-0.0766 0.06294,-0.0328 0.155988,-0.0328 0.142304,0 0.21072,0.0766 0.07115,0.0766 0.09852,0.2244 z m -0.632162,0.2463 h 1.020763 q 0.01095,-0.1642 -0.02737,-0.31471 -0.03831,-0.15052 -0.125885,-0.26819 -0.08484,-0.11768 -0.21893,-0.18609 -0.134095,-0.0712 -0.314713,-0.0712 -0.161461,0 -0.295556,0.0575 -0.131358,0.0575 -0.22714,0.15872 -0.09578,0.0985 -0.147778,0.23535 -0.052,0.13683 -0.052,0.29556 0,0.16419 0.04926,0.30103 0.052,0.13683 0.145042,0.23535 0.09305,0.0985 0.22714,0.15325 0.134095,0.052 0.301029,0.052 0.240824,0 0.410495,-0.10946 0.169671,-0.10947 0.25177,-0.36397 h -0.342079 q -0.01916,0.0657 -0.103992,0.12588 -0.08484,0.0575 -0.202511,0.0575 -0.164197,0 -0.25177,-0.0848 -0.08757,-0.0848 -0.09578,-0.27366 z"
           style="font-weight:bold;-inkscape-font-specification:'Helvetica Neue Bold'"
           id="path9318" />
        <path
           d="m 14.971491,113.52998 v 1.41484 h 0.388601 v -0.74163 q 0,-0.21619 0.07115,-0.30924 0.07115,-0.0958 0.229877,-0.0958 0.139568,0 0.1943,0.0876 0.05473,0.0848 0.05473,0.25998 v 0.7991 h 0.388601 v -0.87025 q 0,-0.13136 -0.02463,-0.23809 -0.02189,-0.10946 -0.07936,-0.18335 -0.05747,-0.0766 -0.158724,-0.11768 -0.09852,-0.0438 -0.254507,-0.0438 -0.123148,0 -0.240823,0.0575 -0.117675,0.0547 -0.191564,0.17788 h -0.0082 v -0.19704 z"
           style="font-weight:bold;-inkscape-font-specification:'Helvetica Neue Bold'"
           id="path9320" />
        <path
           d="m 17.086902,113.52998 v -0.42418 h -0.388601 v 0.42418 h -0.23535 v 0.25998 h 0.23535 v 0.83467 q 0,0.10673 0.03558,0.17241 0.03558,0.0657 0.09578,0.10125 0.06294,0.0356 0.142305,0.0465 0.0821,0.0137 0.172407,0.0137 0.05747,0 0.117675,-0.003 0.06021,-0.003 0.109466,-0.0109 v -0.30103 q -0.02737,0.005 -0.05747,0.008 -0.0301,0.003 -0.06294,0.003 -0.09852,0 -0.131358,-0.0328 -0.03284,-0.0328 -0.03284,-0.13135 v -0.70058 h 0.28461 v -0.25998 z"
           style="font-weight:bold;-inkscape-font-specification:'Helvetica Neue Bold'"
           id="path9322" />
        <path
           d="m 18.789083,114.58358 v -1.23148 h 0.306503 q 0.158725,0 0.265453,0.0465 0.109465,0.0438 0.175144,0.12862 0.06568,0.0848 0.09305,0.20525 0.0301,0.11767 0.0301,0.26545 0,0.16146 -0.04105,0.27367 -0.04105,0.1122 -0.109465,0.18335 -0.06842,0.0684 -0.155988,0.0985 -0.08757,0.0301 -0.180617,0.0301 z m -0.42965,-1.59272 v 1.95396 h 0.842882 q 0.224403,0 0.388601,-0.0739 0.166934,-0.0766 0.2764,-0.20799 0.112201,-0.13135 0.166934,-0.31197 0.05473,-0.18062 0.05473,-0.39408 0,-0.24356 -0.06842,-0.42417 -0.06568,-0.18062 -0.186091,-0.30103 -0.117675,-0.12042 -0.281873,-0.18062 -0.161461,-0.0602 -0.350288,-0.0602 z"
           style="font-weight:bold;-inkscape-font-specification:'Helvetica Neue Bold'"
           id="path9324" />
        <path
           d="m 21.298571,114.08551 h -0.632162 q 0.0027,-0.041 0.01642,-0.093 0.01642,-0.052 0.052,-0.0985 0.03831,-0.0465 0.09852,-0.0766 0.06294,-0.0328 0.155988,-0.0328 0.142305,0 0.21072,0.0766 0.07115,0.0766 0.09852,0.2244 z m -0.632162,0.2463 h 1.020763 q 0.01095,-0.1642 -0.02737,-0.31471 -0.03831,-0.15052 -0.125885,-0.26819 -0.08483,-0.11768 -0.21893,-0.18609 -0.134095,-0.0712 -0.314713,-0.0712 -0.161461,0 -0.295556,0.0575 -0.131358,0.0575 -0.22714,0.15872 -0.09578,0.0985 -0.147778,0.23535 -0.052,0.13683 -0.052,0.29556 0,0.16419 0.04926,0.30103 0.052,0.13683 0.145042,0.23535 0.09305,0.0985 0.22714,0.15325 0.134095,0.052 0.301029,0.052 0.240824,0 0.410495,-0.10946 0.169671,-0.10947 0.25177,-0.36397 h -0.342079 q -0.01916,0.0657 -0.103992,0.12588 -0.08483,0.0575 -0.202511,0.0575 -0.164197,0 -0.25177,-0.0848 -0.08757,-0.0848 -0.09578,-0.27366 z"
           style="font-weight:bold;-inkscape-font-specification:'Helvetica Neue Bold'"
           id="path9326" />
        <path
           d="m 22.218077,114.48506 h -0.369445 q 0.0055,0.14231 0.06294,0.23809 0.06021,0.093 0.150515,0.15051 0.09305,0.0575 0.21072,0.0821 0.117675,0.0246 0.240824,0.0246 0.120411,0 0.23535,-0.0246 0.117675,-0.0219 0.207984,-0.0794 0.09031,-0.0575 0.145041,-0.15051 0.05747,-0.0958 0.05747,-0.23535 0,-0.0985 -0.03831,-0.1642 -0.03831,-0.0684 -0.101256,-0.1122 -0.06294,-0.0465 -0.145041,-0.0739 -0.07936,-0.0274 -0.164198,-0.0465 -0.0821,-0.0192 -0.161461,-0.0356 -0.07936,-0.0164 -0.142305,-0.0356 -0.06021,-0.0219 -0.09852,-0.0547 -0.03831,-0.0328 -0.03831,-0.0848 0,-0.0438 0.02189,-0.0684 0.02189,-0.0274 0.052,-0.041 0.03284,-0.0137 0.07115,-0.0164 0.03831,-0.005 0.07115,-0.005 0.103992,0 0.180618,0.041 0.07663,0.0383 0.08484,0.15051 h 0.369445 q -0.01095,-0.13136 -0.06842,-0.21619 -0.05473,-0.0876 -0.139568,-0.13957 -0.08484,-0.052 -0.194301,-0.0739 -0.106729,-0.0219 -0.221667,-0.0219 -0.114939,0 -0.224404,0.0219 -0.109465,0.0192 -0.197037,0.0712 -0.08757,0.0493 -0.142305,0.13683 -0.052,0.0876 -0.052,0.22441 0,0.093 0.03831,0.15872 0.03831,0.0629 0.101255,0.10673 0.06294,0.041 0.142305,0.0684 0.0821,0.0246 0.166935,0.0438 0.207983,0.0438 0.322922,0.0876 0.117675,0.0438 0.117675,0.13136 0,0.052 -0.02463,0.0876 -0.02463,0.0328 -0.06294,0.0547 -0.03558,0.0192 -0.0821,0.0301 -0.04379,0.008 -0.08484,0.008 -0.05747,0 -0.112201,-0.0137 -0.052,-0.0137 -0.09305,-0.041 -0.04105,-0.0301 -0.06842,-0.0739 -0.02463,-0.0465 -0.02463,-0.10947 z"
           style="font-weight:bold;-inkscape-font-specification:'Helvetica Neue Bold'"
           id="path9328" />
        <path
           d="m 24.349907,114.02805 h 0.380392 q -0.0082,-0.13684 -0.06568,-0.23535 -0.05747,-0.10126 -0.150515,-0.16694 -0.09031,-0.0684 -0.207984,-0.10125 -0.114938,-0.0328 -0.240823,-0.0328 -0.172408,0 -0.306503,0.0575 -0.134094,0.0575 -0.22714,0.16146 -0.09305,0.10125 -0.142305,0.24356 -0.04652,0.13956 -0.04652,0.30376 0,0.15873 0.052,0.29282 0.052,0.13136 0.145041,0.22714 0.09305,0.0958 0.224404,0.15052 0.134095,0.052 0.292819,0.052 0.281873,0 0.462491,-0.14778 0.180617,-0.14777 0.21893,-0.42965 h -0.374918 q -0.01916,0.13136 -0.09578,0.21072 -0.07389,0.0766 -0.213458,0.0766 -0.09031,0 -0.153251,-0.041 -0.06294,-0.041 -0.101255,-0.10399 -0.03558,-0.0657 -0.052,-0.14504 -0.01642,-0.0794 -0.01642,-0.15599 0,-0.0794 0.01642,-0.15873 0.01642,-0.0821 0.05473,-0.14777 0.04105,-0.0684 0.103992,-0.10947 0.06294,-0.0438 0.155988,-0.0438 0.249034,0 0.287346,0.24356 z"
           style="font-weight:bold;-inkscape-font-specification:'Helvetica Neue Bold'"
           id="path9330" />
        <path
           d="m 25.909785,114.08551 h -0.632162 q 0.0027,-0.041 0.01642,-0.093 0.01642,-0.052 0.052,-0.0985 0.03831,-0.0465 0.09852,-0.0766 0.06294,-0.0328 0.155987,-0.0328 0.142305,0 0.210721,0.0766 0.07115,0.0766 0.09852,0.2244 z m -0.632162,0.2463 h 1.020763 q 0.01095,-0.1642 -0.02737,-0.31471 -0.03831,-0.15052 -0.125885,-0.26819 -0.08484,-0.11768 -0.218931,-0.18609 -0.134094,-0.0712 -0.314712,-0.0712 -0.161461,0 -0.295556,0.0575 -0.131358,0.0575 -0.22714,0.15872 -0.09578,0.0985 -0.147778,0.23535 -0.052,0.13683 -0.052,0.29556 0,0.16419 0.04926,0.30103 0.052,0.13683 0.145041,0.23535 0.09305,0.0985 0.227141,0.15325 0.134095,0.052 0.301029,0.052 0.240823,0 0.410494,-0.10946 0.169672,-0.10947 0.25177,-0.36397 h -0.342078 q -0.01916,0.0657 -0.103992,0.12588 -0.08484,0.0575 -0.202511,0.0575 -0.164198,0 -0.25177,-0.0848 -0.08757,-0.0848 -0.09578,-0.27366 z"
           style="font-weight:bold;-inkscape-font-specification:'Helvetica Neue Bold'"
           id="path9332" />
        <path
           d="m 26.528263,113.52998 v 1.41484 h 0.388601 v -0.74163 q 0,-0.21619 0.07115,-0.30924 0.07115,-0.0958 0.229877,-0.0958 0.139568,0 0.1943,0.0876 0.05473,0.0848 0.05473,0.25998 v 0.7991 h 0.388602 v -0.87025 q 0,-0.13136 -0.02463,-0.23809 -0.02189,-0.10946 -0.07936,-0.18335 -0.05747,-0.0766 -0.158725,-0.11768 -0.09852,-0.0438 -0.254507,-0.0438 -0.123148,0 -0.240823,0.0575 -0.117675,0.0547 -0.191564,0.17788 h -0.0082 v -0.19704 z"
           style="font-weight:bold;-inkscape-font-specification:'Helvetica Neue Bold'"
           id="path9334" />
        <path
           d="m 28.643672,113.52998 v -0.42418 h -0.388601 v 0.42418 h -0.23535 v 0.25998 h 0.23535 v 0.83467 q 0,0.10673 0.03558,0.17241 0.03558,0.0657 0.09578,0.10125 0.06294,0.0356 0.142305,0.0465 0.0821,0.0137 0.172408,0.0137 0.05747,0 0.117675,-0.003 0.06021,-0.003 0.109465,-0.0109 v -0.30103 q -0.02737,0.005 -0.05747,0.008 -0.0301,0.003 -0.06294,0.003 -0.09852,0 -0.131358,-0.0328 -0.03284,-0.0328 -0.03284,-0.13135 v -0.70058 h 0.28461 v -0.25998 z"
           style="font-weight:bold;-inkscape-font-specification:'Helvetica Neue Bold'"
           id="path9336" />
        <path
           d="m 29.130792,114.52338 v 0.42144 h 0.429651 v -0.42144 z"
           style="font-weight:bold;-inkscape-font-specification:'Helvetica Neue Bold'"
           id="path9338" />
        <path
           d="m 32.015198,113.61208 q -0.02189,-0.0848 -0.06021,-0.15599 -0.03831,-0.0712 -0.09852,-0.12315 -0.06021,-0.052 -0.142305,-0.0794 -0.07936,-0.0301 -0.186091,-0.0301 -0.155988,0 -0.270926,0.0629 -0.112202,0.0629 -0.183355,0.16967 -0.07115,0.10399 -0.106728,0.23809 -0.03284,0.13409 -0.03284,0.27366 0,0.13957 0.03284,0.27366 0.03558,0.1341 0.106728,0.24083 0.07115,0.10399 0.183355,0.16693 0.114938,0.0629 0.270926,0.0629 0.114938,0 0.202511,-0.0383 0.08757,-0.041 0.150514,-0.10946 0.06294,-0.0712 0.09852,-0.1642 0.03558,-0.093 0.04652,-0.19978 h 0.333869 q -0.01095,0.17515 -0.07663,0.32019 -0.06294,0.14504 -0.172408,0.25177 -0.109465,0.10399 -0.257243,0.16146 -0.147778,0.0575 -0.325659,0.0575 -0.21893,0 -0.394075,-0.0794 -0.172407,-0.0821 -0.292819,-0.22167 -0.120412,-0.13957 -0.186091,-0.32566 -0.06294,-0.18609 -0.06294,-0.39681 0,-0.20798 0.06294,-0.39408 0.06568,-0.18609 0.186091,-0.32565 0.120412,-0.13957 0.292819,-0.22167 0.175145,-0.0821 0.394075,-0.0821 0.164198,0 0.309239,0.0465 0.145042,0.0438 0.254507,0.13136 0.112202,0.0848 0.180617,0.20798 0.06842,0.12315 0.08484,0.28188 z"
           id="path9340" />
        <path
           d="m 33.813161,114.6301 q 0,0.0575 0.01368,0.0821 0.01642,0.0246 0.06021,0.0246 0.01368,0 0.03284,0 0.01916,0 0.04379,-0.005 v 0.21619 q -0.01642,0.005 -0.04379,0.0109 -0.02463,0.008 -0.052,0.0137 -0.02737,0.005 -0.05473,0.008 -0.02737,0.003 -0.04652,0.003 -0.09578,0 -0.158725,-0.0383 -0.06294,-0.0383 -0.0821,-0.1341 -0.09304,0.0903 -0.229876,0.13136 -0.134095,0.041 -0.25998,0.041 -0.09578,0 -0.183355,-0.0274 -0.08757,-0.0246 -0.155987,-0.0739 -0.06568,-0.052 -0.106729,-0.12862 -0.03831,-0.0794 -0.03831,-0.18335 0,-0.13136 0.04652,-0.21346 0.04926,-0.0821 0.125885,-0.12862 0.07936,-0.0465 0.175144,-0.0657 0.09852,-0.0219 0.197038,-0.0328 0.08483,-0.0164 0.161461,-0.0219 0.07662,-0.008 0.134095,-0.0246 0.06021,-0.0164 0.09305,-0.0493 0.03558,-0.0356 0.03558,-0.10399 0,-0.0602 -0.0301,-0.0985 -0.02737,-0.0383 -0.07115,-0.0575 -0.04105,-0.0219 -0.09305,-0.0274 -0.05199,-0.008 -0.09852,-0.008 -0.131358,0 -0.216194,0.0547 -0.08483,0.0547 -0.09578,0.16967 H 32.60357 q 0.0082,-0.13684 0.06568,-0.22714 0.05747,-0.0903 0.145042,-0.14505 0.09031,-0.0547 0.20251,-0.0766 0.112202,-0.0219 0.229877,-0.0219 0.103992,0 0.205247,0.0219 0.101256,0.0219 0.180618,0.0712 0.0821,0.0493 0.131358,0.12862 0.04926,0.0766 0.04926,0.18883 z m -0.311976,-0.39407 q -0.07115,0.0465 -0.175145,0.0575 -0.103991,0.008 -0.207983,0.0274 -0.04926,0.008 -0.09578,0.0246 -0.04652,0.0137 -0.0821,0.041 -0.03558,0.0246 -0.05747,0.0684 -0.01916,0.041 -0.01916,0.10126 0,0.052 0.0301,0.0876 0.0301,0.0356 0.07115,0.0575 0.04379,0.0191 0.09305,0.0274 0.052,0.008 0.09305,0.008 0.052,0 0.112202,-0.0137 0.06021,-0.0137 0.112202,-0.0465 0.05473,-0.0328 0.09031,-0.0821 0.03558,-0.052 0.03558,-0.12589 z"
           id="path9342" />
        <path
           d="m 34.149764,113.52998 h 0.29282 v 0.27366 h 0.0055 q 0.01368,-0.0575 0.052,-0.1122 0.04105,-0.0547 0.09578,-0.0985 0.05747,-0.0465 0.125885,-0.0739 0.06842,-0.0274 0.139568,-0.0274 0.05473,0 0.07389,0.003 0.02189,0.003 0.04379,0.005 v 0.30103 q -0.03284,-0.005 -0.06842,-0.008 -0.03284,-0.005 -0.06568,-0.005 -0.07936,0 -0.150514,0.0328 -0.06842,0.0301 -0.120412,0.0931 -0.052,0.0602 -0.0821,0.15051 -0.0301,0.0903 -0.0301,0.20799 v 0.67321 h -0.311976 z"
           id="path9344" />
        <path
           d="m 35.121265,112.99086 h 0.311976 v 1.95396 h -0.311976 z"
           id="path9346" />
        <path
           d="m 36.421164,114.98313 q -0.169671,0 -0.303766,-0.0547 -0.131359,-0.0575 -0.224404,-0.15599 -0.09031,-0.0985 -0.139568,-0.23535 -0.04652,-0.13683 -0.04652,-0.30103 0,-0.16146 0.04652,-0.29829 0.04926,-0.13683 0.139568,-0.23535 0.09304,-0.0985 0.224404,-0.15325 0.134095,-0.0575 0.303766,-0.0575 0.169671,0 0.301029,0.0575 0.134095,0.0547 0.224404,0.15325 0.09305,0.0985 0.139568,0.23535 0.04926,0.13683 0.04926,0.29829 0,0.1642 -0.04926,0.30103 -0.04652,0.13683 -0.139568,0.23535 -0.09031,0.0985 -0.224404,0.15599 -0.131358,0.0547 -0.301029,0.0547 z m 0,-0.2463 q 0.103992,0 0.180617,-0.0438 0.07663,-0.0438 0.125885,-0.11494 0.04926,-0.0711 0.07115,-0.15873 0.02463,-0.0903 0.02463,-0.18335 0,-0.0903 -0.02463,-0.18062 -0.02189,-0.0903 -0.07115,-0.15872 -0.04926,-0.0712 -0.125885,-0.11494 -0.07662,-0.0438 -0.180617,-0.0438 -0.103992,0 -0.180618,0.0438 -0.07663,0.0438 -0.125885,0.11494 -0.04926,0.0684 -0.07389,0.15872 -0.02189,0.0903 -0.02189,0.18062 0,0.093 0.02189,0.18335 0.02463,0.0876 0.07389,0.15873 0.04926,0.0712 0.125885,0.11494 0.07663,0.0438 0.180618,0.0438 z"
           id="path9348" />
        <path
           d="m 37.63075,114.49054 q 0.01368,0.13683 0.103992,0.19156 0.09031,0.0547 0.216194,0.0547 0.04379,0 0.09852,-0.005 0.05747,-0.008 0.106728,-0.0274 0.04926,-0.0192 0.07936,-0.0547 0.03284,-0.0383 0.0301,-0.0985 -0.0027,-0.0602 -0.04379,-0.0985 -0.04105,-0.0383 -0.106729,-0.0602 -0.06294,-0.0246 -0.145041,-0.041 -0.0821,-0.0164 -0.166935,-0.0356 -0.08757,-0.0191 -0.169671,-0.0465 -0.07936,-0.0274 -0.145041,-0.0739 -0.06294,-0.0465 -0.101256,-0.11768 -0.03831,-0.0739 -0.03831,-0.18061 0,-0.11494 0.05473,-0.19157 0.05747,-0.0794 0.142305,-0.12588 0.08757,-0.0493 0.191564,-0.0684 0.106729,-0.0191 0.202511,-0.0191 0.109465,0 0.207984,0.0246 0.101255,0.0219 0.180617,0.0739 0.0821,0.052 0.134095,0.13684 0.05473,0.0821 0.06842,0.19977 h -0.325659 q -0.02189,-0.1122 -0.103992,-0.15051 -0.07936,-0.0383 -0.183354,-0.0383 -0.03284,0 -0.07936,0.005 -0.04379,0.005 -0.08484,0.0219 -0.03831,0.0137 -0.06568,0.0438 -0.02737,0.0274 -0.02737,0.0739 0,0.0575 0.03831,0.0931 0.04105,0.0356 0.103992,0.0602 0.06568,0.0219 0.147778,0.0383 0.0821,0.0164 0.169671,0.0356 0.08484,0.0192 0.166935,0.0465 0.0821,0.0274 0.145041,0.0739 0.06568,0.0465 0.103992,0.11767 0.04105,0.0712 0.04105,0.17515 0,0.12588 -0.05747,0.21345 -0.05747,0.0876 -0.150514,0.14231 -0.09031,0.0547 -0.202511,0.0794 -0.112202,0.0246 -0.221667,0.0246 -0.134095,0 -0.249033,-0.0301 -0.112202,-0.0301 -0.197038,-0.0903 -0.0821,-0.0629 -0.131358,-0.15325 -0.04652,-0.093 -0.04926,-0.21893 z"
           id="path9350" />
        <path
           d="m 39.620276,112.99086 h 0.862038 q 0.207984,0 0.339342,0.0602 0.131359,0.0602 0.202511,0.15051 0.07115,0.0903 0.09578,0.19704 0.02737,0.10673 0.02737,0.19704 0,0.0903 -0.02737,0.19704 -0.02463,0.10399 -0.09578,0.1943 -0.07115,0.0903 -0.202511,0.15051 -0.131358,0.0575 -0.339342,0.0575 h -0.519959 v 0.74984 h -0.342079 z m 0.342079,0.92498 h 0.500803 q 0.05747,0 0.117675,-0.0164 0.06021,-0.0164 0.109465,-0.052 0.052,-0.0383 0.0821,-0.0985 0.03284,-0.0629 0.03284,-0.15599 0,-0.0958 -0.02737,-0.15872 -0.02737,-0.063 -0.07389,-0.0985 -0.04652,-0.0383 -0.106728,-0.052 -0.06021,-0.0137 -0.128622,-0.0137 h -0.506276 z"
           id="path9352" />
        <path
           d="m 42.586783,114.6301 q 0,0.0575 0.01368,0.0821 0.01642,0.0246 0.06021,0.0246 0.01368,0 0.03284,0 0.01916,0 0.04379,-0.005 v 0.21619 q -0.01642,0.005 -0.04379,0.0109 -0.02463,0.008 -0.052,0.0137 -0.02737,0.005 -0.05473,0.008 -0.02737,0.003 -0.04652,0.003 -0.09578,0 -0.158724,-0.0383 -0.06294,-0.0383 -0.0821,-0.1341 -0.09304,0.0903 -0.229877,0.13136 -0.134095,0.041 -0.25998,0.041 -0.09578,0 -0.183354,-0.0274 -0.08757,-0.0246 -0.155988,-0.0739 -0.06568,-0.052 -0.106728,-0.12862 -0.03831,-0.0794 -0.03831,-0.18335 0,-0.13136 0.04652,-0.21346 0.04926,-0.0821 0.125885,-0.12862 0.07936,-0.0465 0.175145,-0.0657 0.09852,-0.0219 0.197037,-0.0328 0.08484,-0.0164 0.161461,-0.0219 0.07663,-0.008 0.134095,-0.0246 0.06021,-0.0164 0.09305,-0.0493 0.03558,-0.0356 0.03558,-0.10399 0,-0.0602 -0.0301,-0.0985 -0.02737,-0.0383 -0.07115,-0.0575 -0.04105,-0.0219 -0.09305,-0.0274 -0.052,-0.008 -0.09852,-0.008 -0.131358,0 -0.216193,0.0547 -0.08484,0.0547 -0.09578,0.16967 h -0.311976 q 0.0082,-0.13684 0.06568,-0.22714 0.05747,-0.0903 0.145041,-0.14505 0.09031,-0.0547 0.202511,-0.0766 0.112202,-0.0219 0.229877,-0.0219 0.103992,0 0.205247,0.0219 0.101255,0.0219 0.180618,0.0712 0.0821,0.0493 0.131358,0.12862 0.04926,0.0766 0.04926,0.18883 z m -0.311976,-0.39407 q -0.07115,0.0465 -0.175144,0.0575 -0.103992,0.008 -0.207984,0.0274 -0.04926,0.008 -0.09578,0.0246 -0.04652,0.0137 -0.0821,0.041 -0.03558,0.0246 -0.05747,0.0684 -0.01916,0.041 -0.01916,0.10126 0,0.052 0.0301,0.0876 0.0301,0.0356 0.07115,0.0575 0.04379,0.0191 0.09305,0.0274 0.052,0.008 0.09305,0.008 0.052,0 0.112202,-0.0137 0.06021,-0.0137 0.112201,-0.0465 0.05473,-0.0328 0.09031,-0.0821 0.03558,-0.052 0.03558,-0.12589 z"
           id="path9354" />
        <path
           d="m 42.931597,112.99086 h 0.311976 v 0.29556 h -0.311976 z m 0,0.53912 h 0.311976 v 1.41484 h -0.311976 z"
           id="path9356" />
        <path
           d="m 43.533654,113.52998 h 1.149385 v 0.21893 l -0.810043,0.94961 h 0.851092 v 0.2463 h -1.245166 v -0.21893 l 0.782676,-0.94961 h -0.727944 z"
           id="path9358" />
      </g>
    </g>
  </g>
</svg>
