<?xml version="1.0" encoding="UTF-8" standalone="no"?>
<!-- Created with Inkscape (http://www.inkscape.org/) -->

<svg
   width="206.019mm"
   height="145.54401mm"
   viewBox="0 0 171.68241 121.2867"
   version="1.1"
   id="svg5"
   inkscape:version="1.2.2 (b0a84865, 2022-12-01)"
   sodipodi:docname="regression-2.svg"
   xmlns:inkscape="http://www.inkscape.org/namespaces/inkscape"
   xmlns:sodipodi="http://sodipodi.sourceforge.net/DTD/sodipodi-0.dtd"
   xmlns="http://www.w3.org/2000/svg"
   xmlns:svg="http://www.w3.org/2000/svg">
  <sodipodi:namedview
     id="namedview7"
     pagecolor="#ffffff"
     bordercolor="#eeeeee"
     borderopacity="1"
     inkscape:showpageshadow="0"
     inkscape:pageopacity="0"
     inkscape:pagecheckerboard="false"
     inkscape:deskcolor="#505050"
     inkscape:document-units="mm"
     showgrid="false"
     showguides="true"
     inkscape:zoom="1.1009789"
     inkscape:cx="354.23022"
     inkscape:cy="277.48034"
     inkscape:window-width="1295"
     inkscape:window-height="809"
     inkscape:window-x="175"
     inkscape:window-y="37"
     inkscape:window-maximized="0"
     inkscape:current-layer="text38331"
     showborder="false" />
  <defs
     id="defs2" />
  <g
     inkscape:label="Layer 1"
     inkscape:groupmode="layer"
     id="layer1">
    <g
       aria-label="Git workflow. Carlos Paiz"
       id="text38331"
       style="font-weight:bold;font-size:2.82222px;font-family:'Helvetica Neue';-inkscape-font-specification:'Helvetica Neue Bold';text-align:center;text-anchor:middle;fill:#333333;stroke-width:1.422;stroke-linecap:round">
      <g
         aria-label="Linear Regression. Carlos Paiz"
         id="text1053"
         style="font-size:2.82223px;fill:#666666;stroke-width:0.15;stroke-linecap:square;stroke-dasharray:0.38698, 0.38698;stroke-opacity:0.212454">
        <path
           d="m 5.3087475,113.81745 v 2.01507 h 1.4252262 v -0.37253 H 5.7518376 v -1.64254 z"
           id="path2403" />
        <path
           d="m 7.3520379,114.14765 v -0.3302 H 6.9512812 v 0.3302 z m -0.4007567,0.22578 v 1.45909 h 0.4007567 v -1.45909 z"
           id="path2405" />
        <path
           d="m 7.668126,114.37343 v 1.45909 h 0.4007567 v -0.76482 q 0,-0.22296 0.073378,-0.31892 0.073378,-0.0988 0.2370674,-0.0988 0.1439337,0 0.2003783,0.0903 0.056445,0.0875 0.056445,0.26811 v 0.82409 h 0.4007567 v -0.89747 q 0,-0.13547 -0.0254,-0.24553 -0.022578,-0.11289 -0.081845,-0.18909 -0.059267,-0.079 -0.1636893,-0.12136 -0.1016003,-0.0451 -0.2624674,-0.0451 -0.1270004,0 -0.2483563,0.0593 -0.1213559,0.0564 -0.1975561,0.18345 h -0.00847 v -0.2032 z"
           id="path2407" />
        <path
           d="M 10.32384,114.94634 H 9.6719052 q 0.00282,-0.0423 0.016933,-0.096 0.016933,-0.0536 0.053622,-0.1016 0.039511,-0.048 0.1016003,-0.079 0.064911,-0.0339 0.1608665,-0.0339 0.146756,0 0.217312,0.079 0.07338,0.079 0.1016,0.23142 z m -0.6519348,0.254 h 1.0526918 q 0.01129,-0.16933 -0.02822,-0.32456 -0.03951,-0.15522 -0.129823,-0.27658 -0.08749,-0.12135 -0.225778,-0.19191 -0.13829,-0.0734 -0.324557,-0.0734 -0.1665113,0 -0.3048006,0.0593 -0.1354671,0.0593 -0.2342451,0.16369 -0.098778,0.1016 -0.1524004,0.24271 -0.053622,0.14111 -0.053622,0.3048 0,0.16934 0.0508,0.31045 0.053622,0.14111 0.1495782,0.24271 0.095956,0.1016 0.2342451,0.15805 0.1382893,0.0536 0.3104448,0.0536 0.248356,0 0.423335,-0.11289 0.174978,-0.11289 0.259645,-0.37536 H 10.34642 q -0.01975,0.0677 -0.107245,0.12983 -0.08749,0.0593 -0.208845,0.0593 -0.1693331,0 -0.2596445,-0.0875 -0.090311,-0.0875 -0.098778,-0.28222 z"
           id="path2409" />
        <path
           d="m 10.944729,114.82216 q 0.0085,-0.14111 0.07056,-0.23424 0.06209,-0.0931 0.158045,-0.14958 0.09596,-0.0564 0.214489,-0.079 0.121356,-0.0254 0.242712,-0.0254 0.110067,0 0.222956,0.0169 0.11289,0.0141 0.206023,0.0593 0.09313,0.0451 0.152401,0.127 0.05927,0.079 0.05927,0.21166 v 0.75918 q 0,0.0988 0.01129,0.18909 0.01129,0.0903 0.03951,0.13547 h -0.406402 q -0.01129,-0.0339 -0.01975,-0.0677 -0.0056,-0.0367 -0.0085,-0.0734 -0.09596,0.0988 -0.225778,0.13829 -0.129823,0.0395 -0.26529,0.0395 -0.104422,0 -0.194734,-0.0254 -0.09031,-0.0254 -0.158045,-0.079 -0.06773,-0.0536 -0.107244,-0.13547 -0.03669,-0.0819 -0.03669,-0.19473 0,-0.12418 0.04233,-0.20321 0.04516,-0.0818 0.112889,-0.12982 0.07056,-0.048 0.158045,-0.0706 0.09031,-0.0254 0.180623,-0.0395 0.09031,-0.0141 0.1778,-0.0226 0.08749,-0.008 0.155223,-0.0254 0.06773,-0.0169 0.107245,-0.048 0.03951,-0.0339 0.03669,-0.096 0,-0.0649 -0.02258,-0.1016 -0.01976,-0.0395 -0.05645,-0.0593 -0.03387,-0.0226 -0.08184,-0.0282 -0.04516,-0.008 -0.09878,-0.008 -0.118534,0 -0.186268,0.0508 -0.06773,0.0508 -0.07902,0.16933 z m 0.925692,0.29634 q -0.0254,0.0226 -0.06491,0.0367 -0.03669,0.0113 -0.08184,0.0198 -0.04233,0.008 -0.09031,0.0141 -0.04798,0.006 -0.09596,0.0141 -0.04516,0.008 -0.09031,0.0226 -0.04233,0.0141 -0.0762,0.0395 -0.03105,0.0226 -0.0508,0.0593 -0.01976,0.0367 -0.01976,0.0931 0,0.0536 0.01976,0.0903 0.01975,0.0367 0.05362,0.0593 0.03387,0.0198 0.07902,0.0282 0.04515,0.008 0.09313,0.008 0.118534,0 0.183445,-0.0395 0.06491,-0.0395 0.09596,-0.0931 0.03105,-0.0564 0.03669,-0.11289 0.0085,-0.0564 0.0085,-0.0903 z"
           id="path2411" />
        <path
           d="m 12.581621,114.37343 v 1.45909 h 0.400757 v -0.65758 q 0,-0.0988 0.01975,-0.18345 0.01976,-0.0847 0.06491,-0.14675 0.04798,-0.0649 0.124178,-0.1016 0.0762,-0.0367 0.186267,-0.0367 0.03669,0 0.0762,0.006 0.03951,0.003 0.06773,0.008 v -0.37253 q -0.04798,-0.0141 -0.08749,-0.0141 -0.0762,0 -0.146756,0.0226 -0.07056,0.0226 -0.132645,0.0649 -0.06209,0.0395 -0.110067,0.0988 -0.04798,0.0564 -0.0762,0.12418 h -0.0056 v -0.27093 z"
           id="path2413" />
        <path
           d="m 14.949471,114.72903 v -0.56727 h 0.485424 q 0.1524,0 0.228601,0.0677 0.0762,0.0649 0.0762,0.21167 0,0.1524 -0.0762,0.22013 -0.0762,0.0677 -0.228601,0.0677 z m -0.44309,-0.91158 v 2.01507 h 0.44309 v -0.7874 h 0.44309 q 0.166512,0 0.23989,0.0734 0.07338,0.0734 0.09596,0.23142 0.01693,0.12135 0.0254,0.254 0.0085,0.13264 0.04516,0.2286 h 0.44309 q -0.03104,-0.0423 -0.04798,-0.1016 -0.01411,-0.0621 -0.02258,-0.12982 -0.0056,-0.0677 -0.0085,-0.13265 -0.0028,-0.0649 -0.0056,-0.11289 -0.0056,-0.0762 -0.02258,-0.1524 -0.01411,-0.0762 -0.04798,-0.13829 -0.03387,-0.0649 -0.08749,-0.11006 -0.05362,-0.048 -0.135467,-0.0706 v -0.006 q 0.169334,-0.0677 0.242712,-0.19756 0.0762,-0.12982 0.0762,-0.30762 0,-0.11571 -0.04233,-0.21449 -0.03951,-0.1016 -0.118533,-0.1778 -0.0762,-0.0762 -0.186267,-0.11854 -0.107245,-0.0452 -0.242712,-0.0452 z"
           id="path2415" />
        <path
           d="m 17.483829,114.94634 h -0.651935 q 0.0028,-0.0423 0.01693,-0.096 0.01693,-0.0536 0.05362,-0.1016 0.03951,-0.048 0.1016,-0.079 0.06491,-0.0339 0.160867,-0.0339 0.146756,0 0.217312,0.079 0.07338,0.079 0.1016,0.23142 z m -0.651935,0.254 h 1.052692 q 0.01129,-0.16933 -0.02822,-0.32456 -0.03951,-0.15522 -0.129823,-0.27658 -0.08749,-0.12135 -0.225778,-0.19191 -0.13829,-0.0734 -0.324557,-0.0734 -0.166511,0 -0.304801,0.0593 -0.135467,0.0593 -0.234245,0.16369 -0.09878,0.1016 -0.1524,0.24271 -0.05362,0.14111 -0.05362,0.3048 0,0.16934 0.0508,0.31045 0.05362,0.14111 0.149578,0.24271 0.09596,0.1016 0.234245,0.15805 0.138289,0.0536 0.310445,0.0536 0.248356,0 0.423335,-0.11289 0.174978,-0.11289 0.259645,-0.37536 h -0.352779 q -0.01976,0.0677 -0.107245,0.12983 -0.08749,0.0593 -0.208845,0.0593 -0.169334,0 -0.259645,-0.0875 -0.09031,-0.0875 -0.09878,-0.28222 z"
           id="path2417" />
        <path
           d="m 18.801809,115.48821 q -0.09313,0 -0.155222,-0.0395 -0.06209,-0.0395 -0.1016,-0.1016 -0.03669,-0.0621 -0.05362,-0.13829 -0.01411,-0.079 -0.01411,-0.15805 0,-0.0818 0.01693,-0.15522 0.01976,-0.0762 0.05927,-0.13265 0.04233,-0.0593 0.1016,-0.0931 0.06209,-0.0339 0.146756,-0.0339 0.09878,0 0.16369,0.0367 0.06491,0.0367 0.104422,0.0988 0.03951,0.0621 0.05645,0.14393 0.01693,0.079 0.01693,0.16934 0,0.079 -0.02258,0.1524 -0.01975,0.0705 -0.06209,0.127 -0.04233,0.0564 -0.107244,0.0903 -0.06491,0.0339 -0.149579,0.0339 z m 0.722491,0.25118 v -1.36596 h -0.381001 v 0.19473 h -0.0056 q -0.07338,-0.127 -0.183445,-0.18062 -0.107245,-0.0536 -0.251179,-0.0536 -0.1524,0 -0.270934,0.0593 -0.115711,0.0593 -0.194734,0.16087 -0.07902,0.0988 -0.121355,0.23142 -0.03951,0.12982 -0.03951,0.27094 0,0.14957 0.03387,0.28504 0.03669,0.13265 0.112889,0.23425 0.0762,0.0988 0.194734,0.15804 0.118534,0.0564 0.282223,0.0564 0.132645,0 0.251179,-0.0536 0.121356,-0.0564 0.186267,-0.17215 h 0.0056 v 0.19191 q 0.0028,0.15522 -0.0762,0.25682 -0.0762,0.1016 -0.245534,0.1016 -0.107245,0 -0.189089,-0.0451 -0.08185,-0.0423 -0.110067,-0.15523 h -0.397935 q 0.0085,0.12418 0.06773,0.21167 0.06209,0.0903 0.1524,0.14676 0.09313,0.0564 0.203201,0.0818 0.112889,0.0282 0.220134,0.0282 0.251178,0 0.400756,-0.0677 0.149579,-0.0677 0.228601,-0.16651 0.07902,-0.096 0.1016,-0.20885 0.0254,-0.11288 0.0254,-0.20037 z"
           id="path2419" />
        <path
           d="m 19.846029,114.37343 v 1.45909 h 0.400756 v -0.65758 q 0,-0.0988 0.01976,-0.18345 0.01976,-0.0847 0.06491,-0.14675 0.04798,-0.0649 0.124178,-0.1016 0.0762,-0.0367 0.186268,-0.0367 0.03669,0 0.0762,0.006 0.03951,0.003 0.06773,0.008 v -0.37253 q -0.04798,-0.0141 -0.08749,-0.0141 -0.0762,0 -0.146756,0.0226 -0.07056,0.0226 -0.132645,0.0649 -0.06209,0.0395 -0.110067,0.0988 -0.04798,0.0564 -0.0762,0.12418 h -0.0056 v -0.27093 z"
           id="path2421" />
        <path
           d="m 21.875208,114.94634 h -0.651936 q 0.0028,-0.0423 0.01693,-0.096 0.01693,-0.0536 0.05362,-0.1016 0.03951,-0.048 0.1016,-0.079 0.06491,-0.0339 0.160868,-0.0339 0.146756,0 0.217311,0.079 0.07338,0.079 0.101601,0.23142 z m -0.651936,0.254 h 1.052692 q 0.01129,-0.16933 -0.02822,-0.32456 -0.03951,-0.15522 -0.129823,-0.27658 -0.08749,-0.12135 -0.225778,-0.19191 -0.138289,-0.0734 -0.324556,-0.0734 -0.166512,0 -0.304801,0.0593 -0.135467,0.0593 -0.234245,0.16369 -0.09878,0.1016 -0.152401,0.24271 -0.05362,0.14111 -0.05362,0.3048 0,0.16934 0.0508,0.31045 0.05362,0.14111 0.149578,0.24271 0.09596,0.1016 0.234245,0.15805 0.138289,0.0536 0.310446,0.0536 0.248356,0 0.423334,-0.11289 0.174978,-0.11289 0.259645,-0.37536 h -0.352779 q -0.01975,0.0677 -0.107244,0.12983 -0.08749,0.0593 -0.208845,0.0593 -0.169334,0 -0.259646,-0.0875 -0.09031,-0.0875 -0.09878,-0.28222 z"
           id="path2423" />
        <path
           d="m 22.823476,115.35838 h -0.381001 q 0.0056,0.14676 0.06491,0.24554 0.06209,0.096 0.155223,0.15522 0.09596,0.0593 0.217311,0.0847 0.121356,0.0254 0.248357,0.0254 0.124178,0 0.242711,-0.0254 0.121356,-0.0226 0.21449,-0.0819 0.09313,-0.0593 0.149578,-0.15522 0.05927,-0.0988 0.05927,-0.24271 0,-0.1016 -0.03951,-0.16933 -0.03951,-0.0706 -0.104423,-0.11572 -0.06491,-0.048 -0.149578,-0.0762 -0.08184,-0.0282 -0.169334,-0.048 -0.08467,-0.0198 -0.166511,-0.0367 -0.08185,-0.0169 -0.146756,-0.0367 -0.06209,-0.0226 -0.101601,-0.0564 -0.03951,-0.0339 -0.03951,-0.0875 0,-0.0451 0.02258,-0.0705 0.02258,-0.0282 0.05362,-0.0423 0.03387,-0.0141 0.07338,-0.0169 0.03951,-0.006 0.07338,-0.006 0.107245,0 0.186267,0.0423 0.07902,0.0395 0.08749,0.15522 h 0.381001 q -0.01129,-0.13546 -0.07056,-0.22295 -0.05645,-0.0903 -0.143934,-0.14394 -0.08749,-0.0536 -0.200378,-0.0762 -0.110067,-0.0226 -0.228601,-0.0226 -0.118533,0 -0.231423,0.0226 -0.112889,0.0198 -0.2032,0.0734 -0.09031,0.0508 -0.146756,0.14111 -0.05362,0.0903 -0.05362,0.23143 0,0.096 0.03951,0.16368 0.03951,0.0649 0.104422,0.11007 0.06491,0.0423 0.146756,0.0706 0.08467,0.0254 0.172156,0.0451 0.21449,0.0452 0.333023,0.0903 0.121356,0.0452 0.121356,0.13547 0,0.0536 -0.0254,0.0903 -0.0254,0.0339 -0.06491,0.0564 -0.03669,0.0198 -0.08467,0.031 -0.04516,0.008 -0.08749,0.008 -0.05927,0 -0.115712,-0.0141 -0.05362,-0.0141 -0.09596,-0.0423 -0.04233,-0.031 -0.07056,-0.0762 -0.0254,-0.048 -0.0254,-0.11289 z"
           id="path2425" />
        <path
           d="m 24.339009,115.35838 h -0.381001 q 0.0056,0.14676 0.06491,0.24554 0.06209,0.096 0.155223,0.15522 0.09596,0.0593 0.217312,0.0847 0.121356,0.0254 0.248356,0.0254 0.124178,0 0.242712,-0.0254 0.121356,-0.0226 0.214489,-0.0819 0.09313,-0.0593 0.149578,-0.15522 0.05927,-0.0988 0.05927,-0.24271 0,-0.1016 -0.03951,-0.16933 -0.03951,-0.0706 -0.104422,-0.11572 -0.06491,-0.048 -0.149579,-0.0762 -0.08184,-0.0282 -0.169333,-0.048 -0.08467,-0.0198 -0.166512,-0.0367 -0.08185,-0.0169 -0.146756,-0.0367 -0.06209,-0.0226 -0.1016,-0.0564 -0.03951,-0.0339 -0.03951,-0.0875 0,-0.0451 0.02258,-0.0705 0.02258,-0.0282 0.05362,-0.0423 0.03387,-0.0141 0.07338,-0.0169 0.03951,-0.006 0.07338,-0.006 0.107244,0 0.186267,0.0423 0.07902,0.0395 0.08749,0.15522 h 0.381001 q -0.01129,-0.13546 -0.07056,-0.22295 -0.05644,-0.0903 -0.143933,-0.14394 -0.08749,-0.0536 -0.200379,-0.0762 -0.110067,-0.0226 -0.2286,-0.0226 -0.118534,0 -0.231423,0.0226 -0.112889,0.0198 -0.203201,0.0734 -0.09031,0.0508 -0.146756,0.14111 -0.05362,0.0903 -0.05362,0.23143 0,0.096 0.03951,0.16368 0.03951,0.0649 0.104423,0.11007 0.06491,0.0423 0.146756,0.0706 0.08467,0.0254 0.172156,0.0451 0.214489,0.0452 0.333023,0.0903 0.121356,0.0452 0.121356,0.13547 0,0.0536 -0.0254,0.0903 -0.0254,0.0339 -0.06491,0.0564 -0.03669,0.0198 -0.08467,0.031 -0.04515,0.008 -0.08749,0.008 -0.05927,0 -0.115711,-0.0141 -0.05362,-0.0141 -0.09596,-0.0423 -0.04233,-0.031 -0.07056,-0.0762 -0.0254,-0.048 -0.0254,-0.11289 z"
           id="path2427" />
        <path
           d="m 25.956143,114.14765 v -0.3302 h -0.400757 v 0.3302 z m -0.400757,0.22578 v 1.45909 h 0.400757 v -1.45909 z"
           id="path2429" />
        <path
           d="m 26.627832,115.10438 q 0,-0.0875 0.01693,-0.17215 0.01693,-0.0847 0.05644,-0.14958 0.04233,-0.0649 0.110067,-0.10442 0.06773,-0.0423 0.169334,-0.0423 0.1016,0 0.169334,0.0423 0.07056,0.0395 0.110067,0.10442 0.04233,0.0649 0.05927,0.14958 0.01693,0.0847 0.01693,0.17215 0,0.0875 -0.01693,0.17216 -0.01693,0.0818 -0.05927,0.14958 -0.03951,0.0649 -0.110067,0.10442 -0.06773,0.0395 -0.169334,0.0395 -0.1016,0 -0.169334,-0.0395 -0.06773,-0.0395 -0.110067,-0.10442 -0.03951,-0.0677 -0.05644,-0.14958 -0.01693,-0.0847 -0.01693,-0.17216 z m -0.400756,0 q 0,0.17498 0.05362,0.31609 0.05362,0.14112 0.152401,0.24272 0.09878,0.0988 0.237067,0.1524 0.138289,0.0536 0.310445,0.0536 0.172156,0 0.310446,-0.0536 0.141111,-0.0536 0.239889,-0.1524 0.09878,-0.1016 0.152401,-0.24272 0.05362,-0.14111 0.05362,-0.31609 0,-0.17497 -0.05362,-0.31609 -0.05362,-0.14393 -0.152401,-0.24271 -0.09878,-0.1016 -0.239889,-0.15522 -0.13829,-0.0564 -0.310446,-0.0564 -0.172156,0 -0.310445,0.0564 -0.138289,0.0536 -0.237067,0.15522 -0.09878,0.0988 -0.152401,0.24271 -0.05362,0.14112 -0.05362,0.31609 z"
           id="path2431" />
        <path
           d="m 27.99661,114.37343 v 1.45909 h 0.400757 v -0.76482 q 0,-0.22296 0.07338,-0.31892 0.07338,-0.0988 0.237067,-0.0988 0.143934,0 0.200378,0.0903 0.05645,0.0875 0.05645,0.26811 v 0.82409 h 0.400757 v -0.89747 q 0,-0.13547 -0.0254,-0.24553 -0.02258,-0.11289 -0.08184,-0.18909 -0.05927,-0.079 -0.163689,-0.12136 -0.101601,-0.0451 -0.262468,-0.0451 -0.127,0 -0.248356,0.0593 -0.121356,0.0564 -0.197556,0.18345 h -0.0085 v -0.2032 z"
           id="path2433" />
        <path
           d="m 29.687122,115.3979 v 0.43462 h 0.44309 v -0.43462 z"
           id="path2435" />
        <path
           d="m 32.661751,114.45809 q -0.02258,-0.0875 -0.06209,-0.16086 -0.03951,-0.0734 -0.101601,-0.127 -0.06209,-0.0536 -0.146755,-0.0819 -0.08185,-0.031 -0.191912,-0.031 -0.160867,0 -0.279401,0.0649 -0.115711,0.0649 -0.189089,0.17498 -0.07338,0.10724 -0.110067,0.24553 -0.03387,0.13829 -0.03387,0.28222 0,0.14394 0.03387,0.28223 0.03669,0.13829 0.110067,0.24835 0.07338,0.10725 0.189089,0.17216 0.118534,0.0649 0.279401,0.0649 0.118534,0 0.208845,-0.0395 0.09031,-0.0423 0.155223,-0.11289 0.06491,-0.0734 0.1016,-0.16933 0.03669,-0.096 0.04798,-0.20603 h 0.344312 q -0.01129,0.18063 -0.07902,0.3302 -0.06491,0.14958 -0.1778,0.25965 -0.112889,0.10724 -0.26529,0.16651 -0.1524,0.0593 -0.335845,0.0593 -0.225779,0 -0.406401,-0.0819 -0.177801,-0.0847 -0.301979,-0.2286 -0.124178,-0.14393 -0.191912,-0.33584 -0.06491,-0.19191 -0.06491,-0.40923 0,-0.21449 0.06491,-0.4064 0.06773,-0.19191 0.191912,-0.33584 0.124178,-0.14394 0.301979,-0.2286 0.180622,-0.0847 0.406401,-0.0847 0.169334,0 0.318912,0.048 0.149578,0.0452 0.262467,0.13546 0.115712,0.0875 0.186267,0.21449 0.07056,0.127 0.08749,0.29069 z"
           style="font-weight:500;-inkscape-font-specification:'Helvetica Neue Medium'"
           id="path2437" />
        <path
           d="m 34.515951,115.50796 q 0,0.0593 0.01411,0.0847 0.01693,0.0254 0.06209,0.0254 0.01411,0 0.03387,0 0.01976,0 0.04516,-0.006 v 0.22295 q -0.01693,0.006 -0.04516,0.0113 -0.0254,0.008 -0.05362,0.0141 -0.02822,0.006 -0.05644,0.008 -0.02822,0.003 -0.04798,0.003 -0.09878,0 -0.163689,-0.0395 -0.06491,-0.0395 -0.08467,-0.13829 -0.09596,0.0931 -0.237067,0.13547 -0.13829,0.0423 -0.268112,0.0423 -0.09878,0 -0.18909,-0.0282 -0.09031,-0.0254 -0.160867,-0.0762 -0.06773,-0.0536 -0.110067,-0.13265 -0.03951,-0.0818 -0.03951,-0.18909 0,-0.13546 0.04798,-0.22013 0.0508,-0.0847 0.129823,-0.13264 0.08184,-0.048 0.180622,-0.0677 0.101601,-0.0226 0.203201,-0.0339 0.08749,-0.0169 0.166511,-0.0226 0.07902,-0.008 0.13829,-0.0254 0.06209,-0.0169 0.09596,-0.0508 0.03669,-0.0367 0.03669,-0.10725 0,-0.0621 -0.03105,-0.1016 -0.02822,-0.0395 -0.07338,-0.0593 -0.04233,-0.0226 -0.09596,-0.0282 -0.05362,-0.008 -0.1016,-0.008 -0.135467,0 -0.222956,0.0564 -0.08749,0.0564 -0.09878,0.17498 h -0.321734 q 0.0085,-0.14111 0.06773,-0.23425 0.05927,-0.0931 0.149578,-0.14957 0.09313,-0.0564 0.208845,-0.079 0.115712,-0.0226 0.237068,-0.0226 0.107244,0 0.211667,0.0226 0.104422,0.0226 0.186267,0.0734 0.08467,0.0508 0.135467,0.13265 0.0508,0.079 0.0508,0.19473 z m -0.321734,-0.4064 q -0.07338,0.048 -0.180623,0.0593 -0.107244,0.008 -0.214489,0.0282 -0.0508,0.008 -0.09878,0.0254 -0.04798,0.0141 -0.08467,0.0423 -0.03669,0.0254 -0.05927,0.0706 -0.01976,0.0423 -0.01976,0.10442 0,0.0536 0.03104,0.0903 0.03104,0.0367 0.07338,0.0593 0.04516,0.0198 0.09596,0.0282 0.05362,0.008 0.09596,0.008 0.05362,0 0.115711,-0.0141 0.06209,-0.0141 0.115711,-0.048 0.05644,-0.0339 0.09313,-0.0847 0.03669,-0.0536 0.03669,-0.12982 z"
           style="font-weight:500;-inkscape-font-specification:'Helvetica Neue Medium'"
           id="path2439" />
        <path
           d="m 34.863084,114.37343 h 0.301979 v 0.28222 h 0.0056 q 0.01411,-0.0593 0.05362,-0.11571 0.04233,-0.0564 0.09878,-0.1016 0.05927,-0.048 0.129822,-0.0762 0.07056,-0.0282 0.143934,-0.0282 0.05645,0 0.0762,0.003 0.02258,0.003 0.04516,0.006 v 0.31045 q -0.03387,-0.006 -0.07056,-0.008 -0.03387,-0.006 -0.06773,-0.006 -0.08185,0 -0.155223,0.0339 -0.07056,0.0311 -0.124178,0.096 -0.05362,0.0621 -0.08467,0.15522 -0.03104,0.0931 -0.03104,0.21449 v 0.69427 h -0.321734 z"
           style="font-weight:500;-inkscape-font-specification:'Helvetica Neue Medium'"
           id="path2441" />
        <path
           d="m 35.864974,113.81745 h 0.321735 v 2.01507 h -0.321735 z"
           style="font-weight:500;-inkscape-font-specification:'Helvetica Neue Medium'"
           id="path2443" />
        <path
           d="m 37.205531,115.87203 q -0.174978,0 -0.313268,-0.0564 -0.135467,-0.0593 -0.231422,-0.16087 -0.09313,-0.1016 -0.143934,-0.24271 -0.04798,-0.14111 -0.04798,-0.31045 0,-0.16651 0.04798,-0.30762 0.0508,-0.14111 0.143934,-0.24271 0.09596,-0.1016 0.231422,-0.15805 0.13829,-0.0593 0.313268,-0.0593 0.174978,0 0.310445,0.0593 0.13829,0.0564 0.231423,0.15805 0.09596,0.1016 0.143934,0.24271 0.0508,0.14111 0.0508,0.30762 0,0.16934 -0.0508,0.31045 -0.04798,0.14111 -0.143934,0.24271 -0.09313,0.1016 -0.231423,0.16087 -0.135467,0.0564 -0.310445,0.0564 z m 0,-0.254 q 0.107245,0 0.186267,-0.0452 0.07902,-0.0451 0.129823,-0.11853 0.0508,-0.0734 0.07338,-0.16369 0.0254,-0.0931 0.0254,-0.18909 0,-0.0931 -0.0254,-0.18627 -0.02258,-0.0931 -0.07338,-0.16368 -0.0508,-0.0734 -0.129823,-0.11854 -0.07902,-0.0452 -0.186267,-0.0452 -0.107245,0 -0.186267,0.0452 -0.07902,0.0452 -0.129823,0.11854 -0.0508,0.0705 -0.0762,0.16368 -0.02258,0.0931 -0.02258,0.18627 0,0.096 0.02258,0.18909 0.0254,0.0903 0.0762,0.16369 0.0508,0.0734 0.129823,0.11853 0.07902,0.0452 0.186267,0.0452 z"
           style="font-weight:500;-inkscape-font-specification:'Helvetica Neue Medium'"
           id="path2445" />
        <path
           d="m 38.452954,115.36403 q 0.01411,0.14111 0.107245,0.19756 0.09313,0.0564 0.222956,0.0564 0.04516,0 0.101601,-0.006 0.05927,-0.008 0.110067,-0.0282 0.0508,-0.0198 0.08184,-0.0564 0.03387,-0.0395 0.03104,-0.1016 -0.0028,-0.0621 -0.04516,-0.1016 -0.04233,-0.0395 -0.110067,-0.0621 -0.06491,-0.0254 -0.149578,-0.0423 -0.08467,-0.0169 -0.172156,-0.0367 -0.09031,-0.0198 -0.174978,-0.048 -0.08184,-0.0282 -0.149579,-0.0762 -0.06491,-0.048 -0.104422,-0.12136 -0.03951,-0.0762 -0.03951,-0.18626 0,-0.11854 0.05644,-0.19756 0.05927,-0.0819 0.146756,-0.12982 0.09031,-0.0508 0.197556,-0.0706 0.110067,-0.0197 0.208845,-0.0197 0.11289,0 0.21449,0.0254 0.104422,0.0226 0.186267,0.0762 0.08467,0.0536 0.138289,0.14111 0.05644,0.0847 0.07056,0.20602 h -0.335845 q -0.02258,-0.11571 -0.107245,-0.15522 -0.08185,-0.0395 -0.189089,-0.0395 -0.03387,0 -0.08184,0.006 -0.04516,0.006 -0.08749,0.0226 -0.03951,0.0141 -0.06773,0.0451 -0.02822,0.0282 -0.02822,0.0762 0,0.0593 0.03951,0.096 0.04233,0.0367 0.107245,0.0621 0.06773,0.0226 0.1524,0.0395 0.08467,0.0169 0.174979,0.0367 0.08749,0.0198 0.172156,0.048 0.08467,0.0282 0.149578,0.0762 0.06773,0.048 0.107245,0.12135 0.04233,0.0734 0.04233,0.18063 0,0.12982 -0.05927,0.22013 -0.05927,0.0903 -0.155223,0.14676 -0.09313,0.0564 -0.208845,0.0818 -0.115711,0.0254 -0.2286,0.0254 -0.138289,0 -0.256823,-0.031 -0.115712,-0.0311 -0.203201,-0.0931 -0.08467,-0.0649 -0.135467,-0.15804 -0.04798,-0.096 -0.0508,-0.22578 z"
           style="font-weight:500;-inkscape-font-specification:'Helvetica Neue Medium'"
           id="path2447" />
        <path
           d="m 40.504712,113.81745 h 0.889002 q 0.21449,0 0.349957,0.0621 0.135467,0.0621 0.208845,0.15522 0.07338,0.0931 0.09878,0.2032 0.02822,0.11007 0.02822,0.2032 0,0.0931 -0.02822,0.2032 -0.0254,0.10725 -0.09878,0.20038 -0.07338,0.0931 -0.208845,0.15522 -0.135467,0.0593 -0.349957,0.0593 H 40.85749 v 0.77329 h -0.352778 z m 0.352778,0.95391 h 0.516468 q 0.05927,0 0.121356,-0.0169 0.06209,-0.0169 0.11289,-0.0536 0.05362,-0.0395 0.08467,-0.10161 0.03387,-0.0649 0.03387,-0.16086 0,-0.0988 -0.02822,-0.16369 -0.02822,-0.0649 -0.0762,-0.1016 -0.04798,-0.0395 -0.110067,-0.0536 -0.06209,-0.0141 -0.132645,-0.0141 H 40.85749 Z"
           style="font-weight:500;-inkscape-font-specification:'Helvetica Neue Medium'"
           id="path2449" />
        <path
           d="m 43.564009,115.50796 q 0,0.0593 0.01411,0.0847 0.01693,0.0254 0.06209,0.0254 0.01411,0 0.03387,0 0.01976,0 0.04516,-0.006 v 0.22295 q -0.01693,0.006 -0.04516,0.0113 -0.0254,0.008 -0.05362,0.0141 -0.02822,0.006 -0.05644,0.008 -0.02822,0.003 -0.04798,0.003 -0.09878,0 -0.163689,-0.0395 -0.06491,-0.0395 -0.08467,-0.13829 -0.09596,0.0931 -0.237068,0.13547 -0.138289,0.0423 -0.268112,0.0423 -0.09878,0 -0.189089,-0.0282 -0.09031,-0.0254 -0.160867,-0.0762 -0.06773,-0.0536 -0.110067,-0.13265 -0.03951,-0.0818 -0.03951,-0.18909 0,-0.13546 0.04798,-0.22013 0.0508,-0.0847 0.129822,-0.13264 0.08185,-0.048 0.180623,-0.0677 0.1016,-0.0226 0.2032,-0.0339 0.08749,-0.0169 0.166512,-0.0226 0.07902,-0.008 0.138289,-0.0254 0.06209,-0.0169 0.09596,-0.0508 0.03669,-0.0367 0.03669,-0.10725 0,-0.0621 -0.03104,-0.1016 -0.02822,-0.0395 -0.07338,-0.0593 -0.04233,-0.0226 -0.09596,-0.0282 -0.05362,-0.008 -0.1016,-0.008 -0.135468,0 -0.222957,0.0564 -0.08749,0.0564 -0.09878,0.17498 h -0.321734 q 0.0085,-0.14111 0.06773,-0.23425 0.05927,-0.0931 0.149578,-0.14957 0.09313,-0.0564 0.208845,-0.079 0.115711,-0.0226 0.237067,-0.0226 0.107245,0 0.211667,0.0226 0.104423,0.0226 0.186268,0.0734 0.08467,0.0508 0.135467,0.13265 0.0508,0.079 0.0508,0.19473 z m -0.321734,-0.4064 q -0.07338,0.048 -0.180623,0.0593 -0.107245,0.008 -0.21449,0.0282 -0.0508,0.008 -0.09878,0.0254 -0.04798,0.0141 -0.08467,0.0423 -0.03669,0.0254 -0.05927,0.0706 -0.01976,0.0423 -0.01976,0.10442 0,0.0536 0.03104,0.0903 0.03104,0.0367 0.07338,0.0593 0.04516,0.0198 0.09596,0.0282 0.05362,0.008 0.09596,0.008 0.05362,0 0.115712,-0.0141 0.06209,-0.0141 0.115711,-0.048 0.05645,-0.0339 0.09313,-0.0847 0.03669,-0.0536 0.03669,-0.12982 z"
           style="font-weight:500;-inkscape-font-specification:'Helvetica Neue Medium'"
           id="path2451" />
        <path
           d="m 43.91961,113.81745 h 0.321735 v 0.3048 H 43.91961 Z m 0,0.55598 h 0.321735 v 1.45909 H 43.91961 Z"
           style="font-weight:500;-inkscape-font-specification:'Helvetica Neue Medium'"
           id="path2453" />
        <path
           d="m 44.540496,114.37343 h 1.185337 v 0.22577 l -0.83538,0.97932 h 0.877713 v 0.254 h -1.284114 v -0.22578 l 0.807158,-0.97931 h -0.750714 z"
           style="font-weight:500;-inkscape-font-specification:'Helvetica Neue Medium'"
           id="path2455" />
      </g>
      <path
         style="fill:none;stroke:#b6b6b6;stroke-width:0.75;stroke-linecap:round;stroke-dasharray:none;stroke-dashoffset:0;stroke-opacity:1"
         d="M 25.233227,14.659302 V 103.57639 H 167.74088"
         id="path2000" />
      <g
         id="g13308"
         style="stroke-width:0.33833329;stroke-dasharray:0.33833328, 1.01499984;stroke:#b7b0ae;stroke-opacity:0.50183153;stroke-dashoffset:0">
        <path
           style="fill:#ececec;fill-opacity:1;stroke:#b7b0ae;stroke-width:0.33833329;stroke-linecap:round;stroke-dasharray:0.33833328, 1.01499984;stroke-dashoffset:0;stroke-opacity:0.50183153"
           d="M 48.754336,60.466054 V 87.91612"
           id="path3999" />
        <path
           style="font-weight:bold;font-size:2.82222px;font-family:'Helvetica Neue';-inkscape-font-specification:'Helvetica Neue Bold';text-align:center;text-anchor:middle;fill:#ececec;fill-opacity:1;stroke:#b7b0ae;stroke-width:0.33833329;stroke-linecap:round;stroke-dasharray:0.33833328, 1.01499984;stroke-dashoffset:0;stroke-opacity:0.50183153"
           d="M 110.35736,28.785018 V 50.424219"
           id="path3999-2" />
        <path
           style="font-weight:bold;font-size:2.82222px;font-family:'Helvetica Neue';-inkscape-font-specification:'Helvetica Neue Bold';text-align:center;text-anchor:middle;fill:#ececec;fill-opacity:1;stroke:#b7b0ae;stroke-width:0.33833329;stroke-linecap:round;stroke-dasharray:0.33833328, 1.01499984;stroke-dashoffset:0;stroke-opacity:0.50183153"
           d="M 132.70045,13.492364 V 37.070267"
           id="path3999-7" />
        <path
           style="font-weight:bold;font-size:2.82222px;font-family:'Helvetica Neue';-inkscape-font-specification:'Helvetica Neue Bold';text-align:center;text-anchor:middle;fill:#ececec;fill-opacity:1;stroke:#b7b0ae;stroke-width:0.33833329;stroke-linecap:round;stroke-dasharray:0.33833328, 1.01499984;stroke-dashoffset:0;stroke-opacity:0.50183153"
           d="m 76.523573,71.082981 v 12.51357"
           id="path3999-1" />
        <path
           style="font-weight:bold;font-size:2.82222px;font-family:'Helvetica Neue';-inkscape-font-specification:'Helvetica Neue Bold';text-align:center;text-anchor:middle;fill:#ececec;fill-opacity:1;stroke:#b7b0ae;stroke-width:0.33833329;stroke-linecap:round;stroke-dasharray:0.33833328, 1.01499984;stroke-dashoffset:0;stroke-opacity:0.50183153"
           d="M 102.37771,56.113524 V 70.427751"
           id="path3999-5" />
        <path
           style="font-weight:bold;font-size:2.82222px;font-family:'Helvetica Neue';-inkscape-font-specification:'Helvetica Neue Bold';text-align:center;text-anchor:middle;fill:#ececec;fill-opacity:1;stroke:#b7b0ae;stroke-width:0.33833329;stroke-linecap:round;stroke-dasharray:0.33833328, 1.01499984;stroke-dashoffset:0;stroke-opacity:0.50183153"
           d="M 129.57305,40.043257 V 67.881962"
           id="path3999-18" />
        <path
           style="font-weight:bold;font-size:2.82222px;font-family:'Helvetica Neue';-inkscape-font-specification:'Helvetica Neue Bold';text-align:center;text-anchor:middle;fill:#ececec;fill-opacity:1;stroke:#b7b0ae;stroke-width:0.33833329;stroke-linecap:round;stroke-dasharray:0.33833328, 1.01499984;stroke-dashoffset:0;stroke-opacity:0.50183153"
           d="m 136.84987,35.25624 v 8.817225"
           id="path3999-0" />
        <path
           style="font-weight:bold;font-size:2.82222px;font-family:'Helvetica Neue';-inkscape-font-specification:'Helvetica Neue Bold';text-align:center;text-anchor:middle;fill:#ececec;fill-opacity:1;stroke:#b7b0ae;stroke-width:0.33833329;stroke-linecap:round;stroke-dasharray:0.33833328, 1.01499984;stroke-dashoffset:0;stroke-opacity:0.50183153"
           d="M 72.693339,51.762617 V 73.142718"
           id="path3999-09" />
        <path
           style="font-weight:bold;font-size:2.82222px;font-family:'Helvetica Neue';-inkscape-font-specification:'Helvetica Neue Bold';text-align:center;text-anchor:middle;fill:#ececec;fill-opacity:1;stroke:#b7b0ae;stroke-width:0.33833329;stroke-linecap:round;stroke-dasharray:0.33833328, 1.01499984;stroke-dashoffset:0;stroke-opacity:0.50183153"
           d="m 93.121291,46.250267 v 15.04629"
           id="path3999-56" />
        <path
           style="font-weight:bold;font-size:2.82222px;font-family:'Helvetica Neue';-inkscape-font-specification:'Helvetica Neue Bold';text-align:center;text-anchor:middle;fill:#ececec;fill-opacity:1;stroke:#b7b0ae;stroke-width:0.33833329;stroke-linecap:round;stroke-dasharray:0.33833328, 1.01499984;stroke-dashoffset:0;stroke-opacity:0.50183153"
           d="M 40.136288,76.276309 V 92.733106"
           id="path3999-28" />
        <path
           style="font-weight:bold;font-size:2.82222px;font-family:'Helvetica Neue';-inkscape-font-specification:'Helvetica Neue Bold';text-align:center;text-anchor:middle;fill:#ececec;fill-opacity:1;stroke:#b7b0ae;stroke-width:0.33833329;stroke-linecap:round;stroke-dasharray:0.33833328, 1.01499984;stroke-dashoffset:0;stroke-opacity:0.50183153"
           d="M 64.075296,67.844438 V 78.060073"
           id="path3999-59" />
        <path
           style="font-weight:bold;font-size:2.82222px;font-family:'Helvetica Neue';-inkscape-font-specification:'Helvetica Neue Bold';text-align:center;text-anchor:middle;fill:#ececec;fill-opacity:1;stroke:#b7b0ae;stroke-width:0.33833329;stroke-linecap:round;stroke-dasharray:0.33833328, 1.01499984;stroke-dashoffset:0;stroke-opacity:0.50183153"
           d="M 54.81888,84.868881 V 100.71659"
           id="path3999-4" />
        <path
           style="font-weight:bold;font-size:2.82222px;font-family:'Helvetica Neue';-inkscape-font-specification:'Helvetica Neue Bold';text-align:center;text-anchor:middle;fill:#ececec;fill-opacity:1;stroke:#b7b0ae;stroke-width:0.33833329;stroke-linecap:round;stroke-dasharray:0.33833328, 1.01499984;stroke-dashoffset:0;stroke-opacity:0.50183153"
           d="m 36.625234,86.782262 v 8.407783"
           id="path3999-3" />
        <path
           style="font-weight:bold;font-size:2.82222px;font-family:'Helvetica Neue';-inkscape-font-specification:'Helvetica Neue Bold';text-align:center;text-anchor:middle;fill:#ececec;fill-opacity:1;stroke:#b7b0ae;stroke-width:0.33833329;stroke-linecap:round;stroke-dasharray:0.33833328, 1.01499984;stroke-dashoffset:0;stroke-opacity:0.50183153"
           d="m 82.907315,64.945642 v 2.010216"
           id="path3999-9" />
        <path
           style="font-weight:bold;font-size:2.82222px;font-family:'Helvetica Neue';-inkscape-font-specification:'Helvetica Neue Bold';text-align:center;text-anchor:middle;fill:#ececec;fill-opacity:1;stroke:#b7b0ae;stroke-width:0.33833329;stroke-linecap:round;stroke-dasharray:0.33833328, 1.01499984;stroke-dashoffset:0;stroke-opacity:0.50183153"
           d="m 75.246832,63.01961 v 8.298007"
           id="path3999-36" />
        <path
           style="font-weight:bold;font-size:2.82222px;font-family:'Helvetica Neue';-inkscape-font-specification:'Helvetica Neue Bold';text-align:center;text-anchor:middle;fill:#ececec;fill-opacity:1;stroke:#b7b0ae;stroke-width:0.33833329;stroke-linecap:round;stroke-dasharray:0.33833328, 1.01499984;stroke-dashoffset:0;stroke-opacity:0.50183153"
           d="m 56.733998,77.098743 v 9.823058"
           id="path3999-30" />
        <path
           style="font-weight:bold;font-size:2.82222px;font-family:'Helvetica Neue';-inkscape-font-specification:'Helvetica Neue Bold';text-align:center;text-anchor:middle;fill:#ececec;fill-opacity:1;stroke:#b7b0ae;stroke-width:0.33833329;stroke-linecap:round;stroke-dasharray:0.33833328, 1.01499984;stroke-dashoffset:0;stroke-opacity:0.50183153"
           d="m 43.328157,91.714184 v 6.594252"
           id="path3999-8" />
        <path
           style="font-weight:bold;font-size:2.82222px;font-family:'Helvetica Neue';-inkscape-font-specification:'Helvetica Neue Bold';text-align:center;text-anchor:middle;fill:#ececec;fill-opacity:1;stroke:#b7b0ae;stroke-width:0.33833329;stroke-linecap:round;stroke-dasharray:0.33833328, 1.01499984;stroke-dashoffset:0;stroke-opacity:0.50183153"
           d="m 90.24861,56.577147 v 5.891854"
           id="path3999-6" />
        <path
           style="font-weight:bold;font-size:2.82222px;font-family:'Helvetica Neue';-inkscape-font-specification:'Helvetica Neue Bold';text-align:center;text-anchor:middle;fill:#ececec;fill-opacity:1;stroke:#b7b0ae;stroke-width:0.33833329;stroke-linecap:round;stroke-dasharray:0.33833328, 1.01499984;stroke-dashoffset:0;stroke-opacity:0.50183153"
           d="m 111.95331,44.118653 v 5.913625"
           id="path3999-46" />
        <path
           style="font-weight:bold;font-size:2.82222px;font-family:'Helvetica Neue';-inkscape-font-specification:'Helvetica Neue Bold';text-align:center;text-anchor:middle;fill:#ececec;fill-opacity:1;stroke:#b7b0ae;stroke-width:0.33833329;stroke-linecap:round;stroke-dasharray:0.33833328, 1.01499984;stroke-dashoffset:0;stroke-opacity:0.50183153"
           d="m 113.23005,49.529571 v 5.913626"
           id="path3999-46-4" />
        <path
           style="font-weight:bold;font-size:2.82222px;font-family:'Helvetica Neue';-inkscape-font-specification:'Helvetica Neue Bold';text-align:center;text-anchor:middle;fill:#ececec;fill-opacity:1;stroke:#b7b0ae;stroke-width:0.33833329;stroke-linecap:round;stroke-dasharray:0.33833328, 1.01499984;stroke-dashoffset:0;stroke-opacity:0.50183153"
           d="m 118.01787,46.337703 v 5.913625"
           id="path3999-46-3" />
      </g>
      <g
         id="g4025"
         transform="matrix(1.3281936,0,0,1.3281936,-24.339437,-15.500397)">
        <path
           style="fill:none;stroke:#efad11;stroke-width:0.759362;stroke-linecap:round;stroke-dasharray:none;stroke-dashoffset:0;stroke-opacity:1"
           d="M 40.858475,86.509238 137.93696,28.121704 v 0"
           id="path2128" />
        <path
           style="fill:#a5a5a5;fill-opacity:1;stroke:none;stroke-width:0.657942;stroke-linecap:round;stroke-dasharray:none;stroke-dashoffset:0;stroke-opacity:1"
           id="path2910"
           sodipodi:type="arc"
           sodipodi:cx="55.071201"
           sodipodi:cy="57.474361"
           sodipodi:rx="1"
           sodipodi:ry="1"
           sodipodi:start="3.1369395"
           sodipodi:end="3.136843"
           sodipodi:open="true"
           sodipodi:arc-type="arc"
           d="m 54.071212,57.479015 a 1,1 0 0 1 0.995312,-1.004643 1,1 0 0 1 1.004666,0.995288 1,1 0 0 1 -0.995263,1.00469 1,1 0 0 1 -1.004714,-0.995239" />
        <path
           style="font-weight:bold;font-size:2.82222px;font-family:'Helvetica Neue';-inkscape-font-specification:'Helvetica Neue Bold';text-align:center;text-anchor:middle;fill:#a5a5a5;fill-opacity:1;stroke:none;stroke-width:0.657942;stroke-linecap:round;stroke-dasharray:none;stroke-dashoffset:0;stroke-opacity:1"
           id="path2910-8"
           sodipodi:type="arc"
           sodipodi:cx="48.543922"
           sodipodi:cy="69.211136"
           sodipodi:rx="1"
           sodipodi:ry="1"
           sodipodi:start="3.1369395"
           sodipodi:end="3.136843"
           sodipodi:open="true"
           sodipodi:arc-type="arc"
           d="m 47.543933,69.215789 a 1,1 0 0 1 0.995312,-1.004642 1,1 0 0 1 1.004666,0.995287 1,1 0 0 1 -0.995263,1.004691 1,1 0 0 1 -1.004714,-0.99524" />
        <path
           style="font-weight:bold;font-size:2.82222px;font-family:'Helvetica Neue';-inkscape-font-specification:'Helvetica Neue Bold';text-align:center;text-anchor:middle;fill:#a5a5a5;fill-opacity:1;stroke:none;stroke-width:0.657942;stroke-linecap:round;stroke-dasharray:none;stroke-dashoffset:0;stroke-opacity:1"
           id="path2910-3"
           sodipodi:type="arc"
           sodipodi:cx="59.598476"
           sodipodi:cy="87.234871"
           sodipodi:rx="1"
           sodipodi:ry="1"
           sodipodi:start="3.1369395"
           sodipodi:end="3.136843"
           sodipodi:open="true"
           sodipodi:arc-type="arc"
           d="m 58.598487,87.239524 a 1,1 0 0 1 0.995312,-1.004642 1,1 0 0 1 1.004666,0.995288 1,1 0 0 1 -0.995263,1.00469 1,1 0 0 1 -1.004714,-0.995239" />
        <path
           style="font-weight:bold;font-size:2.82222px;font-family:'Helvetica Neue';-inkscape-font-specification:'Helvetica Neue Bold';text-align:center;text-anchor:middle;fill:#a5a5a5;fill-opacity:1;stroke:none;stroke-width:0.657942;stroke-linecap:round;stroke-dasharray:none;stroke-dashoffset:0;stroke-opacity:1"
           id="path2910-5"
           sodipodi:type="arc"
           sodipodi:cx="95.405632"
           sodipodi:cy="63.924175"
           sodipodi:rx="1"
           sodipodi:ry="1"
           sodipodi:start="3.1369395"
           sodipodi:end="3.136843"
           sodipodi:open="true"
           sodipodi:arc-type="arc"
           d="m 94.405643,63.928828 a 1,1 0 0 1 0.995312,-1.004642 1,1 0 0 1 1.004666,0.995288 1,1 0 0 1 -0.995263,1.00469 1,1 0 0 1 -1.004715,-0.995239" />
        <path
           style="font-weight:bold;font-size:2.82222px;font-family:'Helvetica Neue';-inkscape-font-specification:'Helvetica Neue Bold';text-align:center;text-anchor:middle;fill:#a5a5a5;fill-opacity:1;stroke:none;stroke-width:0.657942;stroke-linecap:round;stroke-dasharray:none;stroke-dashoffset:0;stroke-opacity:1"
           id="path2910-2"
           sodipodi:type="arc"
           sodipodi:cx="88.436455"
           sodipodi:cy="46.621391"
           sodipodi:rx="1"
           sodipodi:ry="1"
           sodipodi:start="3.1369395"
           sodipodi:end="3.136843"
           sodipodi:open="true"
           sodipodi:arc-type="arc"
           d="m 87.436466,46.626044 a 1,1 0 0 1 0.995312,-1.004642 1,1 0 0 1 1.004666,0.995288 1,1 0 0 1 -0.995264,1.00469 1,1 0 0 1 -1.004714,-0.995239" />
        <path
           style="font-weight:bold;font-size:2.82222px;font-family:'Helvetica Neue';-inkscape-font-specification:'Helvetica Neue Bold';text-align:center;text-anchor:middle;fill:#a5a5a5;fill-opacity:1;stroke:none;stroke-width:0.657942;stroke-linecap:round;stroke-dasharray:none;stroke-dashoffset:0;stroke-opacity:1"
           id="path2910-26"
           sodipodi:type="arc"
           sodipodi:cx="101.41354"
           sodipodi:cy="33.16367"
           sodipodi:rx="1"
           sodipodi:ry="1"
           sodipodi:start="3.1369395"
           sodipodi:end="3.136843"
           sodipodi:open="true"
           sodipodi:arc-type="arc"
           d="m 100.41355,33.168323 a 1,1 0 0 1 0.99532,-1.004642 1,1 0 0 1 1.00466,0.995287 1,1 0 0 1 -0.99526,1.00469 1,1 0 0 1 -1.00472,-0.995239" />
        <path
           style="font-weight:bold;font-size:2.82222px;font-family:'Helvetica Neue';-inkscape-font-specification:'Helvetica Neue Bold';text-align:center;text-anchor:middle;fill:#a5a5a5;fill-opacity:1;stroke:none;stroke-width:0.657942;stroke-linecap:round;stroke-dasharray:none;stroke-dashoffset:0;stroke-opacity:1"
           id="path2910-6"
           sodipodi:type="arc"
           sodipodi:cx="121.3598"
           sodipodi:cy="44.458542"
           sodipodi:rx="1"
           sodipodi:ry="1"
           sodipodi:start="3.1369395"
           sodipodi:end="3.136843"
           sodipodi:open="true"
           sodipodi:arc-type="arc"
           d="m 120.35981,44.463195 a 1,1 0 0 1 0.99531,-1.004642 1,1 0 0 1 1.00467,0.995287 1,1 0 0 1 -0.99526,1.004691 1,1 0 0 1 -1.00472,-0.995239" />
        <path
           style="font-weight:bold;font-size:2.82222px;font-family:'Helvetica Neue';-inkscape-font-specification:'Helvetica Neue Bold';text-align:center;text-anchor:middle;fill:#a5a5a5;fill-opacity:1;stroke:none;stroke-width:0.657942;stroke-linecap:round;stroke-dasharray:none;stroke-dashoffset:0;stroke-opacity:1"
           id="path2910-7"
           sodipodi:type="arc"
           sodipodi:cx="118.23569"
           sodipodi:cy="21.868797"
           sodipodi:rx="1"
           sodipodi:ry="1"
           sodipodi:start="3.1369395"
           sodipodi:end="3.136843"
           sodipodi:open="true"
           sodipodi:arc-type="arc"
           d="m 117.2357,21.87345 a 1,1 0 0 1 0.99531,-1.004642 1,1 0 0 1 1.00467,0.995288 1,1 0 0 1 -0.99527,1.00469 1,1 0 0 1 -1.00471,-0.995239" />
        <path
           style="font-weight:bold;font-size:2.82222px;font-family:'Helvetica Neue';-inkscape-font-specification:'Helvetica Neue Bold';text-align:center;text-anchor:middle;fill:#a5a5a5;fill-opacity:1;stroke:none;stroke-width:0.657942;stroke-linecap:round;stroke-dasharray:none;stroke-dashoffset:0;stroke-opacity:1"
           id="path2910-84"
           sodipodi:type="arc"
           sodipodi:cx="115.83253"
           sodipodi:cy="63.443542"
           sodipodi:rx="1"
           sodipodi:ry="1"
           sodipodi:start="3.1369395"
           sodipodi:end="3.136843"
           sodipodi:open="true"
           sodipodi:arc-type="arc"
           d="m 114.83254,63.448196 a 1,1 0 0 1 0.99531,-1.004643 1,1 0 0 1 1.00467,0.995288 1,1 0 0 1 -0.99527,1.00469 1,1 0 0 1 -1.00471,-0.995239" />
        <path
           style="font-weight:bold;font-size:2.82222px;font-family:'Helvetica Neue';-inkscape-font-specification:'Helvetica Neue Bold';text-align:center;text-anchor:middle;fill:#a5a5a5;fill-opacity:1;stroke:none;stroke-width:0.657942;stroke-linecap:round;stroke-dasharray:none;stroke-dashoffset:0;stroke-opacity:1"
           id="path2910-1"
           sodipodi:type="arc"
           sodipodi:cx="75.939995"
           sodipodi:cy="74.978729"
           sodipodi:rx="1"
           sodipodi:ry="1"
           sodipodi:start="3.1369395"
           sodipodi:end="3.136843"
           sodipodi:open="true"
           sodipodi:arc-type="arc"
           d="m 74.940006,74.983382 a 1,1 0 0 1 0.995312,-1.004642 1,1 0 0 1 1.004666,0.995288 1,1 0 0 1 -0.995264,1.00469 1,1 0 0 1 -1.004714,-0.995239" />
        <path
           style="font-weight:bold;font-size:2.82222px;font-family:'Helvetica Neue';-inkscape-font-specification:'Helvetica Neue Bold';text-align:center;text-anchor:middle;fill:#a5a5a5;fill-opacity:1;stroke:none;stroke-width:0.657942;stroke-linecap:round;stroke-dasharray:none;stroke-dashoffset:0;stroke-opacity:1"
           id="path2910-71"
           sodipodi:type="arc"
           sodipodi:cx="74.978729"
           sodipodi:cy="59.358162"
           sodipodi:rx="1"
           sodipodi:ry="1"
           sodipodi:start="3.1369395"
           sodipodi:end="3.136843"
           sodipodi:open="true"
           sodipodi:arc-type="arc"
           d="m 73.97874,59.362815 a 1,1 0 0 1 0.995312,-1.004642 1,1 0 0 1 1.004666,0.995288 1,1 0 0 1 -0.995263,1.00469 1,1 0 0 1 -1.004714,-0.995239" />
        <path
           style="font-weight:bold;font-size:2.82222px;font-family:'Helvetica Neue';-inkscape-font-specification:'Helvetica Neue Bold';text-align:center;text-anchor:middle;fill:#a5a5a5;fill-opacity:1;stroke:none;stroke-width:0.657942;stroke-linecap:round;stroke-dasharray:none;stroke-dashoffset:0;stroke-opacity:1"
           id="path2910-87"
           sodipodi:type="arc"
           sodipodi:cx="61.040375"
           sodipodi:cy="69.932083"
           sodipodi:rx="1"
           sodipodi:ry="1"
           sodipodi:start="3.1369395"
           sodipodi:end="3.136843"
           sodipodi:open="true"
           sodipodi:arc-type="arc"
           d="m 60.040386,69.936736 a 1,1 0 0 1 0.995311,-1.004642 1,1 0 0 1 1.004667,0.995288 1,1 0 0 1 -0.995264,1.00469 1,1 0 0 1 -1.004714,-0.995239" />
        <path
           style="font-weight:bold;font-size:2.82222px;font-family:'Helvetica Neue';-inkscape-font-specification:'Helvetica Neue Bold';text-align:center;text-anchor:middle;fill:#a5a5a5;fill-opacity:1;stroke:none;stroke-width:0.657942;stroke-linecap:round;stroke-dasharray:none;stroke-dashoffset:0;stroke-opacity:1"
           id="path2910-877"
           sodipodi:type="arc"
           sodipodi:cx="102.61512"
           sodipodi:cy="44.939175"
           sodipodi:rx="1"
           sodipodi:ry="1"
           sodipodi:start="3.1369395"
           sodipodi:end="3.136843"
           sodipodi:open="true"
           sodipodi:arc-type="arc"
           d="m 101.61513,44.943828 a 1,1 0 0 1 0.99531,-1.004642 1,1 0 0 1 1.00467,0.995287 1,1 0 0 1 -0.99526,1.00469 1,1 0 0 1 -1.00472,-0.995239" />
        <path
           style="font-weight:bold;font-size:2.82222px;font-family:'Helvetica Neue';-inkscape-font-specification:'Helvetica Neue Bold';text-align:center;text-anchor:middle;fill:#a5a5a5;fill-opacity:1;stroke:none;stroke-width:0.657942;stroke-linecap:round;stroke-dasharray:none;stroke-dashoffset:0;stroke-opacity:1"
           id="path2910-4"
           sodipodi:type="arc"
           sodipodi:cx="107.18114"
           sodipodi:cy="50.706768"
           sodipodi:rx="1"
           sodipodi:ry="1"
           sodipodi:start="3.1369395"
           sodipodi:end="3.136843"
           sodipodi:open="true"
           sodipodi:arc-type="arc"
           d="m 106.18115,50.711421 a 1,1 0 0 1 0.99531,-1.004642 1,1 0 0 1 1.00467,0.995288 1,1 0 0 1 -0.99527,1.00469 1,1 0 0 1 -1.00471,-0.995239" />
        <path
           style="font-weight:bold;font-size:2.82222px;font-family:'Helvetica Neue';-inkscape-font-specification:'Helvetica Neue Bold';text-align:center;text-anchor:middle;fill:#a5a5a5;fill-opacity:1;stroke:none;stroke-width:0.657942;stroke-linecap:round;stroke-dasharray:none;stroke-dashoffset:0;stroke-opacity:1"
           id="path2910-49"
           sodipodi:type="arc"
           sodipodi:cx="103.57639"
           sodipodi:cy="-53.590569"
           sodipodi:rx="1"
           sodipodi:ry="1"
           sodipodi:start="3.1369395"
           sodipodi:end="3.136843"
           sodipodi:open="true"
           sodipodi:arc-type="arc"
           d="m 102.5764,-53.585915 a 1,1 0 0 1 0.99532,-1.004643 1,1 0 0 1 1.00466,0.995288 1,1 0 0 1 -0.99526,1.00469 1,1 0 0 1 -1.00472,-0.995239"
           transform="scale(1,-1)" />
        <path
           style="font-weight:bold;font-size:2.82222px;font-family:'Helvetica Neue';-inkscape-font-specification:'Helvetica Neue Bold';text-align:center;text-anchor:middle;fill:#a5a5a5;fill-opacity:1;stroke:none;stroke-width:0.657942;stroke-linecap:round;stroke-dasharray:none;stroke-dashoffset:0;stroke-opacity:1"
           id="path2910-55"
           sodipodi:type="arc"
           sodipodi:cx="86.273605"
           sodipodi:cy="54.792149"
           sodipodi:rx="1"
           sodipodi:ry="1"
           sodipodi:start="3.1369395"
           sodipodi:end="3.136843"
           sodipodi:open="true"
           sodipodi:arc-type="arc"
           d="m 85.273616,54.796802 a 1,1 0 0 1 0.995312,-1.004642 1,1 0 0 1 1.004666,0.995287 1,1 0 0 1 -0.995263,1.00469 1,1 0 0 1 -1.004714,-0.995239" />
        <path
           style="font-weight:bold;font-size:2.82222px;font-family:'Helvetica Neue';-inkscape-font-specification:'Helvetica Neue Bold';text-align:center;text-anchor:middle;fill:#a5a5a5;fill-opacity:1;stroke:none;stroke-width:0.657942;stroke-linecap:round;stroke-dasharray:none;stroke-dashoffset:0;stroke-opacity:1"
           id="path2910-58"
           sodipodi:type="arc"
           sodipodi:cx="45.90044"
           sodipodi:cy="76.90126"
           sodipodi:rx="1"
           sodipodi:ry="1"
           sodipodi:start="3.1369395"
           sodipodi:end="3.136843"
           sodipodi:open="true"
           sodipodi:arc-type="arc"
           d="m 44.900451,76.905914 a 1,1 0 0 1 0.995312,-1.004643 1,1 0 0 1 1.004666,0.995288 1,1 0 0 1 -0.995263,1.00469 1,1 0 0 1 -1.004715,-0.995239" />
        <path
           style="font-weight:bold;font-size:2.82222px;font-family:'Helvetica Neue';-inkscape-font-specification:'Helvetica Neue Bold';text-align:center;text-anchor:middle;fill:#a5a5a5;fill-opacity:1;stroke:none;stroke-width:0.657942;stroke-linecap:round;stroke-dasharray:none;stroke-dashoffset:0;stroke-opacity:1"
           id="path2910-29"
           sodipodi:type="arc"
           sodipodi:cx="50.947086"
           sodipodi:cy="85.31234"
           sodipodi:rx="1"
           sodipodi:ry="1"
           sodipodi:start="3.1369395"
           sodipodi:end="3.136843"
           sodipodi:open="true"
           sodipodi:arc-type="arc"
           d="m 49.947097,85.316993 a 1,1 0 0 1 0.995312,-1.004642 1,1 0 0 1 1.004666,0.995287 1,1 0 0 1 -0.995263,1.004691 1,1 0 0 1 -1.004714,-0.99524" />
        <path
           style="font-weight:bold;font-size:2.82222px;font-family:'Helvetica Neue';-inkscape-font-specification:'Helvetica Neue Bold';text-align:center;text-anchor:middle;fill:#a5a5a5;fill-opacity:1;stroke:none;stroke-width:0.657942;stroke-linecap:round;stroke-dasharray:none;stroke-dashoffset:0;stroke-opacity:1"
           id="path2910-82"
           sodipodi:type="arc"
           sodipodi:cx="61.280693"
           sodipodi:cy="78.102844"
           sodipodi:rx="1"
           sodipodi:ry="1"
           sodipodi:start="3.1369395"
           sodipodi:end="3.136843"
           sodipodi:open="true"
           sodipodi:arc-type="arc"
           d="m 60.280704,78.107497 a 1,1 0 0 1 0.995312,-1.004642 1,1 0 0 1 1.004666,0.995288 1,1 0 0 1 -0.995263,1.00469 1,1 0 0 1 -1.004715,-0.995239" />
        <path
           style="font-weight:bold;font-size:2.82222px;font-family:'Helvetica Neue';-inkscape-font-specification:'Helvetica Neue Bold';text-align:center;text-anchor:middle;fill:#a5a5a5;fill-opacity:1;stroke:none;stroke-width:0.657942;stroke-linecap:round;stroke-dasharray:none;stroke-dashoffset:0;stroke-opacity:1"
           id="path2910-0"
           sodipodi:type="arc"
           sodipodi:cx="66.567657"
           sodipodi:cy="62.722591"
           sodipodi:rx="1"
           sodipodi:ry="1"
           sodipodi:start="3.1369395"
           sodipodi:end="3.136843"
           sodipodi:open="true"
           sodipodi:arc-type="arc"
           d="m 65.567668,62.727245 a 1,1 0 0 1 0.995312,-1.004643 1,1 0 0 1 1.004666,0.995288 1,1 0 0 1 -0.995263,1.00469 1,1 0 0 1 -1.004714,-0.995239" />
        <path
           style="font-weight:bold;font-size:2.82222px;font-family:'Helvetica Neue';-inkscape-font-specification:'Helvetica Neue Bold';text-align:center;text-anchor:middle;fill:#a5a5a5;fill-opacity:1;stroke:none;stroke-width:0.657942;stroke-linecap:round;stroke-dasharray:none;stroke-dashoffset:0;stroke-opacity:1"
           id="path2910-74"
           sodipodi:type="arc"
           sodipodi:cx="73.056198"
           sodipodi:cy="50.706768"
           sodipodi:rx="1"
           sodipodi:ry="1"
           sodipodi:start="3.1369395"
           sodipodi:end="3.136843"
           sodipodi:open="true"
           sodipodi:arc-type="arc"
           d="m 72.056209,50.711421 a 1,1 0 0 1 0.995312,-1.004642 1,1 0 0 1 1.004666,0.995288 1,1 0 0 1 -0.995263,1.00469 1,1 0 0 1 -1.004715,-0.995239" />
        <path
           style="font-weight:bold;font-size:2.82222px;font-family:'Helvetica Neue';-inkscape-font-specification:'Helvetica Neue Bold';text-align:center;text-anchor:middle;fill:#a5a5a5;fill-opacity:1;stroke:none;stroke-width:0.657942;stroke-linecap:round;stroke-dasharray:none;stroke-dashoffset:0;stroke-opacity:1"
           id="path2910-85"
           sodipodi:type="arc"
           sodipodi:cx="80.746323"
           sodipodi:cy="60.80006"
           sodipodi:rx="1"
           sodipodi:ry="1"
           sodipodi:start="3.1369395"
           sodipodi:end="3.136843"
           sodipodi:open="true"
           sodipodi:arc-type="arc"
           d="m 79.746333,60.804713 a 1,1 0 0 1 0.995312,-1.004642 1,1 0 0 1 1.004667,0.995288 1,1 0 0 1 -0.995264,1.00469 1,1 0 0 1 -1.004714,-0.995239" />
        <path
           style="font-weight:bold;font-size:2.82222px;font-family:'Helvetica Neue';-inkscape-font-specification:'Helvetica Neue Bold';text-align:center;text-anchor:middle;fill:#a5a5a5;fill-opacity:1;stroke:none;stroke-width:0.657942;stroke-linecap:round;stroke-dasharray:none;stroke-dashoffset:0;stroke-opacity:1"
           id="path2910-83"
           sodipodi:type="arc"
           sodipodi:cx="55.272781"
           sodipodi:cy="75.459366"
           sodipodi:rx="1"
           sodipodi:ry="1"
           sodipodi:start="3.1369395"
           sodipodi:end="3.136843"
           sodipodi:open="true"
           sodipodi:arc-type="arc"
           d="m 54.272792,75.464019 a 1,1 0 0 1 0.995312,-1.004642 1,1 0 0 1 1.004666,0.995287 1,1 0 0 1 -0.995263,1.004691 1,1 0 0 1 -1.004714,-0.99524" />
      </g>
      <g
         aria-label="2 4 6 8"
         id="text10028"
         style="font-weight:500;font-size:2.82223px;-inkscape-font-specification:'Helvetica Neue Medium';letter-spacing:13.2292px;fill:#808080;stroke-width:0.789001">
        <path
           d="m 49.737821,107.90208 h -1.349026 q 0.0028,-0.24554 0.118534,-0.42898 0.115711,-0.18345 0.316089,-0.31891 0.09596,-0.0706 0.200379,-0.13547 0.104422,-0.0677 0.191911,-0.14394 0.08749,-0.0762 0.143934,-0.16368 0.05644,-0.0903 0.05927,-0.20603 0,-0.0536 -0.01411,-0.11289 -0.01129,-0.0621 -0.04798,-0.11289 -0.03669,-0.0536 -0.1016,-0.0875 -0.06491,-0.0367 -0.169334,-0.0367 -0.09596,0 -0.160867,0.0395 -0.06209,0.0367 -0.101601,0.10442 -0.03669,0.0649 -0.05644,0.15522 -0.01693,0.0903 -0.01976,0.19474 h -0.321734 q 0,-0.16369 0.04233,-0.30198 0.04516,-0.14111 0.132645,-0.24271 0.08749,-0.1016 0.211667,-0.15805 0.127001,-0.0593 0.293512,-0.0593 0.180623,0 0.301979,0.0593 0.121356,0.0593 0.194734,0.14958 0.0762,0.0903 0.107245,0.19756 0.03104,0.10442 0.03104,0.20037 0,0.11854 -0.03669,0.21449 -0.03669,0.096 -0.09878,0.1778 -0.06209,0.079 -0.141111,0.14676 -0.07902,0.0677 -0.16369,0.127 -0.08467,0.0593 -0.169333,0.11289 -0.08467,0.0536 -0.158045,0.10724 -0.07056,0.0536 -0.124179,0.11289 -0.05362,0.0564 -0.07338,0.12136 h 0.96238 z"
           style="stroke-width:0.789"
           id="path2394" />
        <path
           d="m 77.406957,107.17959 h 0.598313 v -0.86925 h -0.0056 z m 1.157115,0.254 h -0.254001 v 0.46849 H 78.00527 v -0.46849 h -0.846669 v -0.31892 l 0.846669,-1.18815 h 0.304801 v 1.25307 h 0.254001 z"
           style="stroke-width:0.789"
           id="path2396" />
        <path
           d="m 107.01779,106.42605 q -0.0113,-0.12136 -0.0875,-0.19473 -0.0734,-0.0762 -0.20038,-0.0762 -0.0875,0 -0.1524,0.0339 -0.0621,0.031 -0.10724,0.0847 -0.0423,0.0536 -0.0706,0.12418 -0.0254,0.0677 -0.0423,0.14393 -0.0169,0.0762 -0.0254,0.1524 -0.006,0.0734 -0.0113,0.13829 l 0.006,0.006 q 0.0649,-0.11854 0.1778,-0.17498 0.11571,-0.0593 0.24836,-0.0593 0.14675,0 0.26247,0.0508 0.11571,0.0508 0.19473,0.14111 0.0818,0.0875 0.12418,0.20885 0.0423,0.12135 0.0423,0.26246 0,0.14394 -0.048,0.26812 -0.0452,0.12135 -0.13264,0.21449 -0.0875,0.0903 -0.20885,0.14111 -0.12135,0.0508 -0.26811,0.0508 -0.21731,0 -0.35842,-0.079 -0.13829,-0.0819 -0.22014,-0.22014 -0.079,-0.14111 -0.11006,-0.32738 -0.0311,-0.18909 -0.0311,-0.4064 0,-0.1778 0.0367,-0.35842 0.0395,-0.18062 0.127,-0.32738 0.0875,-0.14958 0.2286,-0.24271 0.14394,-0.0931 0.35278,-0.0931 0.11854,0 0.22296,0.0395 0.10442,0.0395 0.18344,0.11006 0.0819,0.0706 0.13265,0.16934 0.0508,0.0988 0.0564,0.22013 z m -0.31045,1.24743 q 0.0875,0 0.1524,-0.0339 0.0649,-0.0367 0.10725,-0.0931 0.0452,-0.0564 0.0649,-0.12983 0.0226,-0.0762 0.0226,-0.15522 0,-0.079 -0.0226,-0.1524 -0.0198,-0.0734 -0.0649,-0.127 -0.0423,-0.0564 -0.10725,-0.0903 -0.0649,-0.0339 -0.1524,-0.0339 -0.0875,0 -0.15522,0.0339 -0.0649,0.031 -0.11007,0.0875 -0.0451,0.0536 -0.0677,0.127 -0.0226,0.0734 -0.0226,0.15522 0,0.0818 0.0226,0.15522 0.0226,0.0734 0.0677,0.13265 0.0452,0.0564 0.11007,0.0903 0.0677,0.0339 0.15522,0.0339 z"
           style="stroke-width:0.789"
           id="path2398" />
        <path
           d="m 135.49972,106.14101 q -0.12982,0 -0.22013,0.079 -0.0903,0.0762 -0.0903,0.22295 0,0.14112 0.0875,0.21732 0.0875,0.0734 0.22295,0.0734 0.13547,0 0.22296,-0.0734 0.0875,-0.0762 0.0875,-0.21732 0,-0.14675 -0.0903,-0.22295 -0.0903,-0.079 -0.22014,-0.079 z m 0,1.80058 q -0.14957,0 -0.2794,-0.0423 -0.127,-0.0423 -0.22013,-0.12135 -0.0931,-0.0819 -0.14676,-0.19756 -0.0508,-0.11571 -0.0508,-0.25964 0,-0.18627 0.096,-0.31327 0.0988,-0.127 0.26529,-0.16933 v -0.006 q -0.13547,-0.0508 -0.20885,-0.15522 -0.0705,-0.10725 -0.0705,-0.25118 0,-0.254 0.15804,-0.39511 0.16087,-0.14394 0.4572,-0.14394 0.29634,0 0.45438,0.14394 0.16087,0.14111 0.16087,0.39511 0,0.14393 -0.0734,0.25118 -0.0706,0.10442 -0.20602,0.15522 v 0.006 q 0.16651,0.0423 0.26247,0.16933 0.0988,0.127 0.0988,0.31327 0,0.14393 -0.0536,0.25964 -0.0508,0.11571 -0.14393,0.19756 -0.0931,0.079 -0.22296,0.12135 -0.127,0.0423 -0.27658,0.0423 z m 0,-0.254 q 0.16087,0 0.26812,-0.096 0.10724,-0.096 0.10724,-0.27093 0,-0.16369 -0.10724,-0.254 -0.10725,-0.0931 -0.26812,-0.0931 -0.16086,0 -0.26811,0.0931 -0.10724,0.0903 -0.10724,0.254 0,0.17498 0.10724,0.27093 0.10725,0.096 0.26811,0.096 z"
           style="stroke-width:0.789"
           id="path2400" />
      </g>
      <g
         aria-label="100     80     60     40     20"
         id="text10134"
         style="font-weight:500;font-size:2.82223px;-inkscape-font-specification:'Helvetica Neue Medium';fill:#808080;stroke-width:0.789001">
        <path
           d="m 18.405119,16.373195 q 0.1016,0 0.197556,-0.01693 0.09596,-0.01693 0.172156,-0.05645 0.07902,-0.03951 0.132645,-0.1016 0.05644,-0.06209 0.07338,-0.152401 h 0.262467 v 1.975562 h -0.352779 v -1.394182 h -0.485423 z"
           style="text-align:end;text-anchor:end;stroke-width:0.789"
           id="path2371" />
        <path
           d="m 20.60928,16.006305 q 0.211667,0 0.344312,0.09878 0.135467,0.09596 0.208845,0.248357 0.0762,0.149578 0.1016,0.3302 0.02822,0.180623 0.02822,0.349957 0,0.169334 -0.02822,0.349957 -0.0254,0.180622 -0.1016,0.333023 -0.07338,0.149578 -0.208845,0.248356 -0.132645,0.09596 -0.344312,0.09596 -0.211667,0 -0.347134,-0.09596 -0.132645,-0.09878 -0.208845,-0.248356 -0.07338,-0.152401 -0.101601,-0.333023 -0.0254,-0.180623 -0.0254,-0.349957 0,-0.169334 0.0254,-0.349957 0.02822,-0.180622 0.101601,-0.3302 0.0762,-0.152401 0.208845,-0.248357 0.135467,-0.09878 0.347134,-0.09878 z m 0,1.786472 q 0.104422,0 0.174978,-0.05927 0.07056,-0.06209 0.110067,-0.163689 0.04233,-0.104423 0.05927,-0.242712 0.01693,-0.138289 0.01693,-0.293512 0,-0.155223 -0.01693,-0.29069 -0.01693,-0.138289 -0.05927,-0.242711 -0.03951,-0.104423 -0.110067,-0.16369 -0.07056,-0.06209 -0.174978,-0.06209 -0.107245,0 -0.177801,0.06209 -0.06773,0.05927 -0.110067,0.16369 -0.03951,0.104422 -0.05644,0.242711 -0.01693,0.135467 -0.01693,0.29069 0,0.155223 0.01693,0.293512 0.01693,0.138289 0.05644,0.242712 0.04233,0.1016 0.110067,0.163689 0.07056,0.05927 0.177801,0.05927 z"
           style="text-align:end;text-anchor:end;stroke-width:0.789"
           id="path2373" />
        <path
           d="m 22.178439,16.006305 q 0.211667,0 0.344312,0.09878 0.135467,0.09596 0.208845,0.248357 0.0762,0.149578 0.101601,0.3302 0.02822,0.180623 0.02822,0.349957 0,0.169334 -0.02822,0.349957 -0.0254,0.180622 -0.101601,0.333023 -0.07338,0.149578 -0.208845,0.248356 -0.132645,0.09596 -0.344312,0.09596 -0.211667,0 -0.347134,-0.09596 -0.132645,-0.09878 -0.208845,-0.248356 -0.07338,-0.152401 -0.1016,-0.333023 -0.0254,-0.180623 -0.0254,-0.349957 0,-0.169334 0.0254,-0.349957 0.02822,-0.180622 0.1016,-0.3302 0.0762,-0.152401 0.208845,-0.248357 0.135467,-0.09878 0.347134,-0.09878 z m 0,1.786472 q 0.104423,0 0.174978,-0.05927 0.07056,-0.06209 0.110067,-0.163689 0.04233,-0.104423 0.05927,-0.242712 0.01693,-0.138289 0.01693,-0.293512 0,-0.155223 -0.01693,-0.29069 -0.01693,-0.138289 -0.05927,-0.242711 -0.03951,-0.104423 -0.110067,-0.16369 -0.07055,-0.06209 -0.174978,-0.06209 -0.107245,0 -0.1778,0.06209 -0.06773,0.05927 -0.110067,0.16369 -0.03951,0.104422 -0.05645,0.242711 -0.01693,0.135467 -0.01693,0.29069 0,0.155223 0.01693,0.293512 0.01693,0.138289 0.05645,0.242712 0.04233,0.1016 0.110067,0.163689 0.07055,0.05927 0.1778,0.05927 z"
           style="text-align:end;text-anchor:end;stroke-width:0.789"
           id="path2375" />
        <path
           d="m 20.60928,33.899244 q -0.129823,0 -0.220134,0.07902 -0.09031,0.0762 -0.09031,0.222956 0,0.141111 0.08749,0.217311 0.08749,0.07338 0.222956,0.07338 0.135467,0 0.222956,-0.07338 0.08749,-0.0762 0.08749,-0.217311 0,-0.146756 -0.09031,-0.222956 -0.09031,-0.07902 -0.220134,-0.07902 z m 0,1.800583 q -0.149578,0 -0.279401,-0.04233 -0.127,-0.04233 -0.220134,-0.121355 -0.09313,-0.08185 -0.146756,-0.197557 -0.0508,-0.115711 -0.0508,-0.259645 0,-0.186267 0.09596,-0.313267 0.09878,-0.127001 0.26529,-0.169334 v -0.0056 q -0.135468,-0.0508 -0.208846,-0.155222 -0.07056,-0.107245 -0.07056,-0.251179 0,-0.254 0.158045,-0.395112 0.160867,-0.143934 0.457201,-0.143934 0.296334,0 0.454379,0.143934 0.160867,0.141112 0.160867,0.395112 0,0.143934 -0.07338,0.251179 -0.07056,0.104422 -0.206023,0.155222 v 0.0056 q 0.166512,0.04233 0.262468,0.169334 0.09878,0.127 0.09878,0.313267 0,0.143934 -0.05362,0.259645 -0.0508,0.115712 -0.143933,0.197557 -0.09313,0.07902 -0.222957,0.121355 -0.127,0.04233 -0.276578,0.04233 z m 0,-0.254001 q 0.160867,0 0.268112,-0.09596 0.107244,-0.09596 0.107244,-0.270934 0,-0.163689 -0.107244,-0.254 -0.107245,-0.09313 -0.268112,-0.09313 -0.160867,0 -0.268112,0.09313 -0.107245,0.09031 -0.107245,0.254 0,0.174979 0.107245,0.270934 0.107245,0.09596 0.268112,0.09596 z"
           style="text-align:end;text-anchor:end;stroke-width:0.789"
           id="path2377" />
        <path
           d="m 22.178439,33.645243 q 0.211667,0 0.344312,0.09878 0.135467,0.09596 0.208845,0.248357 0.0762,0.149578 0.101601,0.330201 0.02822,0.180622 0.02822,0.349956 0,0.169334 -0.02822,0.349957 -0.0254,0.180622 -0.101601,0.333023 -0.07338,0.149578 -0.208845,0.248356 -0.132645,0.09596 -0.344312,0.09596 -0.211667,0 -0.347134,-0.09596 -0.132645,-0.09878 -0.208845,-0.248356 -0.07338,-0.152401 -0.1016,-0.333023 -0.0254,-0.180623 -0.0254,-0.349957 0,-0.169334 0.0254,-0.349956 0.02822,-0.180623 0.1016,-0.330201 0.0762,-0.152401 0.208845,-0.248357 0.135467,-0.09878 0.347134,-0.09878 z m 0,1.786472 q 0.104423,0 0.174978,-0.05927 0.07056,-0.06209 0.110067,-0.163689 0.04233,-0.104423 0.05927,-0.242712 0.01693,-0.138289 0.01693,-0.293512 0,-0.155222 -0.01693,-0.29069 -0.01693,-0.138289 -0.05927,-0.242711 -0.03951,-0.104423 -0.110067,-0.16369 -0.07055,-0.06209 -0.174978,-0.06209 -0.107245,0 -0.1778,0.06209 -0.06773,0.05927 -0.110067,0.16369 -0.03951,0.104422 -0.05645,0.242711 -0.01693,0.135468 -0.01693,0.29069 0,0.155223 0.01693,0.293512 0.01693,0.138289 0.05645,0.242712 0.04233,0.1016 0.110067,0.163689 0.07055,0.05927 0.1778,0.05927 z"
           style="text-align:end;text-anchor:end;stroke-width:0.789"
           id="path2379" />
        <path
           d="m 20.939481,51.823227 q -0.01129,-0.121355 -0.08749,-0.194733 -0.07338,-0.0762 -0.200379,-0.0762 -0.08749,0 -0.1524,0.03387 -0.06209,0.03104 -0.107245,0.08467 -0.04233,0.05362 -0.07056,0.124178 -0.0254,0.06773 -0.04233,0.143934 -0.01693,0.0762 -0.0254,0.1524 -0.0056,0.07338 -0.01129,0.13829 l 0.0056,0.0056 q 0.06491,-0.118534 0.177801,-0.174978 0.115711,-0.05927 0.248356,-0.05927 0.146756,0 0.262468,0.0508 0.115711,0.0508 0.194733,0.141112 0.08184,0.08749 0.124179,0.208845 0.04233,0.121356 0.04233,0.262467 0,0.143934 -0.04798,0.268112 -0.04516,0.121356 -0.132645,0.214489 -0.08749,0.09031 -0.208845,0.141112 -0.121356,0.0508 -0.268112,0.0508 -0.217311,0 -0.358423,-0.07902 -0.138289,-0.08185 -0.220134,-0.220134 -0.07902,-0.141112 -0.110067,-0.327379 -0.03104,-0.189089 -0.03104,-0.406401 0,-0.177801 0.03669,-0.358423 0.03951,-0.180623 0.127,-0.327379 0.08749,-0.149578 0.228601,-0.242712 0.143933,-0.09313 0.352778,-0.09313 0.118534,0 0.222957,0.03951 0.104422,0.03951 0.183445,0.110067 0.08184,0.07055 0.132644,0.169334 0.0508,0.09878 0.05645,0.220133 z m -0.310445,1.247426 q 0.08749,0 0.1524,-0.03387 0.06491,-0.03669 0.107245,-0.09313 0.04516,-0.05644 0.06491,-0.129823 0.02258,-0.0762 0.02258,-0.155222 0,-0.07902 -0.02258,-0.152401 -0.01976,-0.07338 -0.06491,-0.127 -0.04233,-0.05645 -0.107245,-0.09031 -0.06491,-0.03387 -0.1524,-0.03387 -0.08749,0 -0.155223,0.03387 -0.06491,0.03105 -0.110067,0.08749 -0.04516,0.05362 -0.06773,0.127 -0.02258,0.07338 -0.02258,0.155223 0,0.08184 0.02258,0.155222 0.02258,0.07338 0.06773,0.132645 0.04516,0.05645 0.110067,0.09031 0.06773,0.03387 0.155223,0.03387 z"
           style="text-align:end;text-anchor:end;stroke-width:0.789"
           id="path2381" />
        <path
           d="m 22.178439,51.284182 q 0.211667,0 0.344312,0.09878 0.135467,0.09596 0.208845,0.248356 0.0762,0.149578 0.101601,0.330201 0.02822,0.180622 0.02822,0.349956 0,0.169334 -0.02822,0.349957 -0.0254,0.180623 -0.101601,0.333023 -0.07338,0.149578 -0.208845,0.248356 -0.132645,0.09596 -0.344312,0.09596 -0.211667,0 -0.347134,-0.09596 -0.132645,-0.09878 -0.208845,-0.248356 -0.07338,-0.1524 -0.1016,-0.333023 -0.0254,-0.180623 -0.0254,-0.349957 0,-0.169334 0.0254,-0.349956 0.02822,-0.180623 0.1016,-0.330201 0.0762,-0.152401 0.208845,-0.248356 0.135467,-0.09878 0.347134,-0.09878 z m 0,1.786471 q 0.104423,0 0.174978,-0.05927 0.07056,-0.06209 0.110067,-0.163689 0.04233,-0.104423 0.05927,-0.242712 0.01693,-0.138289 0.01693,-0.293512 0,-0.155222 -0.01693,-0.290689 -0.01693,-0.13829 -0.05927,-0.242712 -0.03951,-0.104423 -0.110067,-0.16369 -0.07055,-0.06209 -0.174978,-0.06209 -0.107245,0 -0.1778,0.06209 -0.06773,0.05927 -0.110067,0.16369 -0.03951,0.104422 -0.05645,0.242712 -0.01693,0.135467 -0.01693,0.290689 0,0.155223 0.01693,0.293512 0.01693,0.138289 0.05645,0.242712 0.04233,0.1016 0.110067,0.163689 0.07055,0.05927 0.1778,0.05927 z"
           style="text-align:end;text-anchor:end;stroke-width:0.789"
           id="path2383" />
        <path
           d="m 20.14079,70.215701 h 0.598312 v -0.869247 h -0.0056 z m 1.157114,0.254001 h -0.254001 v 0.46849 h -0.304801 v -0.46849 H 19.892433 V 70.15079 l 0.846669,-1.188159 h 0.304801 v 1.25307 h 0.254001 z"
           style="text-align:end;text-anchor:end;stroke-width:0.789"
           id="path2385" />
        <path
           d="m 22.178439,68.92312 q 0.211667,0 0.344312,0.09878 0.135467,0.09596 0.208845,0.248356 0.0762,0.149578 0.101601,0.330201 0.02822,0.180623 0.02822,0.349956 0,0.169334 -0.02822,0.349957 -0.0254,0.180623 -0.101601,0.333023 -0.07338,0.149578 -0.208845,0.248356 -0.132645,0.09596 -0.344312,0.09596 -0.211667,0 -0.347134,-0.09596 -0.132645,-0.09878 -0.208845,-0.248356 -0.07338,-0.1524 -0.1016,-0.333023 -0.0254,-0.180623 -0.0254,-0.349957 0,-0.169333 0.0254,-0.349956 0.02822,-0.180623 0.1016,-0.330201 0.0762,-0.1524 0.208845,-0.248356 0.135467,-0.09878 0.347134,-0.09878 z m 0,1.786471 q 0.104423,0 0.174978,-0.05927 0.07056,-0.06209 0.110067,-0.163689 0.04233,-0.104422 0.05927,-0.242712 0.01693,-0.138289 0.01693,-0.293512 0,-0.155222 -0.01693,-0.290689 -0.01693,-0.13829 -0.05927,-0.242712 -0.03951,-0.104423 -0.110067,-0.163689 -0.07055,-0.06209 -0.174978,-0.06209 -0.107245,0 -0.1778,0.06209 -0.06773,0.05927 -0.110067,0.163689 -0.03951,0.104422 -0.05645,0.242712 -0.01693,0.135467 -0.01693,0.290689 0,0.155223 0.01693,0.293512 0.01693,0.13829 0.05645,0.242712 0.04233,0.1016 0.110067,0.163689 0.07055,0.05927 0.1778,0.05927 z"
           style="text-align:end;text-anchor:end;stroke-width:0.789"
           id="path2387" />
        <path
           d="m 21.283793,88.57713 h -1.349026 q 0.0028,-0.245534 0.118534,-0.428979 0.115711,-0.183445 0.316089,-0.318912 0.09596,-0.07056 0.200379,-0.135467 0.104422,-0.06773 0.191911,-0.143934 0.08749,-0.0762 0.143934,-0.163689 0.05645,-0.09031 0.05927,-0.206023 0,-0.05362 -0.01411,-0.112889 -0.01129,-0.06209 -0.04798,-0.112889 -0.03669,-0.05362 -0.1016,-0.08749 -0.06491,-0.03669 -0.169334,-0.03669 -0.09596,0 -0.160867,0.03951 -0.06209,0.03669 -0.101601,0.104422 -0.03669,0.06491 -0.05644,0.155223 -0.01693,0.09031 -0.01976,0.194734 h -0.321734 q 0,-0.163689 0.04233,-0.301979 0.04516,-0.141111 0.132645,-0.242711 0.08749,-0.101601 0.211667,-0.158045 0.127001,-0.05927 0.293512,-0.05927 0.180623,0 0.301979,0.05927 0.121356,0.05927 0.194734,0.149578 0.0762,0.09031 0.107245,0.197556 0.03104,0.104422 0.03104,0.200378 0,0.118534 -0.03669,0.21449 -0.03669,0.09596 -0.09878,0.1778 -0.06209,0.07902 -0.141111,0.146756 -0.07902,0.06773 -0.16369,0.127001 -0.08467,0.05927 -0.169334,0.112889 -0.08467,0.05362 -0.158044,0.107245 -0.07056,0.05362 -0.124179,0.112889 -0.05362,0.05644 -0.07338,0.121356 h 0.962381 z"
           style="text-align:end;text-anchor:end;stroke-width:0.789"
           id="path2389" />
        <path
           d="m 22.178439,86.562058 q 0.211667,0 0.344312,0.09878 0.135467,0.09596 0.208845,0.248356 0.0762,0.149578 0.101601,0.330201 0.02822,0.180623 0.02822,0.349957 0,0.169333 -0.02822,0.349956 -0.0254,0.180623 -0.101601,0.333023 -0.07338,0.149578 -0.208845,0.248356 -0.132645,0.09596 -0.344312,0.09596 -0.211667,0 -0.347134,-0.09596 -0.132645,-0.09878 -0.208845,-0.248356 -0.07338,-0.1524 -0.1016,-0.333023 -0.0254,-0.180623 -0.0254,-0.349956 0,-0.169334 0.0254,-0.349957 0.02822,-0.180623 0.1016,-0.330201 0.0762,-0.1524 0.208845,-0.248356 0.135467,-0.09878 0.347134,-0.09878 z m 0,1.786471 q 0.104423,0 0.174978,-0.05927 0.07056,-0.06209 0.110067,-0.16369 0.04233,-0.104422 0.05927,-0.242712 0.01693,-0.138289 0.01693,-0.293511 0,-0.155223 -0.01693,-0.29069 -0.01693,-0.138289 -0.05927,-0.242712 -0.03951,-0.104422 -0.110067,-0.163689 -0.07055,-0.06209 -0.174978,-0.06209 -0.107245,0 -0.1778,0.06209 -0.06773,0.05927 -0.110067,0.163689 -0.03951,0.104423 -0.05645,0.242712 -0.01693,0.135467 -0.01693,0.29069 0,0.155222 0.01693,0.293511 0.01693,0.13829 0.05645,0.242712 0.04233,0.101601 0.110067,0.16369 0.07055,0.05927 0.1778,0.05927 z"
           style="text-align:end;text-anchor:end;stroke-width:0.789"
           id="path2391" />
      </g>
      <text
         xml:space="preserve"
         style="font-style:normal;font-variant:normal;font-weight:500;font-stretch:normal;font-size:2.82223px;font-family:'Helvetica Neue';-inkscape-font-specification:'Helvetica Neue Medium';text-align:end;text-anchor:end;fill:#808080;fill-opacity:1;stroke:none;stroke-width:0.789001;stroke-linecap:round;stroke-dasharray:none;stroke-dashoffset:0;stroke-opacity:1"
         x="18.26405"
         y="24.031645"
         id="text10162"><tspan
           sodipodi:role="line"
           id="tspan10160"
           style="stroke-width:0.789"
           x="18.26405"
           y="24.031645" /></text>
    </g>
  </g>
</svg>
