<svg
   width="218mm"
   height="74mm"
   viewBox="0 0 218 74"
   version="1.1"
   id="svg5"
   inkscape:version="1.2.2 (b0a84865, 2022-12-01)"
   sodipodi:docname="git-merge.svg"
   xmlns:inkscape="http://www.inkscape.org/namespaces/inkscape"
   xmlns:sodipodi="http://sodipodi.sourceforge.net/DTD/sodipodi-0.dtd"
   xmlns="http://www.w3.org/2000/svg"
   xmlns:svg="http://www.w3.org/2000/svg">
  <sodipodi:namedview
     id="namedview7"
     pagecolor="#ffffff"
     bordercolor="#eeeeee"
     borderopacity="1"
     inkscape:showpageshadow="0"
     inkscape:pageopacity="0"
     inkscape:pagecheckerboard="false"
     inkscape:deskcolor="#505050"
     inkscape:document-units="mm"
     showgrid="false"
     showguides="true"
     inkscape:zoom="1.1009789"
     inkscape:cx="390.56153"
     inkscape:cy="231.15793"
     inkscape:window-width="1295"
     inkscape:window-height="809"
     inkscape:window-x="175"
     inkscape:window-y="37"
     inkscape:window-maximized="0"
     inkscape:current-layer="layer1" />
  <defs
     id="defs2" />
  <g
     inkscape:label="Layer 1"
     inkscape:groupmode="layer"
     id="layer1">
    <path
       style="fill:#333333;fill-opacity:1;stroke:#808080;stroke-width:1.811;stroke-linecap:round;stroke-dasharray:none;stroke-opacity:1"
       d="m 173.72219,33.23428 c -133.761537,0 -133.761537,0 -133.761537,0"
       id="path13716-9" />
    <g
       aria-label="Branches."
       id="text46381"
       style="font-weight:bold;font-size:2.82223px;font-family:'Helvetica Neue';-inkscape-font-specification:'Helvetica Neue Bold';text-align:center;text-anchor:middle;fill:#1a1a1a;stroke-width:1.649;stroke-linecap:round;stroke-linejoin:round"
       transform="translate(0,-7.4083337)" />
    <path
       d="m 28.468468,64.187168 q -0.02258,-0.0875 -0.06209,-0.16087 -0.03951,-0.0734 -0.1016,-0.126997 -0.06209,-0.0536 -0.146756,-0.0818 -0.08184,-0.031 -0.191911,-0.031 -0.160866,0 -0.2794,0.0649 -0.115711,0.0649 -0.189088,0.174977 -0.07338,0.10724 -0.110067,0.24553 -0.03387,0.13829 -0.03387,0.282217 0,0.14394 0.03387,0.28223 0.03669,0.13829 0.110067,0.248347 0.07338,0.10725 0.189088,0.17216 0.118534,0.0649 0.2794,0.0649 0.118533,0 0.208844,-0.0395 0.09031,-0.0423 0.155223,-0.11289 0.06491,-0.0734 0.101599,-0.169327 0.03669,-0.096 0.04798,-0.20603 h 0.344311 q -0.01129,0.18063 -0.07902,0.330197 -0.06491,0.14958 -0.1778,0.25965 -0.112889,0.10724 -0.265289,0.16651 -0.1524,0.0593 -0.335844,0.0593 -0.225777,0 -0.4064,-0.0818 -0.177799,-0.0847 -0.301977,-0.2286 -0.124178,-0.14393 -0.191911,-0.335837 -0.06491,-0.19191 -0.06491,-0.40923 0,-0.214477 0.06491,-0.406397 0.06773,-0.191907 0.191911,-0.335837 0.124178,-0.14393 0.301977,-0.2286 0.180623,-0.0847 0.4064,-0.0847 0.169333,0 0.318911,0.048 0.149578,0.0452 0.262467,0.13547 0.115711,0.0875 0.186266,0.21449 0.07056,0.126997 0.08749,0.290687 z"
       style="font-weight:500;font-size:2.82222px;font-family:'Helvetica Neue';-inkscape-font-specification:'Helvetica Neue Medium';text-align:center;text-anchor:middle;fill:#333333;stroke-width:1.422;stroke-linecap:round"
       id="path38601" />
    <path
       d="m 30.322662,65.237022 q 0,0.0593 0.01411,0.0847 0.01693,0.0254 0.06209,0.0254 0.01411,0 0.03387,0 0.01976,0 0.04516,-0.006 v 0.22296 q -0.01693,0.006 -0.04516,0.0113 -0.0254,0.008 -0.05362,0.0141 -0.02822,0.006 -0.05644,0.008 -0.02822,0.003 -0.04798,0.003 -0.09878,0 -0.163689,-0.0395 -0.06491,-0.0395 -0.08467,-0.13829 -0.09596,0.0931 -0.237067,0.13546 -0.138289,0.0423 -0.268111,0.0423 -0.09878,0 -0.189089,-0.0282 -0.09031,-0.0254 -0.160866,-0.0762 -0.06773,-0.0536 -0.110067,-0.13265 -0.03951,-0.0818 -0.03951,-0.18909 0,-0.135457 0.04798,-0.220127 0.0508,-0.0847 0.129822,-0.13264 0.08184,-0.048 0.180622,-0.0677 0.1016,-0.0226 0.2032,-0.0339 0.08749,-0.0169 0.166511,-0.0226 0.07902,-0.008 0.138289,-0.0254 0.06209,-0.0169 0.09596,-0.0508 0.03669,-0.0367 0.03669,-0.107247 0,-0.0621 -0.03104,-0.1016 -0.02822,-0.0395 -0.07338,-0.0593 -0.04233,-0.0226 -0.09596,-0.0282 -0.05362,-0.008 -0.1016,-0.008 -0.135467,0 -0.222956,0.0564 -0.08749,0.0564 -0.09878,0.174977 H 29.07524 q 0.0085,-0.141107 0.06773,-0.234237 0.05927,-0.0931 0.149577,-0.14958 0.09313,-0.0564 0.208845,-0.079 0.115711,-0.0226 0.237066,-0.0226 0.107245,0 0.211667,0.0226 0.104422,0.0226 0.186266,0.0734 0.08467,0.0508 0.135467,0.13265 0.0508,0.079 0.0508,0.19473 z m -0.321733,-0.406397 q -0.07338,0.048 -0.180622,0.0593 -0.107245,0.008 -0.214489,0.0282 -0.0508,0.008 -0.09878,0.0254 -0.04798,0.0141 -0.08467,0.0423 -0.03669,0.0254 -0.05927,0.0706 -0.01976,0.0423 -0.01976,0.104417 0,0.0536 0.03105,0.0903 0.03104,0.0367 0.07338,0.0593 0.04516,0.0198 0.09596,0.0282 0.05362,0.008 0.09596,0.008 0.05362,0 0.115712,-0.0141 0.06209,-0.0141 0.115711,-0.048 0.05644,-0.0339 0.09313,-0.0847 0.03669,-0.0536 0.03669,-0.129817 z"
       style="font-weight:500;font-size:2.82222px;font-family:'Helvetica Neue';-inkscape-font-specification:'Helvetica Neue Medium';text-align:center;text-anchor:middle;fill:#333333;stroke-width:1.422;stroke-linecap:round"
       id="path38603" />
    <path
       d="m 30.669795,64.102498 h 0.301978 v 0.28222 h 0.0056 q 0.01411,-0.0593 0.05362,-0.11571 0.04233,-0.0564 0.09878,-0.1016 0.05927,-0.048 0.129822,-0.0762 0.07056,-0.0282 0.143933,-0.0282 0.05645,0 0.0762,0.003 0.02258,0.003 0.04516,0.006 v 0.31045 q -0.03387,-0.006 -0.07056,-0.008 -0.03387,-0.006 -0.06773,-0.006 -0.08184,0 -0.155222,0.0339 -0.07056,0.031 -0.124178,0.096 -0.05362,0.0621 -0.08467,0.155217 -0.03105,0.0931 -0.03105,0.21449 v 0.694267 h -0.321733 z"
       style="font-weight:500;font-size:2.82222px;font-family:'Helvetica Neue';-inkscape-font-specification:'Helvetica Neue Medium';text-align:center;text-anchor:middle;fill:#333333;stroke-width:1.422;stroke-linecap:round"
       id="path38605" />
    <path
       d="m 31.671681,63.546521 h 0.321734 v 2.015061 h -0.321734 z"
       style="font-weight:500;font-size:2.82222px;font-family:'Helvetica Neue';-inkscape-font-specification:'Helvetica Neue Medium';text-align:center;text-anchor:middle;fill:#333333;stroke-width:1.422;stroke-linecap:round"
       id="path38607" />
    <path
       d="m 33.012232,65.601092 q -0.174978,0 -0.313266,-0.0564 -0.135467,-0.0593 -0.231422,-0.16086 -0.09313,-0.1016 -0.143934,-0.24271 -0.04798,-0.141107 -0.04798,-0.310447 0,-0.16651 0.04798,-0.307617 0.0508,-0.14111 0.143934,-0.24271 0.09596,-0.1016 0.231422,-0.15805 0.138288,-0.0593 0.313266,-0.0593 0.174978,0 0.310444,0.0593 0.138289,0.0564 0.231422,0.15805 0.09596,0.1016 0.143933,0.24271 0.0508,0.141107 0.0508,0.307617 0,0.16934 -0.0508,0.310447 -0.04798,0.14111 -0.143933,0.24271 -0.09313,0.1016 -0.231422,0.16086 -0.135466,0.0564 -0.310444,0.0564 z m 0,-0.254 q 0.107244,0 0.186267,-0.0452 0.07902,-0.0451 0.129822,-0.11853 0.0508,-0.0734 0.07338,-0.163687 0.0254,-0.0931 0.0254,-0.18909 0,-0.0931 -0.0254,-0.18626 -0.02258,-0.0931 -0.07338,-0.163687 -0.0508,-0.0734 -0.129822,-0.11854 -0.07902,-0.0452 -0.186267,-0.0452 -0.107244,0 -0.186267,0.0452 -0.07902,0.0452 -0.129822,0.11854 -0.0508,0.0705 -0.0762,0.163687 -0.02258,0.0931 -0.02258,0.18626 0,0.096 0.02258,0.18909 0.0254,0.0903 0.0762,0.163687 0.0508,0.0734 0.129822,0.11853 0.07902,0.0452 0.186267,0.0452 z"
       style="font-weight:500;font-size:2.82222px;font-family:'Helvetica Neue';-inkscape-font-specification:'Helvetica Neue Medium';text-align:center;text-anchor:middle;fill:#333333;stroke-width:1.422;stroke-linecap:round"
       id="path38609" />
    <path
       d="m 34.259649,65.093092 q 0.01411,0.14111 0.107245,0.19755 0.09313,0.0564 0.222955,0.0564 0.04516,0 0.1016,-0.006 0.05927,-0.008 0.110067,-0.0282 0.0508,-0.0198 0.08184,-0.0564 0.03387,-0.0395 0.03104,-0.1016 -0.0028,-0.0621 -0.04515,-0.101597 -0.04233,-0.0395 -0.110067,-0.0621 -0.06491,-0.0254 -0.149577,-0.0423 -0.08467,-0.0169 -0.172156,-0.0367 -0.09031,-0.0198 -0.174977,-0.048 -0.08185,-0.0282 -0.149578,-0.0762 -0.06491,-0.048 -0.104422,-0.12136 -0.03951,-0.0762 -0.03951,-0.186257 0,-0.11854 0.05644,-0.19756 0.05927,-0.0818 0.146755,-0.12982 0.09031,-0.0508 0.197556,-0.0706 0.110066,-0.0198 0.208844,-0.0198 0.112889,0 0.214489,0.0254 0.104422,0.0226 0.186266,0.0762 0.08467,0.0536 0.138289,0.14111 0.05644,0.0847 0.07056,0.20602 h -0.335844 q -0.02258,-0.11571 -0.107245,-0.15522 -0.08184,-0.0395 -0.189089,-0.0395 -0.03387,0 -0.08184,0.006 -0.04516,0.006 -0.08749,0.0226 -0.03951,0.0141 -0.06773,0.0452 -0.02822,0.0282 -0.02822,0.0762 0,0.0593 0.03951,0.096 0.04233,0.0367 0.107244,0.0621 0.06773,0.0226 0.1524,0.0395 0.08467,0.0169 0.174978,0.0367 0.08749,0.0198 0.172155,0.048 0.08467,0.0282 0.149578,0.0762 0.06773,0.048 0.107244,0.12135 0.04233,0.0734 0.04233,0.180634 0,0.12982 -0.05927,0.22013 -0.05927,0.0903 -0.155222,0.14675 -0.09313,0.0564 -0.208845,0.0818 -0.115711,0.0254 -0.228599,0.0254 -0.138289,0 -0.256822,-0.031 -0.115711,-0.031 -0.2032,-0.0931 -0.08467,-0.0649 -0.135467,-0.15804 -0.04798,-0.096 -0.0508,-0.22578 z"
       style="font-weight:500;font-size:2.82222px;font-family:'Helvetica Neue';-inkscape-font-specification:'Helvetica Neue Medium';text-align:center;text-anchor:middle;fill:#333333;stroke-width:1.422;stroke-linecap:round"
       id="path38611" />
    <path
       d="m 36.311402,63.546521 h 0.888999 q 0.214489,0 0.349955,0.0621 0.135467,0.0621 0.208844,0.15522 0.07338,0.0931 0.09878,0.2032 0.02822,0.110067 0.02822,0.203197 0,0.0931 -0.02822,0.2032 -0.0254,0.10725 -0.09878,0.200377 -0.07338,0.0931 -0.208844,0.15522 -0.135466,0.0593 -0.349955,0.0593 h -0.536222 v 0.773287 h -0.352777 z m 0.352777,0.953907 h 0.516466 q 0.05927,0 0.121356,-0.0169 0.06209,-0.0169 0.112889,-0.0536 0.05362,-0.0395 0.08467,-0.1016 0.03387,-0.0649 0.03387,-0.16087 0,-0.0988 -0.02822,-0.163687 -0.02822,-0.0649 -0.0762,-0.1016 -0.04798,-0.0395 -0.110067,-0.0536 -0.06209,-0.0141 -0.132644,-0.0141 h -0.522111 z"
       style="font-weight:500;font-size:2.82222px;font-family:'Helvetica Neue';-inkscape-font-specification:'Helvetica Neue Medium';text-align:center;text-anchor:middle;fill:#333333;stroke-width:1.422;stroke-linecap:round"
       id="path38613" />
    <path
       d="m 39.370687,65.237022 q 0,0.0593 0.01411,0.0847 0.01693,0.0254 0.06209,0.0254 0.01411,0 0.03387,0 0.01976,0 0.04516,-0.006 v 0.22296 q -0.01693,0.006 -0.04516,0.0113 -0.0254,0.008 -0.05362,0.0141 -0.02822,0.006 -0.05644,0.008 -0.02822,0.003 -0.04798,0.003 -0.09878,0 -0.163689,-0.0395 -0.06491,-0.0395 -0.08467,-0.13829 -0.09596,0.0931 -0.237067,0.13546 -0.138288,0.0423 -0.268111,0.0423 -0.09878,0 -0.189088,-0.0282 -0.09031,-0.0254 -0.160867,-0.0762 -0.06773,-0.0536 -0.110066,-0.13265 -0.03951,-0.0818 -0.03951,-0.18909 0,-0.135457 0.04798,-0.220127 0.0508,-0.0847 0.129822,-0.13264 0.08185,-0.048 0.180622,-0.0677 0.1016,-0.0226 0.2032,-0.0339 0.08749,-0.0169 0.166511,-0.0226 0.07902,-0.008 0.138289,-0.0254 0.06209,-0.0169 0.09596,-0.0508 0.03669,-0.0367 0.03669,-0.107247 0,-0.0621 -0.03104,-0.1016 -0.02822,-0.0395 -0.07338,-0.0593 -0.04233,-0.0226 -0.09595,-0.0282 -0.05362,-0.008 -0.1016,-0.008 -0.135467,0 -0.222956,0.0564 -0.08749,0.0564 -0.09878,0.174977 h -0.321733 q 0.0085,-0.141107 0.06773,-0.234237 0.05927,-0.0931 0.149578,-0.14958 0.09313,-0.0564 0.208844,-0.079 0.115711,-0.0226 0.237066,-0.0226 0.107245,0 0.211667,0.0226 0.104422,0.0226 0.186266,0.0734 0.08467,0.0508 0.135467,0.13265 0.0508,0.079 0.0508,0.19473 z m -0.321733,-0.406397 q -0.07338,0.048 -0.180622,0.0593 -0.107245,0.008 -0.214489,0.0282 -0.0508,0.008 -0.09878,0.0254 -0.04798,0.0141 -0.08467,0.0423 -0.03669,0.0254 -0.05927,0.0706 -0.01976,0.0423 -0.01976,0.104417 0,0.0536 0.03104,0.0903 0.03104,0.0367 0.07338,0.0593 0.04516,0.0198 0.09596,0.0282 0.05362,0.008 0.09596,0.008 0.05362,0 0.115711,-0.0141 0.06209,-0.0141 0.115711,-0.048 0.05644,-0.0339 0.09313,-0.0847 0.03669,-0.0536 0.03669,-0.129817 z"
       style="font-weight:500;font-size:2.82222px;font-family:'Helvetica Neue';-inkscape-font-specification:'Helvetica Neue Medium';text-align:center;text-anchor:middle;fill:#333333;stroke-width:1.422;stroke-linecap:round"
       id="path38615" />
    <path
       d="m 39.726287,63.546521 h 0.321733 v 0.3048 h -0.321733 z m 0,0.555977 h 0.321733 v 1.459084 h -0.321733 z"
       style="font-weight:500;font-size:2.82222px;font-family:'Helvetica Neue';-inkscape-font-specification:'Helvetica Neue Medium';text-align:center;text-anchor:middle;fill:#333333;stroke-width:1.422;stroke-linecap:round"
       id="path38617" />
    <path
       d="m 40.347173,64.102498 h 1.185333 v 0.22578 l -0.835377,0.979304 h 0.87771 v 0.254 h -1.28411 v -0.22578 l 0.807155,-0.979304 h -0.750711 z"
       style="font-weight:500;font-size:2.82222px;font-family:'Helvetica Neue';-inkscape-font-specification:'Helvetica Neue Medium';text-align:center;text-anchor:middle;fill:#333333;stroke-width:1.422;stroke-linecap:round"
       id="path38619" />
    <path
       style="fill:none;stroke:#808080;stroke-width:1.706;stroke-linecap:round;stroke-linejoin:round;stroke-dasharray:none;stroke-opacity:1"
       d="m 69.202636,32.609042 c 1.631802,-3.879459 2.65041,-8.121072 4.783747,-11.71169 2.632197,-3.713671 7.108805,-4.922953 11.174889,-4.612787 12.070445,0.02676 24.140938,0.0021 36.211458,0.01068"
       id="path43752-8" />
    <path
       style="fill:none;stroke:#808080;stroke-width:1.706;stroke-linecap:round;stroke-linejoin:round;stroke-dasharray:none;stroke-opacity:1"
       d="m 140.15819,32.676256 c -1.56875,-3.884654 -2.548,-8.131949 -4.59891,-11.727377 -2.53051,-3.718646 -6.83416,-4.929547 -10.74315,-4.618966 -11.60412,0.0268 -23.20827,0.0021 -34.812382,0.0107"
       id="path43752-8-2" />
    <path
       id="path43828-0"
       style="fill:#ffffff;stroke:#4d4d4d;stroke-width:1.649;stroke-linecap:round;stroke-linejoin:round"
       d="m 66.961347,33.088776 a 2.8757164,2.8757181 0 0 1 2.862235,-2.889068 2.8757164,2.8757181 0 0 1 2.889135,2.862167 2.8757164,2.8757181 0 0 1 -2.862095,2.889206 2.8757164,2.8757181 0 0 1 -2.889273,-2.862028" />
    <path
       id="path43828-0-1"
       style="fill:#ffffff;stroke:#4d4d4d;stroke-width:1.649;stroke-linecap:round;stroke-linejoin:round"
       d="m 88.440949,15.914861 a 2.8757164,2.8757181 0 0 1 2.862215,-2.889068 2.8757164,2.8757181 0 0 1 2.889122,2.862167 2.8757164,2.8757181 0 0 1 -2.862082,2.889206 2.8757164,2.8757181 0 0 1 -2.889255,-2.862028" />
    <path
       id="path43828-0-1-2"
       style="fill:#4d4d4d;fill-opacity:1;stroke:#4d4d4d;stroke-width:1.649;stroke-linecap:round;stroke-linejoin:round"
       d="m 137.10198,32.834764 a 2.8757164,2.8757181 0 0 1 2.86221,-2.889068 2.8757164,2.8757181 0 0 1 2.88912,2.862167 2.8757164,2.8757181 0 0 1 -2.86208,2.889206 2.8757164,2.8757181 0 0 1 -2.88925,-2.862028" />
    <path
       style="fill:none;stroke:#808080;stroke-width:1.881;stroke-linecap:round;stroke-linejoin:round;stroke-dasharray:none;stroke-opacity:1"
       d="m 54.628525,33.82813 c 2.07566,5.5252 3.37134,11.566188 6.08496,16.680016 3.34817,5.289082 9.04245,7.011364 14.21454,6.56962 15.35369,-0.03812 30.707455,-0.003 46.061245,-0.01521"
       id="path43752-8-5" />
    <path
       style="fill:none;stroke:#808080;stroke-width:1.881;stroke-linecap:round;stroke-linejoin:round;stroke-dasharray:none;stroke-opacity:1"
       d="m 159.18366,33.747298 c -2.07566,5.5252 -3.37134,11.566188 -6.08497,16.680016 -3.3482,5.289082 -9.0425,7.011364 -14.21462,6.56962 -15.35379,-0.03812 -30.70769,-0.003 -46.061502,-0.01521"
       id="path43752-8-2-7" />
    <path
       id="path43828-0-6"
       style="fill:#ffffff;stroke:#4d4d4d;stroke-width:1.649;stroke-linecap:round;stroke-linejoin:round"
       d="m 52.136885,33.057373 a 2.8757164,2.8757181 0 0 0 2.86224,2.889068 2.8757164,2.8757181 0 0 0 2.88913,-2.862167 2.8757164,2.8757181 0 0 0 -2.86209,-2.889206 2.8757164,2.8757181 0 0 0 -2.88928,2.862028" />
    <path
       id="path43828-0-1-7"
       style="fill:#ffffff;stroke:#4d4d4d;stroke-width:1.649;stroke-linecap:round;stroke-linejoin:round"
       d="m 94.511867,57.028463 a 2.8757164,2.8757181 0 0 0 2.86221,2.889068 2.8757164,2.8757181 0 0 0 2.889133,-2.862167 2.8757164,2.8757181 0 0 0 -2.862093,-2.889206 2.8757164,2.8757181 0 0 0 -2.88925,2.862028" />
    <g
       aria-label="A"
       id="text50029"
       style="font-weight:bold;font-size:4.00025px;font-family:'Helvetica Neue';-inkscape-font-specification:'Helvetica Neue Bold';text-align:center;text-anchor:middle;fill:#ffffff;stroke-width:2.4181;stroke-linecap:round;stroke-linejoin:round">
      <path
         d="m 139.54019,32.900711 0.37203,-1.048066 h 0.008 l 0.36002,1.048066 z m 0.06,-1.75211 -1.08007,2.856179 h 0.63204 l 0.22401,-0.63604 h 1.06807 l 0.21601,0.63604 h 0.65204 l -1.06806,-2.856179 z"
         id="path50087" />
    </g>
    <path
       id="path43828-0-1-2-5"
       style="fill:#4d4d4d;fill-opacity:1;stroke:#4d4d4d;stroke-width:1.649;stroke-linecap:round;stroke-linejoin:round"
       d="m 156.09366,32.816576 a 2.8757164,2.8757181 0 0 1 2.86221,-2.889068 2.8757164,2.8757181 0 0 1 2.88912,2.862167 2.8757164,2.8757181 0 0 1 -2.86208,2.889206 2.8757164,2.8757181 0 0 1 -2.88925,-2.862028" />
    <g
       aria-label="B"
       id="text50029-0"
       style="font-weight:bold;font-size:4.00025px;font-family:'Helvetica Neue';-inkscape-font-specification:'Helvetica Neue Bold';text-align:center;text-anchor:middle;fill:#ffffff;stroke-width:2.4181;stroke-linecap:round;stroke-linejoin:round">
      <path
         d="m 158.40186,32.286485 v -0.668042 h 0.58803 q 0.084,0 0.16001,0.016 0.08,0.012 0.14001,0.048 0.06,0.036 0.096,0.100007 0.036,0.064 0.036,0.16401 0,0.180011 -0.10801,0.260016 -0.108,0.08 -0.27602,0.08 z m -0.62804,-1.156072 v 2.856178 h 1.38408 q 0.19201,0 0.37203,-0.048 0.18401,-0.048 0.32402,-0.148009 0.144,-0.100006 0.22801,-0.256016 0.084,-0.16001 0.084,-0.376023 0,-0.268017 -0.13201,-0.456029 -0.12801,-0.192012 -0.39203,-0.268017 0.19201,-0.09201 0.28802,-0.236014 0.10001,-0.144009 0.10001,-0.360023 0,-0.200012 -0.068,-0.336021 -0.064,-0.136008 -0.18401,-0.216013 -0.12001,-0.08401 -0.28802,-0.120008 -0.16801,-0.036 -0.37202,-0.036 z m 0.62804,2.368148 v -0.784049 h 0.68404 q 0.20401,0 0.32802,0.09601 0.12401,0.09201 0.12401,0.312019 0,0.112007 -0.04,0.184012 -0.036,0.072 -0.1,0.116007 -0.064,0.04 -0.14801,0.06 -0.084,0.016 -0.17601,0.016 z"
         id="path50090" />
    </g>
    <g
       aria-label="Merge."
       id="text50065"
       style="font-weight:bold;font-size:2.82223px;font-family:'Helvetica Neue';-inkscape-font-specification:'Helvetica Neue Bold';text-align:center;text-anchor:middle;fill:#333333;stroke-width:1.706;stroke-linecap:round;stroke-linejoin:round"
       transform="translate(0,-26.987511)">
      <path
         d="m 16.627963,90.506755 v 2.015073 H 17.04283 V 91.10789 h 0.0056 l 0.49389,1.413938 h 0.34149 l 0.49389,-1.428049 h 0.0056 v 1.428049 h 0.414867 v -2.015073 h -0.623712 l -0.445913,1.385715 h -0.0056 l -0.471313,-1.385715 z"
         id="path50093" />
      <path
         d="m 20.127527,91.635647 h -0.651935 q 0.0028,-0.04233 0.01693,-0.09596 0.01693,-0.05362 0.05362,-0.101601 0.03951,-0.04798 0.101601,-0.07902 0.06491,-0.03387 0.160867,-0.03387 0.146756,0 0.217311,0.07902 0.07338,0.07902 0.101601,0.231422 z m -0.651935,0.254001 h 1.052691 q 0.01129,-0.169334 -0.02822,-0.324556 -0.03951,-0.155223 -0.129823,-0.276579 -0.08749,-0.121356 -0.225778,-0.191912 -0.138289,-0.07338 -0.324556,-0.07338 -0.166512,0 -0.304801,0.05927 -0.135467,0.05927 -0.234245,0.16369 -0.09878,0.1016 -0.152401,0.242711 -0.05362,0.141112 -0.05362,0.304801 0,0.169334 0.0508,0.310446 0.05362,0.141111 0.149578,0.242711 0.09596,0.101601 0.234245,0.158045 0.13829,0.05362 0.310446,0.05362 0.248356,0 0.423334,-0.11289 0.174978,-0.112889 0.259645,-0.375356 h -0.352778 q -0.01976,0.06773 -0.107245,0.129822 -0.08749,0.05927 -0.208845,0.05927 -0.169334,0 -0.259645,-0.08749 -0.09031,-0.08749 -0.09878,-0.282223 z"
         id="path50095" />
      <path
         d="m 20.765349,91.062735 v 1.459093 h 0.400757 v -0.65758 q 0,-0.09878 0.01975,-0.183445 0.01976,-0.08467 0.06491,-0.146756 0.04798,-0.06491 0.124178,-0.1016 0.0762,-0.03669 0.186267,-0.03669 0.03669,0 0.0762,0.0056 0.03951,0.0028 0.06773,0.0085 v -0.372534 q -0.04798,-0.01411 -0.08749,-0.01411 -0.0762,0 -0.146755,0.02258 -0.07056,0.02258 -0.132645,0.06491 -0.06209,0.03951 -0.110067,0.09878 -0.04798,0.05644 -0.0762,0.124178 h -0.0056 v -0.270934 z"
         id="path50097" />
      <path
         d="m 22.464326,92.177516 q -0.09313,0 -0.155222,-0.03951 -0.06209,-0.03951 -0.101601,-0.1016 -0.03669,-0.06209 -0.05362,-0.138289 -0.01411,-0.07902 -0.01411,-0.158045 0,-0.08185 0.01693,-0.155223 0.01976,-0.0762 0.05927,-0.132645 0.04233,-0.05927 0.1016,-0.09313 0.06209,-0.03387 0.146756,-0.03387 0.09878,0 0.16369,0.03669 0.06491,0.03669 0.104422,0.09878 0.03951,0.06209 0.05645,0.143934 0.01693,0.07902 0.01693,0.169334 0,0.07902 -0.02258,0.1524 -0.01975,0.07056 -0.06209,0.127001 -0.04233,0.05644 -0.107245,0.09031 -0.06491,0.03387 -0.149578,0.03387 z m 0.722491,0.251178 v -1.365959 h -0.381001 v 0.194734 h -0.0056 q -0.07338,-0.127001 -0.183445,-0.180623 -0.107245,-0.05362 -0.251179,-0.05362 -0.1524,0 -0.270934,0.05927 -0.115711,0.05927 -0.194734,0.160867 -0.07902,0.09878 -0.121356,0.231423 -0.03951,0.129823 -0.03951,0.270934 0,0.149579 0.03387,0.285046 0.03669,0.132644 0.112889,0.234245 0.0762,0.09878 0.194734,0.158045 0.118534,0.05644 0.282223,0.05644 0.132645,0 0.251178,-0.05362 0.121356,-0.05644 0.186268,-0.172156 h 0.0056 v 0.191911 q 0.0028,0.155223 -0.0762,0.256823 -0.0762,0.101601 -0.245534,0.101601 -0.107245,0 -0.18909,-0.04516 -0.08184,-0.04233 -0.110067,-0.155223 h -0.397934 q 0.0085,0.124178 0.06773,0.211668 0.06209,0.09031 0.1524,0.146756 0.09313,0.05644 0.203201,0.08184 0.112889,0.02822 0.220134,0.02822 0.251178,0 0.400756,-0.06773 0.149578,-0.06773 0.228601,-0.166512 0.07902,-0.09596 0.1016,-0.208845 0.0254,-0.112889 0.0254,-0.200378 z"
         id="path50099" />
      <path
         d="m 24.490683,91.635647 h -0.651936 q 0.0028,-0.04233 0.01693,-0.09596 0.01693,-0.05362 0.05362,-0.101601 0.03951,-0.04798 0.1016,-0.07902 0.06491,-0.03387 0.160868,-0.03387 0.146755,0 0.217311,0.07902 0.07338,0.07902 0.101601,0.231422 z m -0.651936,0.254001 h 1.052692 q 0.01129,-0.169334 -0.02822,-0.324556 -0.03951,-0.155223 -0.129823,-0.276579 -0.08749,-0.121356 -0.225778,-0.191912 -0.138289,-0.07338 -0.324557,-0.07338 -0.166511,0 -0.3048,0.05927 -0.135467,0.05927 -0.234246,0.16369 -0.09878,0.1016 -0.1524,0.242711 -0.05362,0.141112 -0.05362,0.304801 0,0.169334 0.0508,0.310446 0.05362,0.141111 0.149578,0.242711 0.09596,0.101601 0.234245,0.158045 0.138289,0.05362 0.310445,0.05362 0.248357,0 0.423335,-0.11289 0.174978,-0.112889 0.259645,-0.375356 H 24.51326 q -0.01975,0.06773 -0.107244,0.129822 -0.08749,0.05927 -0.208845,0.05927 -0.169334,0 -0.259646,-0.08749 -0.09031,-0.08749 -0.09878,-0.282223 z"
         id="path50101" />
      <path
         d="m 25.145438,92.087204 v 0.434624 h 0.44309 v -0.434624 z"
         id="path50103" />
    </g>
  </g>
</svg>
