<svg
   width="227mm"
   height="25mm"
   viewBox="0 0 227 25"
   version="1.1"
   id="svg55735"
   inkscape:version="1.2.2 (b0a84865, 2022-12-01)"
   sodipodi:docname="iio-logo-header.svg"
   xmlns:inkscape="http://www.inkscape.org/namespaces/inkscape"
   xmlns:sodipodi="http://sodipodi.sourceforge.net/DTD/sodipodi-0.dtd"
   xmlns="http://www.w3.org/2000/svg"
   xmlns:svg="http://www.w3.org/2000/svg">
  <sodipodi:namedview
     id="namedview55737"
     pagecolor="#505050"
     bordercolor="#eeeeee"
     borderopacity="1"
     inkscape:showpageshadow="0"
     inkscape:pageopacity="0"
     inkscape:pagecheckerboard="0"
     inkscape:deskcolor="#505050"
     inkscape:document-units="mm"
     showgrid="false"
     inkscape:zoom="1.28"
     inkscape:cx="311.71875"
     inkscape:cy="114.45313"
     inkscape:window-width="1295"
     inkscape:window-height="689"
     inkscape:window-x="175"
     inkscape:window-y="66"
     inkscape:window-maximized="0"
     inkscape:current-layer="layer1" />
  <defs
     id="defs55732" />
  <g
     inkscape:label="Layer 1"
     inkscape:groupmode="layer"
     id="layer1">
    <g
       aria-label="IIO"
       id="text344"
       style="font-weight:bold;font-size:13.584px;font-family:'Helvetica Neue';-inkscape-font-specification:'Helvetica Neue Bold';fill:#aa8800;stroke:#000000;stroke-width:0.842848;stroke-opacity:0.938567">
      <path
         d="M 0.39741677,7.1768463 V 16.875822 H 2.5301047 V 7.1768463 Z"
         style="stroke:none"
         id="path56284" />
      <path
         d="m 4.4046718,7.1768463 v 9.6989757 h 2.132688 V 7.1768463 Z"
         style="stroke:none"
         id="path56286" />
      <path
         d="m 10.123511,12.067086 q 0,-0.638448 0.13584,-1.236144 0.149424,-0.597696 0.461856,-1.0595517 0.312432,-0.47544 0.81504,-0.74712 0.502608,-0.285264 1.22256,-0.285264 0.719952,0 1.22256,0.285264 0.502608,0.27168 0.81504,0.74712 0.312432,0.4618557 0.448272,1.0595517 0.149424,0.597696 0.149424,1.236144 0,0.61128 -0.149424,1.195392 -0.13584,0.570528 -0.448272,1.032384 -0.312432,0.461856 -0.81504,0.74712 -0.502608,0.27168 -1.22256,0.27168 -0.719952,0 -1.22256,-0.27168 -0.502608,-0.285264 -0.81504,-0.74712 -0.312432,-0.461856 -0.461856,-1.032384 -0.13584,-0.584112 -0.13584,-1.195392 z m -2.1326881,0 q 0,1.059552 0.326016,1.983264 0.326016,0.910128 0.937296,1.589328 0.61128,0.6792 1.4942401,1.073136 0.896544,0.380352 2.010432,0.380352 1.127472,0 2.010432,-0.380352 0.88296,-0.393936 1.49424,-1.073136 0.61128,-0.6792 0.937296,-1.589328 0.326016,-0.923712 0.326016,-1.983264 0,-1.08672 -0.326016,-2.010432 -0.326016,-0.9372957 -0.937296,-1.6300797 -0.61128,-0.692784 -1.49424,-1.08672 -0.88296,-0.393936 -2.010432,-0.393936 -1.113888,0 -2.010432,0.393936 -0.8829601,0.393936 -1.4942401,1.08672 -0.61128,0.692784 -0.937296,1.6300797 -0.326016,0.923712 -0.326016,2.010432 z"
         style="stroke:none"
         id="path56288" />
    </g>
    <g
       aria-label="Universidad Galileo
Postgrado en Análisis y Predicción de Datos
Ciencia de Datos en Python
"
       id="text1108"
       style="font-weight:bold;font-size:3.012px;font-family:'Helvetica Neue';-inkscape-font-specification:'Helvetica Neue Bold';fill:#333333;stroke-width:0.186886;stroke-opacity:0.938567">
      <path
         d="M 21.721098,8.5569449 V 7.2196168 h -0.472884 v 1.3373281 q 0,0.24096 -0.09638,0.355416 -0.09638,0.111444 -0.349392,0.111444 -0.144576,0 -0.231924,-0.039156 -0.08434,-0.042168 -0.132528,-0.10542 -0.04819,-0.066264 -0.06325,-0.1506 -0.01506,-0.084336 -0.01506,-0.171684 V 7.2196168 h -0.472884 v 1.3373281 q 0,0.439752 0.237948,0.650592 0.24096,0.21084 0.6777,0.21084 0.430716,0 0.674688,-0.21084 0.243972,-0.213852 0.243972,-0.650592 z"
         id="path55961" />
      <path
         d="m 22.082536,7.8129809 v 1.557204 h 0.427704 v -0.816252 q 0,-0.237948 0.07831,-0.340356 0.07831,-0.10542 0.253008,-0.10542 0.153612,0 0.213852,0.096384 0.06024,0.093372 0.06024,0.28614 v 0.879504 h 0.427704 v -0.957816 q 0,-0.144576 -0.02711,-0.262044 -0.0241,-0.12048 -0.08735,-0.201804 -0.06325,-0.084336 -0.174696,-0.129516 -0.108432,-0.048192 -0.280116,-0.048192 -0.13554,0 -0.265056,0.063252 -0.129516,0.06024 -0.21084,0.19578 h -0.009 v -0.216864 z"
         id="path55963" />
      <path
         d="m 24.3084,7.5720208 v -0.352404 h -0.427704 v 0.352404 z m -0.427704,0.2409601 v 1.557204 H 24.3084 v -1.557204 z"
         id="path55965" />
      <path
         d="m 25.507174,9.3701849 0.5271,-1.557204 h -0.424692 l -0.328308,1.063236 h -0.006 l -0.328332,-1.063236 h -0.448788 l 0.533124,1.557204 z"
         id="path55967" />
      <path
         d="m 27.260154,8.4244169 h -0.695772 q 0.003,-0.04518 0.01807,-0.102408 0.01807,-0.057228 0.05723,-0.108432 0.04217,-0.051204 0.108432,-0.084336 0.06928,-0.036144 0.171684,-0.036144 0.156624,0 0.231924,0.084336 0.07831,0.084336 0.108432,0.246984 z m -0.695772,0.27108 h 1.123476 q 0.01205,-0.18072 -0.03012,-0.34638 -0.04217,-0.16566 -0.138552,-0.295176 -0.09337,-0.129516 -0.24096,-0.204816 -0.147588,-0.078312 -0.34638,-0.078312 -0.177708,0 -0.325296,0.063252 -0.144576,0.063252 -0.249996,0.174696 -0.10542,0.108432 -0.162648,0.259032 -0.05723,0.1506 -0.05723,0.325296 0,0.18072 0.05422,0.33132 0.05723,0.1506 0.159636,0.259032 0.102408,0.108432 0.249996,0.168672 0.147588,0.057228 0.33132,0.057228 0.265056,0 0.4518,-0.12048 0.186744,-0.12048 0.277104,-0.400596 h -0.3765 q -0.02108,0.072288 -0.114456,0.138552 -0.09337,0.063252 -0.222888,0.063252 -0.18072,0 -0.277104,-0.093372 -0.09638,-0.093372 -0.10542,-0.3012 z"
         id="path55969" />
      <path
         d="m 27.940864,7.8129809 v 1.557204 h 0.427704 v -0.701796 q 0,-0.10542 0.02108,-0.19578 0.02108,-0.09036 0.06928,-0.156624 0.0512,-0.069276 0.132528,-0.108432 0.08132,-0.039156 0.198792,-0.039156 0.03916,0 0.08132,0.00602 0.04217,0.00301 0.07229,0.00904 v -0.397584 q -0.0512,-0.01506 -0.09337,-0.01506 -0.08132,0 -0.156624,0.024096 -0.0753,0.024096 -0.141564,0.069276 -0.06626,0.042168 -0.117468,0.10542 -0.0512,0.06024 -0.08132,0.132528 h -0.006 v -0.289152 z"
         id="path55971" />
      <path
         d="m 29.443852,8.8641689 h -0.40662 q 0.006,0.156624 0.06928,0.262044 0.06626,0.102408 0.16566,0.16566 0.102408,0.063252 0.231924,0.09036 0.129516,0.027108 0.265056,0.027108 0.132528,0 0.259032,-0.027108 0.129516,-0.024096 0.228912,-0.087348 0.0994,-0.063252 0.159636,-0.16566 0.06325,-0.10542 0.06325,-0.259032 0,-0.108432 -0.04217,-0.18072 -0.04217,-0.0753 -0.111444,-0.123492 -0.06928,-0.051204 -0.159636,-0.081324 -0.08735,-0.03012 -0.18072,-0.051204 -0.09036,-0.021084 -0.177708,-0.039156 -0.08735,-0.018072 -0.156624,-0.039156 -0.06626,-0.024096 -0.108432,-0.06024 -0.04217,-0.036144 -0.04217,-0.093372 0,-0.048192 0.0241,-0.0753 0.0241,-0.03012 0.05723,-0.04518 0.03614,-0.01506 0.07831,-0.018072 0.04217,-0.00602 0.07831,-0.00602 0.114456,0 0.198792,0.04518 0.08434,0.042168 0.09337,0.16566 h 0.40662 q -0.01205,-0.144576 -0.0753,-0.237948 -0.06024,-0.096384 -0.153612,-0.153612 -0.09337,-0.057228 -0.213852,-0.081324 -0.117468,-0.024096 -0.243972,-0.024096 -0.126504,0 -0.246984,0.024096 -0.12048,0.021084 -0.216864,0.078312 -0.09638,0.054216 -0.156624,0.1506 -0.05723,0.096384 -0.05723,0.246984 0,0.102408 0.04217,0.174696 0.04217,0.069276 0.111444,0.117468 0.06928,0.04518 0.156624,0.0753 0.09036,0.027108 0.183732,0.048192 0.228912,0.048192 0.355416,0.096384 0.129516,0.048192 0.129516,0.144576 0,0.057228 -0.02711,0.096384 -0.02711,0.036144 -0.06928,0.06024 -0.03916,0.021084 -0.09036,0.033132 -0.04819,0.00904 -0.09337,0.00904 -0.06325,0 -0.123492,-0.01506 -0.05723,-0.01506 -0.102408,-0.04518 -0.04518,-0.033132 -0.0753,-0.081324 -0.02711,-0.051204 -0.02711,-0.12048 z"
         id="path55973" />
      <path
         d="M 31.169724,7.5720208 V 7.2196168 H 30.74202 v 0.352404 z M 30.74202,7.8129809 v 1.557204 h 0.427704 v -1.557204 z"
         id="path55975" />
      <path
         d="m 32.61247,8.5870649 q 0,0.096384 -0.01807,0.186744 -0.01807,0.09036 -0.06024,0.162648 -0.04217,0.069276 -0.114456,0.111444 -0.06928,0.042168 -0.174696,0.042168 -0.0994,0 -0.171684,-0.042168 -0.06928,-0.04518 -0.117468,-0.114456 -0.04518,-0.072288 -0.06626,-0.162648 -0.02108,-0.09036 -0.02108,-0.18072 0,-0.096384 0.01807,-0.183732 0.02108,-0.09036 0.06325,-0.159636 0.04518,-0.069276 0.117468,-0.111444 0.07229,-0.042168 0.177708,-0.042168 0.10542,0 0.174696,0.042168 0.06928,0.042168 0.111444,0.111444 0.04518,0.066264 0.06325,0.156624 0.01807,0.087348 0.01807,0.183732 z m 0.006,0.584328 v 0.198792 h 0.40662 V 7.2196168 h -0.427704 v 0.7831201 h -0.006 q -0.07229,-0.114456 -0.198792,-0.171684 -0.123492,-0.06024 -0.262044,-0.06024 -0.171684,0 -0.3012,0.069276 -0.129516,0.066264 -0.216864,0.177708 -0.08434,0.111444 -0.129516,0.259032 -0.04217,0.144576 -0.04217,0.3012 0,0.162648 0.04217,0.313248 0.04518,0.1506 0.129516,0.268068 0.08735,0.114456 0.219876,0.183732 0.132528,0.066264 0.307224,0.066264 0.153612,0 0.274092,-0.054216 0.123492,-0.057228 0.198792,-0.183732 z"
         id="path55977" />
      <path
         d="m 33.32932,8.2918889 q 0.009,-0.1506 0.0753,-0.249996 0.06626,-0.099396 0.168672,-0.159636 0.102408,-0.06024 0.228912,-0.084336 0.129516,-0.027108 0.259032,-0.027108 0.117468,0 0.237948,0.018072 0.12048,0.01506 0.219876,0.063252 0.0994,0.048192 0.162648,0.13554 0.06325,0.084336 0.06325,0.2259 v 0.810228 q 0,0.10542 0.01205,0.201804 0.01205,0.096384 0.04217,0.144576 H 34.36545 q -0.01205,-0.036144 -0.02108,-0.072288 -0.006,-0.039156 -0.009,-0.078312 -0.102408,0.10542 -0.24096,0.147588 -0.138552,0.042168 -0.283128,0.042168 -0.111444,0 -0.207828,-0.027108 -0.09638,-0.027108 -0.168672,-0.084336 -0.07229,-0.057228 -0.114456,-0.144576 -0.03916,-0.087348 -0.03916,-0.207828 0,-0.132528 0.04518,-0.216864 0.04819,-0.087348 0.12048,-0.138552 0.0753,-0.051204 0.168672,-0.0753 0.09638,-0.027108 0.192768,-0.042168 0.09638,-0.01506 0.189756,-0.024096 0.09337,-0.00904 0.16566,-0.027108 0.07229,-0.018072 0.114456,-0.051204 0.04217,-0.036144 0.03916,-0.102408 0,-0.069276 -0.0241,-0.108432 -0.02108,-0.042168 -0.06024,-0.063252 -0.03614,-0.024096 -0.08735,-0.03012 -0.04819,-0.00904 -0.10542,-0.00904 -0.126504,0 -0.198792,0.054216 -0.07229,0.054216 -0.08434,0.18072 z m 0.987936,0.31626 q -0.02711,0.024096 -0.06928,0.039156 -0.03916,0.012048 -0.08735,0.021084 -0.04518,0.00904 -0.09638,0.01506 -0.0512,0.00602 -0.102408,0.01506 -0.04819,0.00904 -0.09638,0.024096 -0.04518,0.01506 -0.08132,0.042168 -0.03313,0.024096 -0.05422,0.063252 -0.02108,0.039156 -0.02108,0.099396 0,0.057228 0.02108,0.096384 0.02108,0.039156 0.05723,0.063252 0.03614,0.021084 0.08434,0.03012 0.04819,0.00904 0.0994,0.00904 0.126504,0 0.19578,-0.042168 0.06928,-0.042168 0.102408,-0.099396 0.03313,-0.06024 0.03916,-0.12048 0.009,-0.06024 0.009,-0.096384 z"
         id="path55979" />
      <path
         d="m 36.181683,8.5870649 q 0,0.096384 -0.01807,0.186744 -0.01807,0.09036 -0.06024,0.162648 -0.04217,0.069276 -0.114456,0.111444 -0.06928,0.042168 -0.174696,0.042168 -0.0994,0 -0.171684,-0.042168 -0.06928,-0.04518 -0.117468,-0.114456 -0.04518,-0.072288 -0.06626,-0.162648 -0.02108,-0.09036 -0.02108,-0.18072 0,-0.096384 0.01807,-0.183732 0.02108,-0.09036 0.06325,-0.159636 0.04518,-0.069276 0.117468,-0.111444 0.07229,-0.042168 0.177708,-0.042168 0.10542,0 0.174696,0.042168 0.06928,0.042168 0.111444,0.111444 0.04518,0.066264 0.06325,0.156624 0.01807,0.087348 0.01807,0.183732 z m 0.006,0.584328 v 0.198792 h 0.40662 V 7.2196168 h -0.427704 v 0.7831201 h -0.006 q -0.07229,-0.114456 -0.198792,-0.171684 -0.123492,-0.06024 -0.262044,-0.06024 -0.171684,0 -0.3012,0.069276 -0.129516,0.066264 -0.216864,0.177708 -0.08434,0.111444 -0.129516,0.259032 -0.04217,0.144576 -0.04217,0.3012 0,0.162648 0.04217,0.313248 0.04518,0.1506 0.129516,0.268068 0.08735,0.114456 0.219876,0.183732 0.132528,0.066264 0.307224,0.066264 0.153612,0 0.274092,-0.054216 0.123492,-0.057228 0.198792,-0.183732 z"
         id="path55981" />
      <path
         d="m 39.353314,9.1262129 0.04819,0.243972 h 0.3012 v -1.162632 h -0.9036 v 0.352404 H 39.275 q -0.02108,0.2259 -0.1506,0.34638 -0.126504,0.117468 -0.36144,0.117468 -0.159636,0 -0.27108,-0.06024 -0.111444,-0.063252 -0.18072,-0.16566 -0.06928,-0.102408 -0.102408,-0.228912 -0.03012,-0.129516 -0.03012,-0.265056 0,-0.141564 0.03012,-0.274092 0.03313,-0.132528 0.102408,-0.234936 0.06928,-0.10542 0.18072,-0.1656601 0.111444,-0.063252 0.27108,-0.063252 0.171684,0 0.292164,0.09036 0.12048,0.09036 0.162648,0.27108 h 0.4518 q -0.01807,-0.183732 -0.0994,-0.3252961 -0.08132,-0.141564 -0.207828,-0.237948 -0.123492,-0.096384 -0.280116,-0.144576 -0.153612,-0.051204 -0.319272,-0.051204 -0.246984,0 -0.445776,0.087348 -0.19578,0.087348 -0.33132,0.24096 -0.13554,0.1536121 -0.207828,0.3614401 -0.07229,0.204816 -0.07229,0.445776 0,0.234936 0.07229,0.439752 0.07229,0.201804 0.207828,0.352404 0.13554,0.1506 0.33132,0.237948 0.198792,0.084336 0.445776,0.084336 0.156624,0 0.310236,-0.063252 0.153612,-0.066264 0.280116,-0.228912 z"
         id="path55983" />
      <path
         d="m 40.021974,8.2918889 q 0.009,-0.1506 0.0753,-0.249996 0.06626,-0.099396 0.168672,-0.159636 0.102408,-0.06024 0.228912,-0.084336 0.129516,-0.027108 0.259032,-0.027108 0.117468,0 0.237948,0.018072 0.12048,0.01506 0.219876,0.063252 0.0994,0.048192 0.162648,0.13554 0.06325,0.084336 0.06325,0.2259 v 0.810228 q 0,0.10542 0.01205,0.201804 0.01205,0.096384 0.04217,0.144576 h -0.43373 q -0.01205,-0.036144 -0.02108,-0.072288 -0.006,-0.039156 -0.009,-0.078312 -0.102408,0.10542 -0.24096,0.147588 -0.138552,0.042168 -0.283128,0.042168 -0.111444,0 -0.207828,-0.027108 -0.09638,-0.027108 -0.168672,-0.084336 -0.07229,-0.057228 -0.114456,-0.144576 -0.03916,-0.087348 -0.03916,-0.207828 0,-0.132528 0.04518,-0.216864 0.04819,-0.087348 0.12048,-0.138552 0.0753,-0.051204 0.168672,-0.0753 0.09638,-0.027108 0.192768,-0.042168 0.09638,-0.01506 0.189756,-0.024096 0.09337,-0.00904 0.16566,-0.027108 0.07229,-0.018072 0.114456,-0.051204 0.04217,-0.036144 0.03916,-0.102408 0,-0.069276 -0.0241,-0.108432 -0.02108,-0.042168 -0.06024,-0.063252 -0.03614,-0.024096 -0.08735,-0.03012 -0.04819,-0.00904 -0.10542,-0.00904 -0.126504,0 -0.198792,0.054216 -0.07229,0.054216 -0.08434,0.18072 z m 0.987936,0.31626 q -0.02711,0.024096 -0.06928,0.039156 -0.03916,0.012048 -0.08735,0.021084 -0.04518,0.00904 -0.09638,0.01506 -0.0512,0.00602 -0.102408,0.01506 -0.04819,0.00904 -0.09638,0.024096 -0.04518,0.01506 -0.08132,0.042168 -0.03313,0.024096 -0.05422,0.063252 -0.02108,0.039156 -0.02108,0.099396 0,0.057228 0.02108,0.096384 0.02108,0.039156 0.05723,0.063252 0.03614,0.021084 0.08434,0.03012 0.04819,0.00904 0.0994,0.00904 0.126504,0 0.19578,-0.042168 0.06928,-0.042168 0.102408,-0.099396 0.03313,-0.06024 0.03916,-0.12048 0.009,-0.06024 0.009,-0.096384 z"
         id="path55985" />
      <path
         d="m 41.78098,7.2196168 v 2.1505681 h 0.427704 V 7.2196168 Z"
         id="path55987" />
      <path
         d="m 42.985778,7.5720208 v -0.352404 h -0.427704 v 0.352404 z m -0.427704,0.2409601 v 1.557204 h 0.427704 v -1.557204 z"
         id="path55989" />
      <path
         d="m 43.335169,7.2196168 v 2.1505681 h 0.427704 V 7.2196168 Z"
         id="path55991" />
      <path
         d="m 45.148391,8.4244169 h -0.695772 q 0.003,-0.04518 0.01807,-0.102408 0.01807,-0.057228 0.05723,-0.108432 0.04217,-0.051204 0.108432,-0.084336 0.06928,-0.036144 0.171684,-0.036144 0.156624,0 0.231924,0.084336 0.07831,0.084336 0.108432,0.246984 z m -0.695772,0.27108 h 1.123476 q 0.01205,-0.18072 -0.03012,-0.34638 -0.04217,-0.16566 -0.138552,-0.295176 -0.09337,-0.129516 -0.24096,-0.204816 -0.147588,-0.078312 -0.34638,-0.078312 -0.177708,0 -0.325296,0.063252 -0.144576,0.063252 -0.249996,0.174696 -0.10542,0.108432 -0.162648,0.259032 -0.05723,0.1506 -0.05723,0.325296 0,0.18072 0.05422,0.33132 0.05723,0.1506 0.159636,0.259032 0.102408,0.108432 0.249996,0.168672 0.147588,0.057228 0.33132,0.057228 0.265056,0 0.4518,-0.12048 0.186744,-0.12048 0.277104,-0.400596 h -0.3765 q -0.02108,0.072288 -0.114456,0.138552 -0.09337,0.063252 -0.222888,0.063252 -0.18072,0 -0.277104,-0.093372 -0.09638,-0.093372 -0.10542,-0.3012 z"
         id="path55993" />
      <path
         d="m 46.208613,8.5930889 q 0,-0.093372 0.01807,-0.183732 0.01807,-0.09036 0.06024,-0.159636 0.04518,-0.069276 0.117468,-0.111444 0.07229,-0.04518 0.18072,-0.04518 0.108432,0 0.18072,0.04518 0.0753,0.042168 0.117468,0.111444 0.04518,0.069276 0.06325,0.159636 0.01807,0.09036 0.01807,0.183732 0,0.093372 -0.01807,0.183732 -0.01807,0.087348 -0.06325,0.159636 -0.04217,0.069276 -0.117468,0.111444 -0.07229,0.042168 -0.18072,0.042168 -0.108432,0 -0.18072,-0.042168 -0.07229,-0.042168 -0.117468,-0.111444 -0.04217,-0.072288 -0.06024,-0.159636 -0.01807,-0.09036 -0.01807,-0.183732 z m -0.427704,0 q 0,0.186744 0.05723,0.337344 0.05723,0.1506 0.162648,0.259032 0.10542,0.10542 0.253008,0.162648 0.147588,0.057228 0.33132,0.057228 0.183732,0 0.33132,-0.057228 0.1506,-0.057228 0.25602,-0.162648 0.10542,-0.108432 0.162648,-0.259032 0.05723,-0.1506 0.05723,-0.337344 0,-0.186744 -0.05723,-0.337344 -0.05723,-0.153612 -0.162648,-0.259032 -0.10542,-0.108432 -0.25602,-0.16566 -0.147588,-0.06024 -0.33132,-0.06024 -0.183732,0 -0.33132,0.06024 -0.147588,0.057228 -0.253008,0.16566 -0.10542,0.10542 -0.162648,0.259032 -0.05723,0.1506 -0.05723,0.337344 z"
         id="path55995" />
      <path
         d="m 20.36871,11.996649 v -0.644568 h 0.367464 q 0.08132,0 0.156624,0.01205 0.0753,0.01205 0.132528,0.04819 0.05723,0.03313 0.09036,0.09638 0.03614,0.06325 0.03614,0.16566 0,0.102408 -0.03614,0.16566 -0.03313,0.06325 -0.09036,0.0994 -0.05723,0.03313 -0.132528,0.04518 -0.0753,0.01205 -0.156624,0.01205 z m -0.472884,-1.012032 v 2.150568 h 0.472884 v -0.771072 h 0.49698 q 0.201804,0 0.343368,-0.05723 0.141564,-0.06024 0.228912,-0.156624 0.09036,-0.09638 0.129516,-0.219876 0.04217,-0.126504 0.04217,-0.25602 0,-0.132528 -0.04217,-0.25602 -0.03916,-0.123492 -0.129516,-0.219876 -0.08735,-0.09638 -0.228912,-0.153612 -0.141564,-0.06024 -0.343368,-0.06024 z"
         id="path55997" />
      <path
         d="m 22.239162,12.358089 q 0,-0.09337 0.01807,-0.183732 0.01807,-0.09036 0.06024,-0.159636 0.04518,-0.06928 0.117468,-0.111444 0.07229,-0.04518 0.18072,-0.04518 0.108432,0 0.18072,0.04518 0.0753,0.04217 0.117468,0.111444 0.04518,0.06928 0.06325,0.159636 0.01807,0.09036 0.01807,0.183732 0,0.09337 -0.01807,0.183732 -0.01807,0.08735 -0.06325,0.159636 -0.04217,0.06928 -0.117468,0.111444 -0.07229,0.04217 -0.18072,0.04217 -0.108432,0 -0.18072,-0.04217 -0.07229,-0.04217 -0.117468,-0.111444 -0.04217,-0.07229 -0.06024,-0.159636 -0.01807,-0.09036 -0.01807,-0.183732 z m -0.427704,0 q 0,0.186744 0.05723,0.337344 0.05723,0.1506 0.162648,0.259032 0.10542,0.10542 0.253008,0.162648 0.147588,0.05723 0.33132,0.05723 0.183732,0 0.33132,-0.05723 0.1506,-0.05723 0.25602,-0.162648 0.10542,-0.108432 0.162648,-0.259032 0.05723,-0.1506 0.05723,-0.337344 0,-0.186744 -0.05723,-0.337344 -0.05723,-0.153612 -0.162648,-0.259032 -0.10542,-0.108432 -0.25602,-0.16566 -0.147588,-0.06024 -0.33132,-0.06024 -0.183732,0 -0.33132,0.06024 -0.147588,0.05723 -0.253008,0.16566 -0.10542,0.10542 -0.162648,0.259032 -0.05723,0.1506 -0.05723,0.337344 z"
         id="path55999" />
      <path
         d="m 24.031296,12.629169 h -0.40662 q 0.006,0.156624 0.06928,0.262044 0.06626,0.102408 0.16566,0.16566 0.102408,0.06325 0.231924,0.09036 0.129516,0.02711 0.265056,0.02711 0.132528,0 0.259032,-0.02711 0.129516,-0.0241 0.228912,-0.08735 0.0994,-0.06325 0.159636,-0.16566 0.06325,-0.10542 0.06325,-0.259032 0,-0.108432 -0.04217,-0.18072 -0.04217,-0.0753 -0.111444,-0.123492 -0.06928,-0.0512 -0.159636,-0.08132 -0.08735,-0.03012 -0.18072,-0.0512 -0.09036,-0.02108 -0.177708,-0.03916 -0.08735,-0.01807 -0.156624,-0.03916 -0.06626,-0.0241 -0.108432,-0.06024 -0.04217,-0.03614 -0.04217,-0.09337 0,-0.04819 0.0241,-0.0753 0.0241,-0.03012 0.05723,-0.04518 0.03614,-0.01506 0.07831,-0.01807 0.04217,-0.006 0.07831,-0.006 0.114456,0 0.198792,0.04518 0.08434,0.04217 0.09337,0.16566 h 0.40662 q -0.01205,-0.144576 -0.0753,-0.237948 -0.06024,-0.09638 -0.153612,-0.153612 -0.09337,-0.05723 -0.213852,-0.08132 -0.117468,-0.0241 -0.243972,-0.0241 -0.126504,0 -0.246984,0.0241 -0.12048,0.02108 -0.216864,0.07831 -0.09638,0.05422 -0.156624,0.1506 -0.05723,0.09638 -0.05723,0.246984 0,0.102408 0.04217,0.174696 0.04217,0.06928 0.111444,0.117468 0.06928,0.04518 0.156624,0.0753 0.09036,0.02711 0.183732,0.04819 0.228912,0.04819 0.355416,0.09638 0.129516,0.04819 0.129516,0.144576 0,0.05723 -0.02711,0.09638 -0.02711,0.03614 -0.06928,0.06024 -0.03916,0.02108 -0.09036,0.03313 -0.04819,0.009 -0.09337,0.009 -0.06325,0 -0.123492,-0.01506 -0.05723,-0.01506 -0.102408,-0.04518 -0.04518,-0.03313 -0.0753,-0.08132 -0.02711,-0.0512 -0.02711,-0.12048 z"
         id="path56001" />
      <path
         d="m 25.859577,11.577981 v -0.46686 h -0.427704 v 0.46686 h -0.259032 v 0.28614 h 0.259032 v 0.91866 q 0,0.117468 0.03916,0.189756 0.03916,0.07229 0.10542,0.111444 0.06928,0.03916 0.156624,0.0512 0.09036,0.01506 0.189756,0.01506 0.06325,0 0.129516,-0.003 0.06626,-0.003 0.12048,-0.01205 v -0.33132 q -0.03012,0.006 -0.06325,0.009 -0.03313,0.003 -0.06928,0.003 -0.108432,0 -0.144576,-0.03614 -0.03614,-0.03614 -0.03614,-0.144576 v -0.771072 h 0.313248 v -0.28614 z"
         id="path56003" />
      <path
         d="m 27.10353,12.767721 q -0.0994,0 -0.16566,-0.04217 -0.06626,-0.04217 -0.108432,-0.108432 -0.03916,-0.06626 -0.05723,-0.147588 -0.01506,-0.08434 -0.01506,-0.168672 0,-0.08735 0.01807,-0.16566 0.02108,-0.08132 0.06325,-0.141564 0.04518,-0.06325 0.108432,-0.0994 0.06626,-0.03614 0.156624,-0.03614 0.10542,0 0.174696,0.03916 0.06928,0.03916 0.111444,0.10542 0.04217,0.06626 0.06024,0.153612 0.01807,0.08434 0.01807,0.18072 0,0.08434 -0.0241,0.162648 -0.02108,0.0753 -0.06626,0.13554 -0.04518,0.06024 -0.114456,0.09638 -0.06928,0.03614 -0.159636,0.03614 z m 0.771072,0.268068 v -1.457808 h -0.40662 v 0.207828 h -0.006 q -0.07831,-0.13554 -0.19578,-0.192768 -0.114456,-0.05723 -0.268068,-0.05723 -0.162648,0 -0.289152,0.06325 -0.123492,0.06325 -0.207828,0.171684 -0.08434,0.10542 -0.129516,0.246984 -0.04217,0.138552 -0.04217,0.289152 0,0.159636 0.03614,0.304212 0.03916,0.141564 0.12048,0.249996 0.08132,0.10542 0.207828,0.168672 0.126504,0.06024 0.3012,0.06024 0.141564,0 0.268068,-0.05723 0.129516,-0.06024 0.198792,-0.183732 h 0.006 v 0.204816 q 0.003,0.16566 -0.08132,0.274092 -0.08132,0.108432 -0.262044,0.108432 -0.114456,0 -0.201804,-0.04819 -0.08735,-0.04518 -0.117468,-0.16566 h -0.424692 q 0.009,0.132528 0.07229,0.2259 0.06626,0.09638 0.162648,0.156624 0.0994,0.06024 0.216864,0.08735 0.12048,0.03012 0.234936,0.03012 0.268068,0 0.427704,-0.07229 0.159636,-0.07229 0.243972,-0.177708 0.08434,-0.102408 0.108432,-0.222888 0.02711,-0.12048 0.02711,-0.213852 z"
         id="path56005" />
      <path
         d="m 28.217965,11.577981 v 1.557204 h 0.427704 v -0.701796 q 0,-0.10542 0.02108,-0.19578 0.02108,-0.09036 0.06928,-0.156624 0.0512,-0.06928 0.132528,-0.108432 0.08132,-0.03916 0.198792,-0.03916 0.03916,0 0.08132,0.006 0.04217,0.003 0.07229,0.009 v -0.397584 q -0.0512,-0.01506 -0.09337,-0.01506 -0.08132,0 -0.156625,0.0241 -0.0753,0.0241 -0.141564,0.06928 -0.06626,0.04217 -0.117468,0.10542 -0.0512,0.06024 -0.08132,0.132528 h -0.006 v -0.289152 z"
         id="path56007" />
      <path
         d="m 29.371561,12.056889 q 0.009,-0.1506 0.0753,-0.249996 0.06626,-0.0994 0.168672,-0.159636 0.102408,-0.06024 0.228912,-0.08434 0.129516,-0.02711 0.259032,-0.02711 0.117468,0 0.237948,0.01807 0.12048,0.01506 0.219876,0.06325 0.0994,0.04819 0.162648,0.13554 0.06325,0.08434 0.06325,0.2259 v 0.810228 q 0,0.10542 0.01205,0.201804 0.01205,0.09638 0.04217,0.144576 h -0.433728 q -0.01205,-0.03614 -0.02108,-0.07229 -0.006,-0.03916 -0.009,-0.07831 -0.102408,0.10542 -0.24096,0.147588 -0.138552,0.04217 -0.283128,0.04217 -0.111444,0 -0.207828,-0.02711 -0.09638,-0.02711 -0.168672,-0.08434 -0.07229,-0.05723 -0.114456,-0.144576 -0.03916,-0.08735 -0.03916,-0.207828 0,-0.132528 0.04518,-0.216864 0.04819,-0.08735 0.12048,-0.138552 0.0753,-0.0512 0.168672,-0.0753 0.09638,-0.02711 0.192768,-0.04217 0.09638,-0.01506 0.189756,-0.0241 0.09337,-0.009 0.16566,-0.02711 0.07229,-0.01807 0.114456,-0.0512 0.04217,-0.03614 0.03916,-0.102408 0,-0.06928 -0.0241,-0.108432 -0.02108,-0.04217 -0.06024,-0.06325 -0.03614,-0.0241 -0.08735,-0.03012 -0.04819,-0.009 -0.10542,-0.009 -0.126504,0 -0.198792,0.05422 -0.07229,0.05422 -0.08434,0.18072 z m 0.987936,0.31626 q -0.02711,0.0241 -0.06928,0.03916 -0.03916,0.01205 -0.08735,0.02108 -0.04518,0.009 -0.09638,0.01506 -0.0512,0.006 -0.102408,0.01506 -0.04819,0.009 -0.09638,0.0241 -0.04518,0.01506 -0.08132,0.04217 -0.03313,0.0241 -0.05422,0.06325 -0.02108,0.03916 -0.02108,0.0994 0,0.05723 0.02108,0.09638 0.02108,0.03916 0.05723,0.06325 0.03614,0.02108 0.08434,0.03012 0.04819,0.009 0.0994,0.009 0.126504,0 0.19578,-0.04217 0.06928,-0.04217 0.102408,-0.0994 0.03313,-0.06024 0.03916,-0.12048 0.009,-0.06024 0.009,-0.09638 z"
         id="path56009" />
      <path
         d="m 32.223923,12.352065 q 0,0.09638 -0.01807,0.186744 -0.01807,0.09036 -0.06024,0.162648 -0.04217,0.06928 -0.114456,0.111444 -0.06928,0.04217 -0.174696,0.04217 -0.0994,0 -0.171684,-0.04217 -0.06928,-0.04518 -0.117468,-0.114456 -0.04518,-0.07229 -0.06626,-0.162648 -0.02108,-0.09036 -0.02108,-0.18072 0,-0.09638 0.01807,-0.183732 0.02108,-0.09036 0.06325,-0.159636 0.04518,-0.06928 0.117468,-0.111444 0.07229,-0.04217 0.177708,-0.04217 0.10542,0 0.174696,0.04217 0.06928,0.04217 0.111444,0.111444 0.04518,0.06626 0.06325,0.156624 0.01807,0.08735 0.01807,0.183732 z m 0.006,0.584328 v 0.198792 h 0.40662 v -2.150568 h -0.427704 v 0.78312 h -0.006 q -0.07229,-0.114456 -0.198792,-0.171684 -0.123492,-0.06024 -0.262044,-0.06024 -0.171684,0 -0.3012,0.06928 -0.129516,0.06626 -0.216864,0.177708 -0.08434,0.111444 -0.129516,0.259032 -0.04217,0.144576 -0.04217,0.3012 0,0.162648 0.04217,0.313248 0.04518,0.1506 0.129516,0.268068 0.08735,0.114456 0.219876,0.183732 0.132528,0.06626 0.307224,0.06626 0.153612,0 0.274092,-0.05422 0.123492,-0.05723 0.198792,-0.183732 z"
         id="path56011" />
      <path
         d="m 33.338357,12.358089 q 0,-0.09337 0.01807,-0.183732 0.01807,-0.09036 0.06024,-0.159636 0.04518,-0.06928 0.117468,-0.111444 0.07229,-0.04518 0.18072,-0.04518 0.108432,0 0.18072,0.04518 0.0753,0.04217 0.117468,0.111444 0.04518,0.06928 0.06325,0.159636 0.01807,0.09036 0.01807,0.183732 0,0.09337 -0.01807,0.183732 -0.01807,0.08735 -0.06325,0.159636 -0.04217,0.06928 -0.117468,0.111444 -0.07229,0.04217 -0.18072,0.04217 -0.108432,0 -0.18072,-0.04217 -0.07229,-0.04217 -0.117468,-0.111444 -0.04217,-0.07229 -0.06024,-0.159636 -0.01807,-0.09036 -0.01807,-0.183732 z m -0.427704,0 q 0,0.186744 0.05723,0.337344 0.05723,0.1506 0.162648,0.259032 0.10542,0.10542 0.253009,0.162648 0.147588,0.05723 0.33132,0.05723 0.183732,0 0.33132,-0.05723 0.1506,-0.05723 0.25602,-0.162648 0.10542,-0.108432 0.162648,-0.259032 0.05723,-0.1506 0.05723,-0.337344 0,-0.186744 -0.05723,-0.337344 -0.05723,-0.153612 -0.162648,-0.259032 -0.10542,-0.108432 -0.25602,-0.16566 -0.147588,-0.06024 -0.33132,-0.06024 -0.183732,0 -0.33132,0.06024 -0.147589,0.05723 -0.253009,0.16566 -0.10542,0.10542 -0.162648,0.259032 -0.05723,0.1506 -0.05723,0.337344 z"
         id="path56013" />
      <path
         d="m 36.684683,12.189417 h -0.695772 q 0.003,-0.04518 0.01807,-0.102408 0.01807,-0.05723 0.05723,-0.108432 0.04217,-0.0512 0.108432,-0.08434 0.06928,-0.03614 0.171684,-0.03614 0.156624,0 0.231924,0.08434 0.07831,0.08434 0.108432,0.246984 z m -0.695772,0.27108 h 1.123476 q 0.01205,-0.18072 -0.03012,-0.34638 -0.04217,-0.16566 -0.138552,-0.295176 -0.09337,-0.129516 -0.24096,-0.204816 -0.147588,-0.07831 -0.34638,-0.07831 -0.177708,0 -0.325296,0.06325 -0.144576,0.06325 -0.249996,0.174696 -0.10542,0.108432 -0.162648,0.259032 -0.05723,0.1506 -0.05723,0.325296 0,0.18072 0.05422,0.33132 0.05723,0.1506 0.159636,0.259032 0.102408,0.108432 0.249996,0.168672 0.147588,0.05723 0.33132,0.05723 0.265056,0 0.4518,-0.12048 0.186744,-0.12048 0.277104,-0.400596 h -0.3765 q -0.02108,0.07229 -0.114456,0.138552 -0.09337,0.06325 -0.222888,0.06325 -0.18072,0 -0.277104,-0.09337 -0.09638,-0.09337 -0.10542,-0.3012 z"
         id="path56015" />
      <path
         d="m 37.365394,11.577981 v 1.557204 h 0.427704 v -0.816252 q 0,-0.237948 0.07831,-0.340356 0.07831,-0.10542 0.253008,-0.10542 0.153612,0 0.213852,0.09638 0.06024,0.09337 0.06024,0.28614 v 0.879504 h 0.427704 v -0.957816 q 0,-0.144576 -0.02711,-0.262044 -0.0241,-0.12048 -0.08735,-0.201804 -0.06325,-0.08434 -0.174696,-0.129516 -0.108432,-0.04819 -0.280116,-0.04819 -0.13554,0 -0.265056,0.06325 -0.129516,0.06024 -0.21084,0.19578 h -0.009 v -0.216864 z"
         id="path56017" />
      <path
         d="m 40.576181,12.303873 0.280116,-0.789144 h 0.006 l 0.27108,0.789144 z m 0.04518,-1.319256 -0.81324,2.150568 h 0.475896 l 0.168672,-0.478908 h 0.804204 l 0.162648,0.478908 h 0.490956 l -0.804204,-2.150568 z"
         id="path56019" />
      <path
         d="m 42.05206,11.577981 v 1.557204 h 0.427704 v -0.816252 q 0,-0.237948 0.07831,-0.340356 0.07831,-0.10542 0.253008,-0.10542 0.153613,0 0.213853,0.09638 0.06024,0.09337 0.06024,0.28614 v 0.879504 h 0.427704 v -0.957816 q 0,-0.144576 -0.02711,-0.262044 -0.0241,-0.12048 -0.08735,-0.201804 -0.06325,-0.08434 -0.174696,-0.129516 -0.108432,-0.04819 -0.280116,-0.04819 -0.135541,0 -0.265057,0.06325 -0.129516,0.06024 -0.21084,0.19578 h -0.009 v -0.216864 z"
         id="path56021" />
      <path
         d="m 43.820098,12.056889 q 0.009,-0.1506 0.0753,-0.249996 0.06626,-0.0994 0.168672,-0.159636 0.102408,-0.06024 0.228912,-0.08434 0.129516,-0.02711 0.259032,-0.02711 0.117468,0 0.237948,0.01807 0.12048,0.01506 0.219876,0.06325 0.0994,0.04819 0.162648,0.13554 0.06325,0.08434 0.06325,0.2259 v 0.810228 q 0,0.10542 0.01205,0.201804 0.01205,0.09638 0.04217,0.144576 h -0.433728 q -0.01205,-0.03614 -0.02108,-0.07229 -0.006,-0.03916 -0.009,-0.07831 -0.102408,0.10542 -0.24096,0.147588 -0.138552,0.04217 -0.283128,0.04217 -0.111444,0 -0.207828,-0.02711 -0.09638,-0.02711 -0.168672,-0.08434 -0.07229,-0.05723 -0.114456,-0.144576 -0.03916,-0.08735 -0.03916,-0.207828 0,-0.132528 0.04518,-0.216864 0.04819,-0.08735 0.12048,-0.138552 0.0753,-0.0512 0.168672,-0.0753 0.09638,-0.02711 0.192768,-0.04217 0.09638,-0.01506 0.189756,-0.0241 0.09337,-0.009 0.16566,-0.02711 0.07229,-0.01807 0.114456,-0.0512 0.04217,-0.03614 0.03916,-0.102408 0,-0.06928 -0.0241,-0.108432 -0.02108,-0.04217 -0.06024,-0.06325 -0.03614,-0.0241 -0.08735,-0.03012 -0.04819,-0.009 -0.10542,-0.009 -0.126504,0 -0.198792,0.05422 -0.07229,0.05422 -0.08434,0.18072 z m 0.987936,0.31626 q -0.02711,0.0241 -0.06928,0.03916 -0.03916,0.01205 -0.08735,0.02108 -0.04518,0.009 -0.09638,0.01506 -0.0512,0.006 -0.102408,0.01506 -0.04819,0.009 -0.09638,0.0241 -0.04518,0.01506 -0.08132,0.04217 -0.03313,0.0241 -0.05422,0.06325 -0.02108,0.03916 -0.02108,0.0994 0,0.05723 0.02108,0.09638 0.02108,0.03916 0.05723,0.06325 0.03614,0.02108 0.08434,0.03012 0.04819,0.009 0.0994,0.009 0.126504,0 0.19578,-0.04217 0.06928,-0.04217 0.102408,-0.0994 0.03313,-0.06024 0.03916,-0.12048 0.009,-0.06024 0.009,-0.09638 z m 0.292164,-1.602384 -0.490956,0.533124 h -0.298188 l 0.319272,-0.533124 z"
         id="path56023" />
      <path
         d="m 45.579106,10.984617 v 2.150568 h 0.427704 v -2.150568 z"
         id="path56025" />
      <path
         d="M 46.783904,11.337021 V 10.984617 H 46.3562 v 0.352404 z m -0.427704,0.24096 v 1.557204 h 0.427704 v -1.557204 z"
         id="path56027" />
      <path
         d="m 47.452566,12.629169 h -0.40662 q 0.006,0.156624 0.06928,0.262044 0.06626,0.102408 0.16566,0.16566 0.102408,0.06325 0.231924,0.09036 0.129516,0.02711 0.265056,0.02711 0.132528,0 0.259032,-0.02711 0.129516,-0.0241 0.228912,-0.08735 0.0994,-0.06325 0.159636,-0.16566 0.06325,-0.10542 0.06325,-0.259032 0,-0.108432 -0.04217,-0.18072 -0.04217,-0.0753 -0.111444,-0.123492 -0.06928,-0.0512 -0.159636,-0.08132 -0.08735,-0.03012 -0.18072,-0.0512 -0.09036,-0.02108 -0.177708,-0.03916 -0.08735,-0.01807 -0.156624,-0.03916 -0.06626,-0.0241 -0.108432,-0.06024 -0.04217,-0.03614 -0.04217,-0.09337 0,-0.04819 0.0241,-0.0753 0.0241,-0.03012 0.05723,-0.04518 0.03614,-0.01506 0.07831,-0.01807 0.04217,-0.006 0.07831,-0.006 0.114456,0 0.198792,0.04518 0.08434,0.04217 0.09337,0.16566 h 0.40662 q -0.01205,-0.144576 -0.0753,-0.237948 -0.06024,-0.09638 -0.153612,-0.153612 -0.09337,-0.05723 -0.213852,-0.08132 -0.117468,-0.0241 -0.243972,-0.0241 -0.126504,0 -0.246984,0.0241 -0.12048,0.02108 -0.216864,0.07831 -0.09638,0.05422 -0.156624,0.1506 -0.05723,0.09638 -0.05723,0.246984 0,0.102408 0.04217,0.174696 0.04217,0.06928 0.111444,0.117468 0.06928,0.04518 0.156624,0.0753 0.09036,0.02711 0.183732,0.04819 0.228912,0.04819 0.355416,0.09638 0.129516,0.04819 0.129516,0.144576 0,0.05723 -0.02711,0.09638 -0.02711,0.03614 -0.06928,0.06024 -0.03916,0.02108 -0.09036,0.03313 -0.04819,0.009 -0.09337,0.009 -0.06325,0 -0.123492,-0.01506 -0.05723,-0.01506 -0.102408,-0.04518 -0.04518,-0.03313 -0.0753,-0.08132 -0.02711,-0.0512 -0.02711,-0.12048 z"
         id="path56029" />
      <path
         d="m 49.178439,11.337021 v -0.352404 h -0.427704 v 0.352404 z m -0.427704,0.24096 v 1.557204 h 0.427704 v -1.557204 z"
         id="path56031" />
      <path
         d="m 49.847101,12.629169 h -0.40662 q 0.006,0.156624 0.06928,0.262044 0.06626,0.102408 0.16566,0.16566 0.102408,0.06325 0.231924,0.09036 0.129516,0.02711 0.265056,0.02711 0.132528,0 0.259032,-0.02711 0.129516,-0.0241 0.228912,-0.08735 0.0994,-0.06325 0.159636,-0.16566 0.06325,-0.10542 0.06325,-0.259032 0,-0.108432 -0.04217,-0.18072 -0.04217,-0.0753 -0.111444,-0.123492 -0.06928,-0.0512 -0.159636,-0.08132 -0.08735,-0.03012 -0.18072,-0.0512 -0.09036,-0.02108 -0.177708,-0.03916 -0.08735,-0.01807 -0.156624,-0.03916 -0.06626,-0.0241 -0.108432,-0.06024 -0.04217,-0.03614 -0.04217,-0.09337 0,-0.04819 0.0241,-0.0753 0.0241,-0.03012 0.05723,-0.04518 0.03614,-0.01506 0.07831,-0.01807 0.04217,-0.006 0.07831,-0.006 0.114456,0 0.198792,0.04518 0.08434,0.04217 0.09337,0.16566 h 0.40662 q -0.01205,-0.144576 -0.0753,-0.237948 -0.06024,-0.09638 -0.153612,-0.153612 -0.09337,-0.05723 -0.213852,-0.08132 -0.117468,-0.0241 -0.243972,-0.0241 -0.126504,0 -0.246984,0.0241 -0.12048,0.02108 -0.216864,0.07831 -0.09638,0.05422 -0.156624,0.1506 -0.05723,0.09638 -0.05723,0.246984 0,0.102408 0.04217,0.174696 0.04217,0.06928 0.111444,0.117468 0.06928,0.04518 0.156624,0.0753 0.09036,0.02711 0.183732,0.04819 0.228912,0.04819 0.355416,0.09638 0.129516,0.04819 0.129516,0.144576 0,0.05723 -0.02711,0.09638 -0.02711,0.03614 -0.06928,0.06024 -0.03916,0.02108 -0.09036,0.03313 -0.04819,0.009 -0.09337,0.009 -0.06325,0 -0.123492,-0.01506 -0.05723,-0.01506 -0.102408,-0.04518 -0.04518,-0.03313 -0.0753,-0.08132 -0.02711,-0.0512 -0.02711,-0.12048 z"
         id="path56033" />
      <path
         d="m 52.738618,13.327953 0.650592,-1.749972 h -0.442764 l -0.340356,1.066248 h -0.006 L 52.247662,11.577981 H 51.79285 l 0.545172,1.46082 q 0.01807,0.04518 0.01807,0.09638 0,0.06928 -0.04217,0.126504 -0.03916,0.05723 -0.123492,0.06626 -0.06325,0.003 -0.126504,-0.003 -0.06325,-0.006 -0.123492,-0.01205 v 0.352404 q 0.06626,0.006 0.129516,0.009 0.06626,0.006 0.132528,0.006 0.219876,0 0.343368,-0.08132 0.123492,-0.08132 0.192768,-0.27108 z"
         id="path56035" />
      <path
         d="m 54.88918,11.996649 v -0.644568 h 0.367464 q 0.08132,0 0.156624,0.01205 0.0753,0.01205 0.132528,0.04819 0.05723,0.03313 0.09036,0.09638 0.03614,0.06325 0.03614,0.16566 0,0.102408 -0.03614,0.16566 -0.03313,0.06325 -0.09036,0.0994 -0.05723,0.03313 -0.132528,0.04518 -0.0753,0.01205 -0.156624,0.01205 z m -0.472884,-1.012032 v 2.150568 h 0.472884 v -0.771072 h 0.49698 q 0.201804,0 0.343368,-0.05723 0.141564,-0.06024 0.228912,-0.156624 0.09036,-0.09638 0.129516,-0.219876 0.04217,-0.126504 0.04217,-0.25602 0,-0.132528 -0.04217,-0.25602 -0.03916,-0.123492 -0.129516,-0.219876 -0.08735,-0.09638 -0.228912,-0.153612 -0.141564,-0.06024 -0.343368,-0.06024 z"
         id="path56037" />
      <path
         d="m 56.380123,11.577981 v 1.557204 h 0.427704 v -0.701796 q 0,-0.10542 0.02108,-0.19578 0.02108,-0.09036 0.06928,-0.156624 0.0512,-0.06928 0.132528,-0.108432 0.08132,-0.03916 0.198792,-0.03916 0.03916,0 0.08132,0.006 0.04217,0.003 0.07229,0.009 v -0.397584 q -0.0512,-0.01506 -0.09337,-0.01506 -0.08132,0 -0.156624,0.0241 -0.0753,0.0241 -0.141564,0.06928 -0.06626,0.04217 -0.117468,0.10542 -0.0512,0.06024 -0.08132,0.132528 h -0.006 v -0.289152 z"
         id="path56039" />
      <path
         d="M 58.545742,12.189417 H 57.84997 q 0.003,-0.04518 0.01807,-0.102408 0.01807,-0.05723 0.05723,-0.108432 0.04217,-0.0512 0.108432,-0.08434 0.06928,-0.03614 0.171684,-0.03614 0.156624,0 0.231924,0.08434 0.07831,0.08434 0.108432,0.246984 z m -0.695772,0.27108 h 1.123476 q 0.01205,-0.18072 -0.03012,-0.34638 -0.04217,-0.16566 -0.138552,-0.295176 -0.09337,-0.129516 -0.24096,-0.204816 -0.147588,-0.07831 -0.34638,-0.07831 -0.177708,0 -0.325296,0.06325 -0.144576,0.06325 -0.249996,0.174696 -0.10542,0.108432 -0.162648,0.259032 -0.05723,0.1506 -0.05723,0.325296 0,0.18072 0.05422,0.33132 0.05723,0.1506 0.159636,0.259032 0.102408,0.108432 0.249996,0.168672 0.147588,0.05723 0.33132,0.05723 0.265056,0 0.4518,-0.12048 0.186744,-0.12048 0.277104,-0.400596 h -0.3765 q -0.02108,0.07229 -0.114456,0.138552 -0.09337,0.06325 -0.222888,0.06325 -0.18072,0 -0.277104,-0.09337 -0.09638,-0.09337 -0.10542,-0.3012 z"
         id="path56041" />
      <path
         d="m 60.331859,12.352065 q 0,0.09638 -0.01807,0.186744 -0.01807,0.09036 -0.06024,0.162648 -0.04217,0.06928 -0.114456,0.111444 -0.06928,0.04217 -0.174696,0.04217 -0.0994,0 -0.171684,-0.04217 -0.06928,-0.04518 -0.117468,-0.114456 -0.04518,-0.07229 -0.06626,-0.162648 -0.02108,-0.09036 -0.02108,-0.18072 0,-0.09638 0.01807,-0.183732 0.02108,-0.09036 0.06325,-0.159636 0.04518,-0.06928 0.117468,-0.111444 0.07229,-0.04217 0.177708,-0.04217 0.10542,0 0.174696,0.04217 0.06928,0.04217 0.111444,0.111444 0.04518,0.06626 0.06325,0.156624 0.01807,0.08735 0.01807,0.183732 z m 0.006,0.584328 v 0.198792 h 0.40662 v -2.150568 h -0.427704 v 0.78312 h -0.006 q -0.07229,-0.114456 -0.198792,-0.171684 -0.123492,-0.06024 -0.262044,-0.06024 -0.171684,0 -0.3012,0.06928 -0.129516,0.06626 -0.216864,0.177708 -0.08434,0.111444 -0.129516,0.259032 -0.04217,0.144576 -0.04217,0.3012 0,0.162648 0.04217,0.313248 0.04518,0.1506 0.129516,0.268068 0.08735,0.114456 0.219876,0.183732 0.132528,0.06626 0.307224,0.06626 0.153612,0 0.274092,-0.05422 0.123492,-0.05723 0.198792,-0.183732 z"
         id="path56043" />
      <path
         d="m 61.506531,11.337021 v -0.352404 h -0.427704 v 0.352404 z m -0.427704,0.24096 v 1.557204 h 0.427704 v -1.557204 z"
         id="path56045" />
      <path
         d="m 62.904099,12.126165 h 0.418668 q -0.009,-0.1506 -0.07229,-0.259032 -0.06325,-0.111444 -0.16566,-0.183732 -0.0994,-0.0753 -0.228912,-0.111444 -0.126504,-0.03614 -0.265056,-0.03614 -0.189756,0 -0.337344,0.06325 -0.147588,0.06325 -0.249996,0.177708 -0.102408,0.111444 -0.156624,0.268068 -0.0512,0.153612 -0.0512,0.334332 0,0.174696 0.05723,0.322284 0.05723,0.144576 0.159636,0.249996 0.102408,0.10542 0.246984,0.16566 0.147588,0.05723 0.322284,0.05723 0.310236,0 0.509028,-0.162648 0.198792,-0.162648 0.24096,-0.472884 h -0.412644 q -0.02108,0.144576 -0.10542,0.231924 -0.08132,0.08434 -0.234936,0.08434 -0.0994,0 -0.168672,-0.04518 -0.06928,-0.04518 -0.111444,-0.114456 -0.03916,-0.07229 -0.05723,-0.159636 -0.01807,-0.08735 -0.01807,-0.171684 0,-0.08735 0.01807,-0.174696 0.01807,-0.09036 0.06024,-0.162648 0.04518,-0.0753 0.114456,-0.12048 0.06928,-0.04819 0.171684,-0.04819 0.274092,0 0.31626,0.268068 z"
         id="path56047" />
      <path
         d="m 64.632985,12.126165 h 0.418668 q -0.009,-0.1506 -0.07229,-0.259032 -0.06325,-0.111444 -0.16566,-0.183732 -0.0994,-0.0753 -0.228912,-0.111444 -0.126504,-0.03614 -0.265056,-0.03614 -0.189756,0 -0.337344,0.06325 -0.147588,0.06325 -0.249996,0.177708 -0.102408,0.111444 -0.156624,0.268068 -0.0512,0.153612 -0.0512,0.334332 0,0.174696 0.05723,0.322284 0.05723,0.144576 0.159636,0.249996 0.102408,0.10542 0.246984,0.16566 0.147588,0.05723 0.322284,0.05723 0.310236,0 0.509028,-0.162648 0.198792,-0.162648 0.24096,-0.472884 h -0.412644 q -0.02108,0.144576 -0.10542,0.231924 -0.08132,0.08434 -0.234936,0.08434 -0.0994,0 -0.168672,-0.04518 -0.06928,-0.04518 -0.111444,-0.114456 -0.03916,-0.07229 -0.05723,-0.159636 -0.01807,-0.08735 -0.01807,-0.171684 0,-0.08735 0.01807,-0.174696 0.01807,-0.09036 0.06024,-0.162648 0.04518,-0.0753 0.114456,-0.12048 0.06928,-0.04819 0.171684,-0.04819 0.274092,0 0.31626,0.268068 z"
         id="path56049" />
      <path
         d="m 65.741399,11.337021 v -0.352404 h -0.427704 v 0.352404 z m -0.427704,0.24096 v 1.557204 h 0.427704 v -1.557204 z"
         id="path56051" />
      <path
         d="m 66.458254,12.358089 q 0,-0.09337 0.01807,-0.183732 0.01807,-0.09036 0.06024,-0.159636 0.04518,-0.06928 0.117468,-0.111444 0.07229,-0.04518 0.18072,-0.04518 0.108432,0 0.18072,0.04518 0.0753,0.04217 0.117468,0.111444 0.04518,0.06928 0.06325,0.159636 0.01807,0.09036 0.01807,0.183732 0,0.09337 -0.01807,0.183732 -0.01807,0.08735 -0.06325,0.159636 -0.04217,0.06928 -0.117468,0.111444 -0.07229,0.04217 -0.18072,0.04217 -0.108432,0 -0.18072,-0.04217 -0.07229,-0.04217 -0.117468,-0.111444 -0.04217,-0.07229 -0.06024,-0.159636 -0.01807,-0.09036 -0.01807,-0.183732 z m -0.427704,0 q 0,0.186744 0.05723,0.337344 0.05723,0.1506 0.162648,0.259032 0.10542,0.10542 0.253008,0.162648 0.147588,0.05723 0.33132,0.05723 0.183732,0 0.33132,-0.05723 0.1506,-0.05723 0.25602,-0.162648 0.10542,-0.108432 0.162648,-0.259032 0.05723,-0.1506 0.05723,-0.337344 0,-0.186744 -0.05723,-0.337344 -0.05723,-0.153612 -0.162648,-0.259032 -0.10542,-0.108432 -0.25602,-0.16566 -0.147588,-0.06024 -0.33132,-0.06024 -0.183732,0 -0.33132,0.06024 -0.147588,0.05723 -0.253008,0.16566 -0.10542,0.10542 -0.162648,0.259032 -0.05723,0.1506 -0.05723,0.337344 z m 1.367448,-1.587324 -0.490956,0.533124 h -0.298188 l 0.319272,-0.533124 z"
         id="path56053" />
      <path
         d="m 67.919067,11.577981 v 1.557204 h 0.427704 v -0.816252 q 0,-0.237948 0.07831,-0.340356 0.07831,-0.10542 0.253008,-0.10542 0.153612,0 0.213852,0.09638 0.06024,0.09337 0.06024,0.28614 v 0.879504 h 0.427704 v -0.957816 q 0,-0.144576 -0.02711,-0.262044 -0.0241,-0.12048 -0.08735,-0.201804 -0.06325,-0.08434 -0.174696,-0.129516 -0.108432,-0.04819 -0.280116,-0.04819 -0.13554,0 -0.265056,0.06325 -0.129516,0.06024 -0.21084,0.19578 h -0.009 v -0.216864 z"
         id="path56055" />
      <path
         d="m 71.647918,12.352065 q 0,0.09638 -0.01807,0.186744 -0.01807,0.09036 -0.06024,0.162648 -0.04217,0.06928 -0.114456,0.111444 -0.06928,0.04217 -0.174696,0.04217 -0.0994,0 -0.171684,-0.04217 -0.06928,-0.04518 -0.117468,-0.114456 -0.04518,-0.07229 -0.06626,-0.162648 -0.02108,-0.09036 -0.02108,-0.18072 0,-0.09638 0.01807,-0.183732 0.02108,-0.09036 0.06325,-0.159636 0.04518,-0.06928 0.117468,-0.111444 0.07229,-0.04217 0.177708,-0.04217 0.10542,0 0.174696,0.04217 0.06928,0.04217 0.111444,0.111444 0.04518,0.06626 0.06325,0.156624 0.01807,0.08735 0.01807,0.183732 z m 0.006,0.584328 v 0.198792 h 0.40662 v -2.150568 h -0.427704 v 0.78312 h -0.006 q -0.07229,-0.114456 -0.198792,-0.171684 -0.123492,-0.06024 -0.262044,-0.06024 -0.171684,0 -0.3012,0.06928 -0.129516,0.06626 -0.216864,0.177708 -0.08434,0.111444 -0.129516,0.259032 -0.04217,0.144576 -0.04217,0.3012 0,0.162648 0.04217,0.313248 0.04518,0.1506 0.129516,0.268068 0.08735,0.114456 0.219876,0.183732 0.132528,0.06626 0.307224,0.06626 0.153612,0 0.274092,-0.05422 0.123492,-0.05723 0.198792,-0.183732 z"
         id="path56057" />
      <path
         d="m 73.431018,12.189417 h -0.695772 q 0.003,-0.04518 0.01807,-0.102408 0.01807,-0.05723 0.05723,-0.108432 0.04217,-0.0512 0.108432,-0.08434 0.06928,-0.03614 0.171684,-0.03614 0.156624,0 0.231924,0.08434 0.07831,0.08434 0.108432,0.246984 z m -0.695772,0.27108 h 1.123476 q 0.01205,-0.18072 -0.03012,-0.34638 -0.04217,-0.16566 -0.138552,-0.295176 -0.09337,-0.129516 -0.24096,-0.204816 -0.147588,-0.07831 -0.34638,-0.07831 -0.177708,0 -0.325296,0.06325 -0.144576,0.06325 -0.249996,0.174696 -0.10542,0.108432 -0.162648,0.259032 -0.05723,0.1506 -0.05723,0.325296 0,0.18072 0.05422,0.33132 0.05723,0.1506 0.159636,0.259032 0.102408,0.108432 0.249996,0.168672 0.147588,0.05723 0.33132,0.05723 0.265056,0 0.4518,-0.12048 0.186744,-0.12048 0.277104,-0.400596 h -0.3765 q -0.02108,0.07229 -0.114456,0.138552 -0.09337,0.06325 -0.222888,0.06325 -0.18072,0 -0.277104,-0.09337 -0.09638,-0.09337 -0.10542,-0.3012 z"
         id="path56059" />
      <path
         d="m 75.46713,12.737601 v -1.3554 h 0.337344 q 0.174696,0 0.292164,0.0512 0.12048,0.04819 0.192768,0.141564 0.07229,0.09337 0.102408,0.2259 0.03313,0.129516 0.03313,0.292164 0,0.177708 -0.04518,0.3012 -0.04518,0.123492 -0.12048,0.201804 -0.0753,0.0753 -0.171684,0.108432 -0.09638,0.03313 -0.198792,0.03313 z m -0.472884,-1.752984 v 2.150568 h 0.927696 q 0.246984,0 0.427704,-0.08132 0.183732,-0.08434 0.304212,-0.228912 0.123492,-0.144576 0.183732,-0.343368 0.06024,-0.198792 0.06024,-0.433728 0,-0.268068 -0.0753,-0.46686 -0.07229,-0.198792 -0.204816,-0.33132 -0.129516,-0.132528 -0.310236,-0.198792 -0.177708,-0.06626 -0.385536,-0.06626 z"
         id="path56061" />
      <path
         d="m 77.162881,12.056889 q 0.009,-0.1506 0.0753,-0.249996 0.06626,-0.0994 0.168672,-0.159636 0.102408,-0.06024 0.228912,-0.08434 0.129516,-0.02711 0.259032,-0.02711 0.117468,0 0.237948,0.01807 0.12048,0.01506 0.219876,0.06325 0.0994,0.04819 0.162648,0.13554 0.06325,0.08434 0.06325,0.2259 v 0.810228 q 0,0.10542 0.01205,0.201804 0.01205,0.09638 0.04217,0.144576 h -0.433728 q -0.01205,-0.03614 -0.02108,-0.07229 -0.006,-0.03916 -0.009,-0.07831 -0.102408,0.10542 -0.24096,0.147588 -0.138552,0.04217 -0.283128,0.04217 -0.111444,0 -0.207828,-0.02711 -0.09638,-0.02711 -0.168672,-0.08434 -0.07229,-0.05723 -0.114456,-0.144576 -0.03916,-0.08735 -0.03916,-0.207828 0,-0.132528 0.04518,-0.216864 0.04819,-0.08735 0.12048,-0.138552 0.0753,-0.0512 0.168672,-0.0753 0.09638,-0.02711 0.192768,-0.04217 0.09638,-0.01506 0.189756,-0.0241 0.09337,-0.009 0.16566,-0.02711 0.07229,-0.01807 0.114456,-0.0512 0.04217,-0.03614 0.03916,-0.102408 0,-0.06928 -0.0241,-0.108432 -0.02108,-0.04217 -0.06024,-0.06325 -0.03614,-0.0241 -0.08735,-0.03012 -0.04819,-0.009 -0.10542,-0.009 -0.126504,0 -0.198792,0.05422 -0.07229,0.05422 -0.08434,0.18072 z m 0.987936,0.31626 q -0.02711,0.0241 -0.06928,0.03916 -0.03916,0.01205 -0.08735,0.02108 -0.04518,0.009 -0.09638,0.01506 -0.0512,0.006 -0.102408,0.01506 -0.04819,0.009 -0.09638,0.0241 -0.04518,0.01506 -0.08132,0.04217 -0.03313,0.0241 -0.05422,0.06325 -0.02108,0.03916 -0.02108,0.0994 0,0.05723 0.02108,0.09638 0.02108,0.03916 0.05723,0.06325 0.03614,0.02108 0.08434,0.03012 0.04819,0.009 0.0994,0.009 0.126504,0 0.19578,-0.04217 0.06928,-0.04217 0.102408,-0.0994 0.03313,-0.06024 0.03916,-0.12048 0.009,-0.06024 0.009,-0.09638 z"
         id="path56063" />
      <path
         d="m 79.451999,11.577981 v -0.46686 h -0.427704 v 0.46686 h -0.259032 v 0.28614 h 0.259032 v 0.91866 q 0,0.117468 0.03916,0.189756 0.03916,0.07229 0.10542,0.111444 0.06928,0.03916 0.156624,0.0512 0.09036,0.01506 0.189756,0.01506 0.06325,0 0.129516,-0.003 0.06626,-0.003 0.12048,-0.01205 v -0.33132 q -0.03012,0.006 -0.06325,0.009 -0.03313,0.003 -0.06928,0.003 -0.108432,0 -0.144576,-0.03614 -0.03614,-0.03614 -0.03614,-0.144576 v -0.771072 h 0.313248 v -0.28614 z"
         id="path56065" />
      <path
         d="m 80.349574,12.358089 q 0,-0.09337 0.01807,-0.183732 0.01807,-0.09036 0.06024,-0.159636 0.04518,-0.06928 0.117468,-0.111444 0.07229,-0.04518 0.18072,-0.04518 0.108432,0 0.18072,0.04518 0.0753,0.04217 0.117468,0.111444 0.04518,0.06928 0.06325,0.159636 0.01807,0.09036 0.01807,0.183732 0,0.09337 -0.01807,0.183732 -0.01807,0.08735 -0.06325,0.159636 -0.04217,0.06928 -0.117468,0.111444 -0.07229,0.04217 -0.18072,0.04217 -0.108432,0 -0.18072,-0.04217 -0.07229,-0.04217 -0.117468,-0.111444 -0.04217,-0.07229 -0.06024,-0.159636 -0.01807,-0.09036 -0.01807,-0.183732 z m -0.427704,0 q 0,0.186744 0.05723,0.337344 0.05723,0.1506 0.162648,0.259032 0.10542,0.10542 0.253008,0.162648 0.147588,0.05723 0.33132,0.05723 0.183732,0 0.33132,-0.05723 0.1506,-0.05723 0.25602,-0.162648 0.10542,-0.108432 0.162648,-0.259032 0.05723,-0.1506 0.05723,-0.337344 0,-0.186744 -0.05723,-0.337344 -0.05723,-0.153612 -0.162648,-0.259032 -0.10542,-0.108432 -0.25602,-0.16566 -0.147588,-0.06024 -0.33132,-0.06024 -0.183732,0 -0.33132,0.06024 -0.147588,0.05723 -0.253008,0.16566 -0.10542,0.10542 -0.162648,0.259032 -0.05723,0.1506 -0.05723,0.337344 z"
         id="path56067" />
      <path
         d="m 82.14171,12.629169 h -0.40662 q 0.006,0.156624 0.06928,0.262044 0.06626,0.102408 0.16566,0.16566 0.102408,0.06325 0.231924,0.09036 0.129516,0.02711 0.265056,0.02711 0.132528,0 0.259032,-0.02711 0.129516,-0.0241 0.228912,-0.08735 0.0994,-0.06325 0.159636,-0.16566 0.06325,-0.10542 0.06325,-0.259032 0,-0.108432 -0.04217,-0.18072 -0.04217,-0.0753 -0.111444,-0.123492 -0.06928,-0.0512 -0.159636,-0.08132 -0.08735,-0.03012 -0.18072,-0.0512 -0.09036,-0.02108 -0.177708,-0.03916 -0.08735,-0.01807 -0.156624,-0.03916 -0.06626,-0.0241 -0.108432,-0.06024 -0.04217,-0.03614 -0.04217,-0.09337 0,-0.04819 0.0241,-0.0753 0.0241,-0.03012 0.05723,-0.04518 0.03614,-0.01506 0.07831,-0.01807 0.04217,-0.006 0.07831,-0.006 0.114456,0 0.198792,0.04518 0.08434,0.04217 0.09337,0.16566 h 0.40662 q -0.01205,-0.144576 -0.0753,-0.237948 -0.06024,-0.09638 -0.153612,-0.153612 -0.09337,-0.05723 -0.213852,-0.08132 -0.117468,-0.0241 -0.243972,-0.0241 -0.126504,0 -0.246984,0.0241 -0.12048,0.02108 -0.216864,0.07831 -0.09638,0.05422 -0.156624,0.1506 -0.05723,0.09638 -0.05723,0.246984 0,0.102408 0.04217,0.174696 0.04217,0.06928 0.111444,0.117468 0.06928,0.04518 0.156624,0.0753 0.09036,0.02711 0.183732,0.04819 0.228912,0.04819 0.355416,0.09638 0.129516,0.04819 0.129516,0.144576 0,0.05723 -0.02711,0.09638 -0.02711,0.03614 -0.06928,0.06024 -0.03916,0.02108 -0.09036,0.03313 -0.04819,0.009 -0.09337,0.009 -0.06325,0 -0.123492,-0.01506 -0.05723,-0.01506 -0.102408,-0.04518 -0.04518,-0.03313 -0.0753,-0.08132 -0.02711,-0.0512 -0.02711,-0.12048 z"
         id="path56069" />
      <path
         d="m 21.329538,15.472497 h 0.457824 q -0.02108,-0.186744 -0.102408,-0.33132 -0.08132,-0.144576 -0.207828,-0.24096 -0.123492,-0.0994 -0.283128,-0.1506 -0.156624,-0.0512 -0.334332,-0.0512 -0.246984,0 -0.445776,0.08735 -0.19578,0.08735 -0.33132,0.24096 -0.13554,0.153612 -0.207828,0.36144 -0.07229,0.204816 -0.07229,0.445776 0,0.234936 0.07229,0.439752 0.07229,0.201804 0.207828,0.352404 0.13554,0.1506 0.33132,0.237948 0.198792,0.08434 0.445776,0.08434 0.198792,0 0.364452,-0.06024 0.16566,-0.06024 0.289152,-0.174696 0.123492,-0.114456 0.198792,-0.277104 0.0753,-0.162648 0.09337,-0.364452 h -0.457824 q -0.02711,0.216864 -0.1506,0.349392 -0.12048,0.132528 -0.337344,0.132528 -0.159636,0 -0.27108,-0.06024 -0.111444,-0.06325 -0.18072,-0.16566 -0.06928,-0.102408 -0.102408,-0.228912 -0.03012,-0.129516 -0.03012,-0.265056 0,-0.141564 0.03012,-0.274092 0.03313,-0.132528 0.102408,-0.234936 0.06928,-0.10542 0.18072,-0.16566 0.111444,-0.06325 0.27108,-0.06325 0.08735,0 0.16566,0.03012 0.08132,0.02711 0.144576,0.07831 0.06325,0.0512 0.10542,0.12048 0.04217,0.06626 0.05422,0.147588 z"
         id="path56071" />
      <path
         d="m 22.522288,15.102021 v -0.352404 h -0.427704 v 0.352404 z m -0.427704,0.24096 v 1.557204 h 0.427704 v -1.557204 z"
         id="path56073" />
      <path
         d="m 23.907806,15.954417 h -0.695772 q 0.003,-0.04518 0.01807,-0.102408 0.01807,-0.05723 0.05723,-0.108432 0.04217,-0.0512 0.108432,-0.08434 0.06928,-0.03614 0.171684,-0.03614 0.156624,0 0.231924,0.08434 0.07831,0.08434 0.108432,0.246984 z m -0.695772,0.27108 h 1.123476 q 0.01205,-0.18072 -0.03012,-0.34638 -0.04217,-0.16566 -0.138552,-0.295176 -0.09337,-0.129516 -0.24096,-0.204816 -0.147588,-0.07831 -0.34638,-0.07831 -0.177708,0 -0.325296,0.06325 -0.144576,0.06325 -0.249996,0.174696 -0.10542,0.108432 -0.162648,0.259032 -0.05723,0.1506 -0.05723,0.325296 0,0.18072 0.05422,0.33132 0.05723,0.1506 0.159636,0.259032 0.102408,0.108432 0.249996,0.168672 0.147588,0.05723 0.33132,0.05723 0.265056,0 0.4518,-0.12048 0.186744,-0.12048 0.277104,-0.400596 h -0.3765 q -0.02108,0.07229 -0.114456,0.138552 -0.09337,0.06325 -0.222888,0.06325 -0.18072,0 -0.277104,-0.09337 -0.09638,-0.09337 -0.10542,-0.3012 z"
         id="path56075" />
      <path
         d="m 24.588517,15.342981 v 1.557204 h 0.427704 v -0.816252 q 0,-0.237948 0.07831,-0.340356 0.07831,-0.10542 0.253008,-0.10542 0.153612,0 0.213852,0.09638 0.06024,0.09337 0.06024,0.28614 v 0.879504 h 0.427704 v -0.957816 q 0,-0.144576 -0.02711,-0.262044 -0.0241,-0.12048 -0.08735,-0.201804 -0.06325,-0.08434 -0.174696,-0.129516 -0.108432,-0.04819 -0.280116,-0.04819 -0.13554,0 -0.265056,0.06325 -0.129516,0.06024 -0.21084,0.19578 h -0.009 v -0.216864 z"
         id="path56077" />
      <path
         d="m 27.434852,15.891165 h 0.418668 q -0.009,-0.1506 -0.07229,-0.259032 -0.06325,-0.111444 -0.16566,-0.183732 -0.0994,-0.0753 -0.228912,-0.111444 -0.126504,-0.03614 -0.265056,-0.03614 -0.189756,0 -0.337344,0.06325 -0.147588,0.06325 -0.249996,0.177708 -0.102408,0.111444 -0.156624,0.268068 -0.0512,0.153612 -0.0512,0.334332 0,0.174696 0.05723,0.322284 0.05723,0.144576 0.159636,0.249996 0.102408,0.10542 0.246984,0.16566 0.147588,0.05723 0.322284,0.05723 0.310236,0 0.509028,-0.162648 0.198792,-0.162648 0.24096,-0.472884 h -0.412648 q -0.02108,0.144576 -0.10542,0.231924 -0.08132,0.08434 -0.234936,0.08434 -0.0994,0 -0.168672,-0.04518 -0.06928,-0.04518 -0.111444,-0.114456 -0.03916,-0.07229 -0.05723,-0.159636 -0.01807,-0.08735 -0.01807,-0.171684 0,-0.08735 0.01807,-0.174696 0.01807,-0.09036 0.06024,-0.162648 0.04518,-0.0753 0.114456,-0.12048 0.06928,-0.04819 0.171684,-0.04819 0.274092,0 0.31626,0.268068 z"
         id="path56079" />
      <path
         d="m 28.543266,15.102021 v -0.352404 h -0.427704 v 0.352404 z m -0.427704,0.24096 v 1.557204 h 0.427704 v -1.557204 z"
         id="path56081" />
      <path
         d="m 28.862537,15.821889 q 0.009,-0.1506 0.0753,-0.249996 0.06626,-0.0994 0.168672,-0.159636 0.102408,-0.06024 0.228912,-0.08434 0.129516,-0.02711 0.259032,-0.02711 0.117468,0 0.237948,0.01807 0.12048,0.01506 0.219876,0.06325 0.0994,0.04819 0.162648,0.13554 0.06325,0.08434 0.06325,0.2259 v 0.810228 q 0,0.10542 0.01205,0.201804 0.01205,0.09638 0.04217,0.144576 h -0.433728 q -0.01205,-0.03614 -0.02108,-0.07229 -0.006,-0.03916 -0.009,-0.07831 -0.102408,0.10542 -0.24096,0.147588 -0.138552,0.04217 -0.283128,0.04217 -0.111444,0 -0.207828,-0.02711 -0.09638,-0.02711 -0.168672,-0.08434 -0.07229,-0.05723 -0.114456,-0.144576 -0.03916,-0.08735 -0.03916,-0.207828 0,-0.132528 0.04518,-0.216864 0.04819,-0.08735 0.12048,-0.138552 0.0753,-0.0512 0.168672,-0.0753 0.09638,-0.02711 0.192768,-0.04217 0.09638,-0.01506 0.189756,-0.0241 0.09337,-0.009 0.16566,-0.02711 0.07229,-0.01807 0.114456,-0.0512 0.04217,-0.03614 0.03916,-0.102408 0,-0.06928 -0.0241,-0.108432 -0.02108,-0.04217 -0.06024,-0.06325 -0.03614,-0.0241 -0.08735,-0.03012 -0.04819,-0.009 -0.10542,-0.009 -0.126504,0 -0.198792,0.05422 -0.07229,0.05422 -0.08434,0.18072 z m 0.987936,0.31626 q -0.02711,0.0241 -0.06928,0.03916 -0.03916,0.01205 -0.08735,0.02108 -0.04518,0.009 -0.09638,0.01506 -0.0512,0.006 -0.102408,0.01506 -0.04819,0.009 -0.09638,0.0241 -0.04518,0.01506 -0.08132,0.04217 -0.03313,0.0241 -0.05422,0.06325 -0.02108,0.03916 -0.02108,0.0994 0,0.05723 0.02108,0.09638 0.02108,0.03916 0.05723,0.06325 0.03614,0.02108 0.08434,0.03012 0.04819,0.009 0.0994,0.009 0.126504,0 0.19578,-0.04217 0.06928,-0.04217 0.102408,-0.0994 0.03313,-0.06024 0.03916,-0.12048 0.009,-0.06024 0.009,-0.09638 z"
         id="path56083" />
      <path
         d="m 32.552235,16.117065 q 0,0.09638 -0.01807,0.186744 -0.01807,0.09036 -0.06024,0.162648 -0.04217,0.06928 -0.114456,0.111444 -0.06928,0.04217 -0.174696,0.04217 -0.0994,0 -0.171684,-0.04217 -0.06928,-0.04518 -0.117468,-0.114456 -0.04518,-0.07229 -0.06626,-0.162648 -0.02108,-0.09036 -0.02108,-0.18072 0,-0.09638 0.01807,-0.183732 0.02108,-0.09036 0.06325,-0.159636 0.04518,-0.06928 0.117468,-0.111444 0.07229,-0.04217 0.177708,-0.04217 0.10542,0 0.174696,0.04217 0.06928,0.04217 0.111444,0.111444 0.04518,0.06626 0.06325,0.156624 0.01807,0.08735 0.01807,0.183732 z m 0.006,0.584328 v 0.198792 h 0.40662 v -2.150568 h -0.427704 v 0.78312 h -0.006 q -0.07229,-0.114456 -0.198792,-0.171684 -0.123492,-0.06024 -0.262044,-0.06024 -0.171684,0 -0.3012,0.06928 -0.129516,0.06626 -0.216864,0.177708 -0.08434,0.111444 -0.129516,0.259032 -0.04217,0.144576 -0.04217,0.3012 0,0.162648 0.04217,0.313248 0.04518,0.1506 0.129516,0.268068 0.08735,0.114456 0.219876,0.183732 0.132528,0.06626 0.307224,0.06626 0.153612,0 0.274092,-0.05422 0.123492,-0.05723 0.198792,-0.183732 z"
         id="path56085" />
      <path
         d="m 34.335333,15.954417 h -0.695772 q 0.003,-0.04518 0.01807,-0.102408 0.01807,-0.05723 0.05723,-0.108432 0.04217,-0.0512 0.108432,-0.08434 0.06928,-0.03614 0.171684,-0.03614 0.156624,0 0.231924,0.08434 0.07831,0.08434 0.108432,0.246984 z m -0.695772,0.27108 h 1.123476 q 0.01205,-0.18072 -0.03012,-0.34638 -0.04217,-0.16566 -0.138552,-0.295176 -0.09337,-0.129516 -0.24096,-0.204816 -0.147588,-0.07831 -0.34638,-0.07831 -0.177708,0 -0.325296,0.06325 -0.144576,0.06325 -0.249996,0.174696 -0.10542,0.108432 -0.162648,0.259032 -0.05723,0.1506 -0.05723,0.325296 0,0.18072 0.05422,0.33132 0.05723,0.1506 0.159636,0.259032 0.102408,0.108432 0.249996,0.168672 0.147588,0.05723 0.33132,0.05723 0.265056,0 0.4518,-0.12048 0.186744,-0.12048 0.277104,-0.400596 h -0.3765 q -0.02108,0.07229 -0.114456,0.138552 -0.09337,0.06325 -0.222888,0.06325 -0.18072,0 -0.277104,-0.09337 -0.09638,-0.09337 -0.10542,-0.3012 z"
         id="path56087" />
      <path
         d="m 36.371444,16.502601 v -1.3554 h 0.337344 q 0.174696,0 0.292164,0.0512 0.12048,0.04819 0.192768,0.141564 0.07229,0.09337 0.102408,0.2259 0.03313,0.129516 0.03313,0.292164 0,0.177708 -0.04518,0.3012 -0.04518,0.123492 -0.12048,0.201804 -0.0753,0.0753 -0.171684,0.108432 -0.09638,0.03313 -0.198792,0.03313 z M 35.89856,14.749617 v 2.150568 h 0.927696 q 0.246984,0 0.427704,-0.08132 0.183732,-0.08434 0.304212,-0.228912 0.123492,-0.144576 0.183732,-0.343368 0.06024,-0.198792 0.06024,-0.433728 0,-0.268068 -0.0753,-0.46686 -0.07229,-0.198792 -0.204816,-0.33132 -0.129516,-0.132528 -0.310236,-0.198792 -0.177708,-0.06626 -0.385536,-0.06626 z"
         id="path56089" />
      <path
         d="m 38.067197,15.821889 q 0.009,-0.1506 0.0753,-0.249996 0.06626,-0.0994 0.168672,-0.159636 0.102408,-0.06024 0.228912,-0.08434 0.129516,-0.02711 0.259032,-0.02711 0.117468,0 0.237948,0.01807 0.12048,0.01506 0.219876,0.06325 0.0994,0.04819 0.162648,0.13554 0.06325,0.08434 0.06325,0.2259 v 0.810228 q 0,0.10542 0.01205,0.201804 0.01205,0.09638 0.04217,0.144576 h -0.433728 q -0.01205,-0.03614 -0.02108,-0.07229 -0.006,-0.03916 -0.009,-0.07831 -0.102408,0.10542 -0.24096,0.147588 -0.138552,0.04217 -0.283128,0.04217 -0.111444,0 -0.207828,-0.02711 -0.09638,-0.02711 -0.168672,-0.08434 -0.07229,-0.05723 -0.114456,-0.144576 -0.03916,-0.08735 -0.03916,-0.207828 0,-0.132528 0.04518,-0.216864 0.04819,-0.08735 0.12048,-0.138552 0.0753,-0.0512 0.168672,-0.0753 0.09638,-0.02711 0.192768,-0.04217 0.09638,-0.01506 0.189756,-0.0241 0.09337,-0.009 0.16566,-0.02711 0.07229,-0.01807 0.114456,-0.0512 0.04217,-0.03614 0.03916,-0.102408 0,-0.06928 -0.0241,-0.108432 -0.02108,-0.04217 -0.06024,-0.06325 -0.03614,-0.0241 -0.08735,-0.03012 -0.04819,-0.009 -0.10542,-0.009 -0.126504,0 -0.198792,0.05422 -0.07229,0.05422 -0.08434,0.18072 z m 0.987936,0.31626 q -0.02711,0.0241 -0.06928,0.03916 -0.03916,0.01205 -0.08735,0.02108 -0.04518,0.009 -0.09638,0.01506 -0.0512,0.006 -0.102408,0.01506 -0.04819,0.009 -0.09638,0.0241 -0.04518,0.01506 -0.08132,0.04217 -0.03313,0.0241 -0.05422,0.06325 -0.02108,0.03916 -0.02108,0.0994 0,0.05723 0.02108,0.09638 0.02108,0.03916 0.05723,0.06325 0.03614,0.02108 0.08434,0.03012 0.04819,0.009 0.0994,0.009 0.126504,0 0.19578,-0.04217 0.06928,-0.04217 0.102408,-0.0994 0.03313,-0.06024 0.03916,-0.12048 0.009,-0.06024 0.009,-0.09638 z"
         id="path56091" />
      <path
         d="m 40.356315,15.342981 v -0.46686 h -0.427704 v 0.46686 h -0.259032 v 0.28614 h 0.259032 v 0.91866 q 0,0.117468 0.03916,0.189756 0.03916,0.07229 0.10542,0.111444 0.06928,0.03916 0.156624,0.0512 0.09036,0.01506 0.189756,0.01506 0.06325,0 0.129516,-0.003 0.06626,-0.003 0.12048,-0.01205 v -0.33132 q -0.03012,0.006 -0.06325,0.009 -0.03313,0.003 -0.06928,0.003 -0.108432,0 -0.144576,-0.03614 -0.03614,-0.03614 -0.03614,-0.144576 v -0.771072 h 0.313248 v -0.28614 z"
         id="path56093" />
      <path
         d="m 41.25389,16.123089 q 0,-0.09337 0.01807,-0.183732 0.01807,-0.09036 0.06024,-0.159636 0.04518,-0.06928 0.117468,-0.111444 0.07229,-0.04518 0.18072,-0.04518 0.108432,0 0.18072,0.04518 0.0753,0.04217 0.117468,0.111444 0.04518,0.06928 0.06325,0.159636 0.01807,0.09036 0.01807,0.183732 0,0.09337 -0.01807,0.183732 -0.01807,0.08735 -0.06325,0.159636 -0.04217,0.06928 -0.117468,0.111444 -0.07229,0.04217 -0.18072,0.04217 -0.108432,0 -0.18072,-0.04217 -0.07229,-0.04217 -0.117468,-0.111444 -0.04217,-0.07229 -0.06024,-0.159636 -0.01807,-0.09036 -0.01807,-0.183732 z m -0.427704,0 q 0,0.186744 0.05723,0.337344 0.05723,0.1506 0.162648,0.259032 0.10542,0.10542 0.253008,0.162648 0.147588,0.05723 0.33132,0.05723 0.183732,0 0.33132,-0.05723 0.1506,-0.05723 0.25602,-0.162648 0.10542,-0.108432 0.162648,-0.259032 0.05723,-0.1506 0.05723,-0.337344 0,-0.186744 -0.05723,-0.337344 -0.05723,-0.153612 -0.162648,-0.259032 -0.10542,-0.108432 -0.25602,-0.16566 -0.147588,-0.06024 -0.33132,-0.06024 -0.183732,0 -0.33132,0.06024 -0.147588,0.05723 -0.253008,0.16566 -0.10542,0.10542 -0.162648,0.259032 -0.05723,0.1506 -0.05723,0.337344 z"
         id="path56095" />
      <path
         d="m 43.046024,16.394169 h -0.40662 q 0.006,0.156624 0.06928,0.262044 0.06626,0.102408 0.16566,0.16566 0.102408,0.06325 0.231924,0.09036 0.129516,0.02711 0.265056,0.02711 0.132528,0 0.259032,-0.02711 0.129516,-0.0241 0.228912,-0.08735 0.0994,-0.06325 0.159636,-0.16566 0.06325,-0.10542 0.06325,-0.259032 0,-0.108432 -0.04217,-0.18072 -0.04217,-0.0753 -0.111444,-0.123492 -0.06928,-0.0512 -0.159636,-0.08132 -0.08735,-0.03012 -0.18072,-0.0512 -0.09036,-0.02108 -0.177708,-0.03916 -0.08735,-0.01807 -0.156624,-0.03916 -0.06626,-0.0241 -0.108432,-0.06024 -0.04217,-0.03614 -0.04217,-0.09337 0,-0.04819 0.0241,-0.0753 0.0241,-0.03012 0.05723,-0.04518 0.03614,-0.01506 0.07831,-0.01807 0.04217,-0.006 0.07831,-0.006 0.114456,0 0.198792,0.04518 0.08434,0.04217 0.09337,0.16566 h 0.40662 q -0.01205,-0.144576 -0.0753,-0.237948 -0.06024,-0.09638 -0.153612,-0.153612 -0.09337,-0.05723 -0.213852,-0.08132 -0.117468,-0.0241 -0.243972,-0.0241 -0.126504,0 -0.246984,0.0241 -0.12048,0.02108 -0.216864,0.07831 -0.09638,0.05422 -0.156624,0.1506 -0.05723,0.09638 -0.05723,0.246984 0,0.102408 0.04217,0.174696 0.04217,0.06928 0.111444,0.117468 0.06928,0.04518 0.156624,0.0753 0.09036,0.02711 0.183732,0.04819 0.228912,0.04819 0.355416,0.09638 0.129516,0.04819 0.129516,0.144576 0,0.05723 -0.02711,0.09638 -0.02711,0.03614 -0.06928,0.06024 -0.03916,0.02108 -0.09036,0.03313 -0.04819,0.009 -0.09337,0.009 -0.06325,0 -0.123492,-0.01506 -0.05723,-0.01506 -0.102408,-0.04518 -0.04518,-0.03313 -0.0753,-0.08132 -0.02711,-0.0512 -0.02711,-0.12048 z"
         id="path56097" />
      <path
         d="m 46.217655,15.954417 h -0.695772 q 0.003,-0.04518 0.01807,-0.102408 0.01807,-0.05723 0.05723,-0.108432 0.04217,-0.0512 0.108432,-0.08434 0.06928,-0.03614 0.171684,-0.03614 0.156624,0 0.231924,0.08434 0.07831,0.08434 0.108432,0.246984 z m -0.695772,0.27108 h 1.123476 q 0.01205,-0.18072 -0.03012,-0.34638 -0.04217,-0.16566 -0.138552,-0.295176 -0.09337,-0.129516 -0.24096,-0.204816 -0.147588,-0.07831 -0.34638,-0.07831 -0.177708,0 -0.325296,0.06325 -0.144576,0.06325 -0.249996,0.174696 -0.10542,0.108432 -0.162648,0.259032 -0.05723,0.1506 -0.05723,0.325296 0,0.18072 0.05422,0.33132 0.05723,0.1506 0.159636,0.259032 0.102408,0.108432 0.249996,0.168672 0.147588,0.05723 0.33132,0.05723 0.265056,0 0.4518,-0.12048 0.186744,-0.12048 0.277104,-0.400596 h -0.3765 q -0.02108,0.07229 -0.114456,0.138552 -0.09337,0.06325 -0.222888,0.06325 -0.18072,0 -0.277104,-0.09337 -0.09638,-0.09337 -0.10542,-0.3012 z"
         id="path56099" />
      <path
         d="m 46.898366,15.342981 v 1.557204 h 0.427704 v -0.816252 q 0,-0.237948 0.07831,-0.340356 0.07831,-0.10542 0.253008,-0.10542 0.153612,0 0.213852,0.09638 0.06024,0.09337 0.06024,0.28614 v 0.879504 h 0.427704 v -0.957816 q 0,-0.144576 -0.02711,-0.262044 -0.0241,-0.12048 -0.08735,-0.201804 -0.06325,-0.08434 -0.174696,-0.129516 -0.108432,-0.04819 -0.280116,-0.04819 -0.13554,0 -0.265056,0.06325 -0.129516,0.06024 -0.21084,0.19578 h -0.009 v -0.216864 z"
         id="path56101" />
      <path
         d="m 50.039878,15.761649 v -0.644568 h 0.367464 q 0.08132,0 0.156624,0.01205 0.0753,0.01205 0.132528,0.04819 0.05723,0.03313 0.09036,0.09638 0.03614,0.06325 0.03614,0.16566 0,0.102408 -0.03614,0.16566 -0.03313,0.06325 -0.09036,0.0994 -0.05723,0.03313 -0.132528,0.04518 -0.0753,0.01205 -0.156624,0.01205 z m -0.472884,-1.012032 v 2.150568 h 0.472884 v -0.771072 h 0.49698 q 0.201804,0 0.343368,-0.05723 0.141564,-0.06024 0.228912,-0.156624 0.09036,-0.09638 0.129516,-0.219876 0.04217,-0.126504 0.04217,-0.25602 0,-0.132528 -0.04217,-0.25602 -0.03916,-0.123492 -0.129516,-0.219876 -0.08735,-0.09638 -0.228912,-0.153612 -0.141564,-0.06024 -0.343368,-0.06024 z"
         id="path56103" />
      <path
         d="m 52.298876,17.092953 0.650592,-1.749972 h -0.442764 l -0.340356,1.066248 h -0.006 l -0.352404,-1.066248 h -0.454812 l 0.545172,1.46082 q 0.01807,0.04518 0.01807,0.09638 0,0.06928 -0.04217,0.126504 -0.03916,0.05723 -0.123492,0.06626 -0.06325,0.003 -0.126504,-0.003 -0.06325,-0.006 -0.123492,-0.01205 v 0.352404 q 0.06626,0.006 0.129516,0.009 0.06626,0.006 0.132528,0.006 0.219876,0 0.343368,-0.08132 0.123492,-0.08132 0.192768,-0.27108 z"
         id="path56105" />
      <path
         d="m 53.636203,15.342981 v -0.46686 h -0.427704 v 0.46686 h -0.259032 v 0.28614 h 0.259032 v 0.91866 q 0,0.117468 0.03916,0.189756 0.03916,0.07229 0.10542,0.111444 0.06928,0.03916 0.156624,0.0512 0.09036,0.01506 0.189756,0.01506 0.06325,0 0.129516,-0.003 0.06626,-0.003 0.12048,-0.01205 v -0.33132 q -0.03012,0.006 -0.06325,0.009 -0.03313,0.003 -0.06928,0.003 -0.108432,0 -0.144576,-0.03614 -0.03614,-0.03614 -0.03614,-0.144576 v -0.771072 h 0.313248 v -0.28614 z"
         id="path56107" />
      <path
         d="m 54.154262,14.749617 v 2.150568 h 0.427704 v -0.816252 q 0,-0.237948 0.07831,-0.340356 0.07831,-0.10542 0.253008,-0.10542 0.153612,0 0.213852,0.09638 0.06024,0.09337 0.06024,0.28614 v 0.879504 h 0.427704 v -0.957816 q 0,-0.144576 -0.02711,-0.262044 -0.0241,-0.12048 -0.08735,-0.201804 -0.06325,-0.08434 -0.174696,-0.129516 -0.108432,-0.04819 -0.280116,-0.04819 -0.12048,0 -0.246984,0.06325 -0.126504,0.06024 -0.207828,0.19578 h -0.009 v -0.810228 z"
         id="path56109" />
      <path
         d="m 56.319888,16.123089 q 0,-0.09337 0.01807,-0.183732 0.01807,-0.09036 0.06024,-0.159636 0.04518,-0.06928 0.117468,-0.111444 0.07229,-0.04518 0.18072,-0.04518 0.108432,0 0.18072,0.04518 0.0753,0.04217 0.117468,0.111444 0.04518,0.06928 0.06325,0.159636 0.01807,0.09036 0.01807,0.183732 0,0.09337 -0.01807,0.183732 -0.01807,0.08735 -0.06325,0.159636 -0.04217,0.06928 -0.117468,0.111444 -0.07229,0.04217 -0.18072,0.04217 -0.108432,0 -0.18072,-0.04217 -0.07229,-0.04217 -0.117468,-0.111444 -0.04217,-0.07229 -0.06024,-0.159636 -0.01807,-0.09036 -0.01807,-0.183732 z m -0.427704,0 q 0,0.186744 0.05723,0.337344 0.05723,0.1506 0.162648,0.259032 0.10542,0.10542 0.253008,0.162648 0.147588,0.05723 0.33132,0.05723 0.183732,0 0.33132,-0.05723 0.1506,-0.05723 0.25602,-0.162648 0.10542,-0.108432 0.162648,-0.259032 0.05723,-0.1506 0.05723,-0.337344 0,-0.186744 -0.05723,-0.337344 -0.05723,-0.153612 -0.162648,-0.259032 -0.10542,-0.108432 -0.25602,-0.16566 -0.147588,-0.06024 -0.33132,-0.06024 -0.183732,0 -0.33132,0.06024 -0.147588,0.05723 -0.253008,0.16566 -0.10542,0.10542 -0.162648,0.259032 -0.05723,0.1506 -0.05723,0.337344 z"
         id="path56111" />
      <path
         d="m 57.7807,15.342981 v 1.557204 h 0.427704 v -0.816252 q 0,-0.237948 0.07831,-0.340356 0.07831,-0.10542 0.253008,-0.10542 0.153612,0 0.213852,0.09638 0.06024,0.09337 0.06024,0.28614 v 0.879504 h 0.427704 v -0.957816 q 0,-0.144576 -0.02711,-0.262044 -0.0241,-0.12048 -0.08735,-0.201804 -0.06325,-0.08434 -0.174696,-0.129516 -0.108432,-0.04819 -0.280116,-0.04819 -0.13554,0 -0.265056,0.06325 -0.129516,0.06024 -0.21084,0.19578 h -0.009 v -0.216864 z"
         id="path56113" />
    </g>
  </g>
</svg>
